CommonSerif-Italic.ufo
<glyph name="quotesingle" format="2">
	<unicode hex="0027"/>
	<advance width="190"/>
	<outline>
		<contour>
			<point x="144" y="426" type="line"/>
			<point x="172" y="430" type="line"/>
			<point x="247" y="611" type="line"/>
			<point x="247" y="632"/>
			<point x="242" y="644"/>
			<point x="218" y="644" type="curve" smooth="yes"/>
			<point x="189" y="644"/>
			<point x="161" y="621"/>
			<point x="158" y="594" type="curve"/>
		</contour>
	</outline>
</glyph>
<glyph name="comma" format="2">
  <advance width="219"/>
  <unicode hex="002C"/>
  <outline>
    <contour>
      <point x="121" y="95" type="curve" smooth="yes"/>
      <point x="92" y="95"/>
      <point x="67" y="77"/>
      <point x="67" y="45" type="curve" smooth="yes"/>
      <point x="67" y="-10"/>
      <point x="127" y="8"/>
      <point x="127" y="-22" type="curve" smooth="yes"/>
      <point x="127" y="-50"/>
      <point x="76" y="-97"/>
      <point x="23" y="-109" type="curve"/>
      <point x="20" y="-118"/>
      <point x="23" y="-126"/>
      <point x="31" y="-132" type="curve"/>
      <point x="114" y="-117"/>
      <point x="175" y="-57"/>
      <point x="175" y="31" type="curve" smooth="yes"/>
      <point x="175" y="71"/>
      <point x="152" y="95"/>
    </contour>
  </outline>
</glyph>
<glyph name="zero" format="2">
  <advance width="444"/>
  <unicode hex="0030"/>
  <outline>
    <contour>
      <point x="226" y="-10" type="curve" smooth="yes"/>
      <point x="401" y="-10"/>
      <point x="483" y="278"/>
      <point x="483" y="412" type="curve" smooth="yes"/>
      <point x="483" y="513"/>
      <point x="451" y="610"/>
      <point x="351" y="610" type="curve" smooth="yes"/>
      <point x="182" y="610"/>
      <point x="95" y="320"/>
      <point x="95" y="192" type="curve" smooth="yes"/>
      <point x="95" y="90"/>
      <point x="130" y="-10"/>
    </contour>
    <contour>
      <point x="233" y="22" type="curve" smooth="yes"/>
      <point x="172" y="22"/>
      <point x="165" y="95"/>
      <point x="165" y="141" type="curve" smooth="yes"/>
      <point x="165" y="229"/>
      <point x="221" y="578"/>
      <point x="345" y="578" type="curve" smooth="yes"/>
      <point x="406" y="578"/>
      <point x="413" y="503"/>
      <point x="413" y="457" type="curve" smooth="yes"/>
      <point x="413" y="367"/>
      <point x="368" y="22"/>
    </contour>
  </outline>
</glyph>
<glyph name="B" format="2">
	<unicode hex="0042"/>
	<advance width="549"/>
	<outline>
		<contour>
			<point x="251" y="645" type="curve"/>
			<point x="127" y="0" type="line"/>
			<point x="148" y="0" type="line" smooth="yes"/>
			<point x="178" y="0"/>
			<point x="197" y="-2"/>
			<point x="273" y="-2" type="curve" smooth="yes"/>
			<point x="412" y="-2"/>
			<point x="554" y="66"/>
			<point x="554" y="221" type="curve" smooth="yes"/>
			<point x="554" y="294"/>
			<point x="506" y="338"/>
			<point x="439" y="360" type="curve"/>
			<point x="439" y="362" type="line"/>
			<point x="504" y="393"/>
			<point x="557" y="454"/>
			<point x="557" y="530" type="curve" smooth="yes"/>
			<point x="557" y="588"/>
			<point x="524" y="647"/>
			<point x="378" y="647" type="curve" smooth="yes"/>
			<point x="344" y="647"/>
			<point x="290" y="645"/>
		</contour>
		<contour>
			<point x="286" y="570" type="line" smooth="yes"/>
			<point x="292" y="603"/>
			<point x="294" y="613"/>
			<point x="378" y="613" type="curve" smooth="yes"/>
			<point x="425" y="613"/>
			<point x="481" y="590"/>
			<point x="481" y="516" type="curve" smooth="yes"/>
			<point x="481" y="416"/>
			<point x="414" y="366"/>
			<point x="317" y="366" type="curve" smooth="yes"/>
			<point x="231" y="366" type="line"/>
			<point x="225" y="332" type="line"/>
			<point x="306" y="332" type="line" smooth="yes"/>
			<point x="389" y="332"/>
			<point x="466" y="299"/>
			<point x="466" y="202" type="curve" smooth="yes"/>
			<point x="466" y="77"/>
			<point x="379" y="32"/>
			<point x="261" y="32" type="curve" smooth="yes"/>
			<point x="205" y="32"/>
			<point x="189" y="41"/>
			<point x="189" y="64" type="curve" smooth="yes"/>
			<point x="189" y="68"/>
			<point x="189" y="73"/>
			<point x="190" y="78" type="curve" smooth="yes"/>
		</contour>
		<contour>
			<point x="174" y="0" type="line"/>
			<point x="282" y="554" type="line"/>
			<point x="251" y="645" type="line"/>
			<point x="207" y="645"/>
			<point x="170" y="646"/>
			<point x="137" y="647" type="curve"/>
			<point x="135" y="645"/>
			<point x="129" y="628"/>
			<point x="134" y="618" type="curve"/>
			<point x="185" y="616"/>
			<point x="205" y="606"/>
			<point x="205" y="585" type="curve" smooth="yes"/>
			<point x="205" y="567"/>
			<point x="204" y="551"/>
			<point x="198" y="521" type="curve" smooth="yes"/>
			<point x="121" y="122" type="line" smooth="yes"/>
			<point x="108" y="56"/>
			<point x="85" y="34"/>
			<point x="17" y="27" type="curve"/>
			<point x="11" y="17"/>
			<point x="8" y="5"/>
			<point x="13" y="-2" type="curve"/>
			<point x="58" y="-1"/>
			<point x="98" y="0"/>
			<point x="135" y="0" type="curve" smooth="yes"/>
		</contour>
	</outline>
	<anchor name="t.uni0302" x="390" y="740"/>
	<anchor name="b.minus-60" x="238" y="-60"/>
	<guideline x="350" y="521" angle="259.077"/>
</glyph>
<glyph name="C" format="2">
  <advance width="616"/>
  <unicode hex="0043"/>
  <anchor x="316" y="-60" name="b.minus-60"/>
  <anchor x="356" y="-0" name="b.cedilla"/>
  <anchor x="471" y="740" name="t.uni0302"/>
  <outline>
    <contour>
      <point x="330" y="-10" type="curve" smooth="yes"/>
      <point x="433" y="-10"/>
      <point x="528" y="37"/>
      <point x="610" y="126" type="curve"/>
      <point x="607" y="135"/>
      <point x="602" y="141"/>
      <point x="591" y="141" type="curve"/>
      <point x="508" y="63"/>
      <point x="436" y="32"/>
      <point x="347" y="32" type="curve" smooth="yes"/>
      <point x="227" y="32"/>
      <point x="177" y="134"/>
      <point x="177" y="241" type="curve" smooth="yes"/>
      <point x="177" y="398"/>
      <point x="285" y="619"/>
      <point x="453" y="619" type="curve" smooth="yes"/>
      <point x="586" y="619"/>
      <point x="626" y="538"/>
      <point x="634" y="453" type="curve"/>
      <point x="639" y="453"/>
      <point x="656" y="454"/>
      <point x="663" y="457" type="curve"/>
      <point x="664" y="508"/>
      <point x="666" y="557"/>
      <point x="672" y="611" type="curve"/>
      <point x="618" y="614"/>
      <point x="589" y="658"/>
      <point x="471" y="658" type="curve" smooth="yes"/>
      <point x="263" y="658"/>
      <point x="89" y="439"/>
      <point x="89" y="241" type="curve" smooth="yes"/>
      <point x="89" y="109"/>
      <point x="166" y="-10"/>
    </contour>
  </outline>
  <guideline angle="259.077" x="428" y="521"/>
</glyph>
<glyph name="E" format="2">
  <advance width="526"/>
  <unicode hex="0045"/>
  <anchor x="385" y="740" name="t.uni0302"/>
  <anchor x="269" y="-107" name="m.uni0316_2"/>
  <anchor x="279" y="4" name="b.uni0327_5"/>
  <outline>
    <contour>
      <point x="174" y="0" type="line"/>
      <point x="285" y="571" type="line" smooth="yes"/>
      <point x="290" y="595"/>
      <point x="304" y="605"/>
      <point x="327" y="605" type="curve" smooth="yes"/>
      <point x="427" y="605" type="line" smooth="yes"/>
      <point x="499" y="605"/>
      <point x="509" y="565"/>
      <point x="517" y="496" type="curve"/>
      <point x="526" y="496"/>
      <point x="539" y="498"/>
      <point x="545" y="501" type="curve"/>
      <point x="545" y="545"/>
      <point x="552" y="637"/>
      <point x="553" y="645" type="curve"/>
      <point x="553" y="647"/>
      <point x="552" y="649"/>
      <point x="549" y="649" type="curve"/>
      <point x="532" y="646"/>
      <point x="517" y="645"/>
      <point x="503" y="645" type="curve" smooth="yes"/>
      <point x="260" y="645" type="line" smooth="yes"/>
      <point x="223" y="645"/>
      <point x="182" y="646"/>
      <point x="137" y="647" type="curve"/>
      <point x="135" y="645"/>
      <point x="129" y="628"/>
      <point x="134" y="618" type="curve" name=".hr01"/>
      <point x="185" y="616"/>
      <point x="205" y="606"/>
      <point x="205" y="585" type="curve" smooth="yes"/>
      <point x="205" y="567"/>
      <point x="204" y="551"/>
      <point x="198" y="521" type="curve" smooth="yes"/>
      <point x="121" y="122" type="line" smooth="yes"/>
      <point x="108" y="56"/>
      <point x="85" y="34"/>
      <point x="17" y="27" type="curve"/>
      <point x="11" y="17"/>
      <point x="8" y="5"/>
      <point x="13" y="-2" type="curve"/>
      <point x="58" y="-1"/>
      <point x="98" y="0"/>
      <point x="135" y="0" type="curve"/>
    </contour>
    <contour>
      <point x="367" y="361" type="curve" smooth="yes"/>
      <point x="230" y="361" type="line"/>
      <point x="222" y="323" type="line"/>
      <point x="359" y="323" type="line" smooth="yes"/>
      <point x="384" y="323"/>
      <point x="398" y="301"/>
      <point x="398" y="260" type="curve" smooth="yes"/>
      <point x="398" y="254" type="line"/>
      <point x="409" y="251"/>
      <point x="421" y="253"/>
      <point x="430" y="258" type="curve"/>
      <point x="436" y="318"/>
      <point x="448" y="378"/>
      <point x="464" y="436" type="curve"/>
      <point x="456" y="439"/>
      <point x="438" y="439"/>
      <point x="431" y="436" type="curve"/>
      <point x="417" y="381"/>
      <point x="409" y="361"/>
    </contour>
    <contour>
      <point x="135" y="0" type="line"/>
      <point x="341" y="0" type="line" smooth="yes"/>
      <point x="387" y="0"/>
      <point x="455" y="-2"/>
      <point x="463" y="-2" type="curve"/>
      <point x="484" y="50"/>
      <point x="509" y="113"/>
      <point x="531" y="165" type="curve"/>
      <point x="526" y="168"/>
      <point x="512" y="170"/>
      <point x="502" y="170" type="curve"/>
      <point x="469" y="98"/>
      <point x="420" y="39"/>
      <point x="347" y="39" type="curve" smooth="yes" name=".hr02"/>
      <point x="217" y="39" type="line" smooth="yes"/>
      <point x="199" y="39"/>
      <point x="187" y="43"/>
      <point x="187" y="62" type="curve" smooth="yes"/>
      <point x="187" y="65"/>
      <point x="187" y="68"/>
      <point x="188" y="72" type="curve"/>
    </contour>
  </outline>
  <guideline angle="78.9995" x="188" y="72"/>
  <guideline angle="259.077" x="198" y="521"/>
</glyph>
<glyph name="F" format="2">
  <advance width="457"/>
  <unicode hex="0046"/>
  <anchor x="406" y="850" name="m.uni0302"/>
  <anchor x="131" y="-111" name="m.uni0316_2"/>
  <anchor x="145" y="-1" name="b.uni0327_5"/>
  <outline>
    <contour>
      <point x="120" y="120" type="line"/>
      <point x="197" y="120" type="line"/>
      <point x="237" y="323" type="line"/>
      <point x="332" y="323" type="line" smooth="yes"/>
      <point x="341" y="323"/>
      <point x="350" y="323"/>
      <point x="359" y="323" type="curve" smooth="yes"/>
      <point x="389" y="323"/>
      <point x="401" y="316"/>
      <point x="401" y="293" type="curve" smooth="yes"/>
      <point x="401" y="291"/>
      <point x="400" y="288"/>
      <point x="400" y="285" type="curve"/>
      <point x="399" y="277"/>
      <point x="399" y="268"/>
      <point x="398" y="260" type="curve"/>
      <point x="398" y="259"/>
      <point x="398" y="257"/>
      <point x="398" y="255" type="curve"/>
      <point x="399" y="253"/>
      <point x="401" y="252"/>
      <point x="403" y="252" type="curve" smooth="yes"/>
      <point x="410" y="252"/>
      <point x="417" y="252"/>
      <point x="424" y="252" type="curve"/>
      <point x="425" y="253"/>
      <point x="426" y="253"/>
      <point x="427" y="254" type="curve"/>
      <point x="429" y="255" type="line"/>
      <point x="432" y="282"/>
      <point x="435" y="303"/>
      <point x="438" y="319" type="curve"/>
      <point x="439" y="328"/>
      <point x="441" y="335"/>
      <point x="442" y="342" type="curve" smooth="yes"/>
      <point x="445" y="362"/>
      <point x="452" y="392"/>
      <point x="463" y="432" type="curve"/>
      <point x="460" y="436" type="line"/>
      <point x="453" y="436"/>
      <point x="446" y="436"/>
      <point x="439" y="436" type="curve" smooth="yes"/>
      <point x="435" y="436"/>
      <point x="431" y="432"/>
      <point x="430" y="428" type="curve" smooth="yes"/>
      <point x="428" y="420"/>
      <point x="425" y="411"/>
      <point x="423" y="403" type="curve"/>
      <point x="414" y="375"/>
      <point x="400" y="361"/>
      <point x="367" y="361" type="curve" smooth="yes"/>
      <point x="358" y="361"/>
      <point x="349" y="361"/>
      <point x="340" y="361" type="curve" smooth="yes"/>
      <point x="245" y="361" type="line"/>
      <point x="285" y="571" type="line" smooth="yes"/>
      <point x="290" y="595"/>
      <point x="304" y="605"/>
      <point x="327" y="605" type="curve" smooth="yes"/>
      <point x="332" y="605"/>
      <point x="337" y="605"/>
      <point x="341" y="605" type="curve" smooth="yes"/>
      <point x="413" y="605" type="line" smooth="yes"/>
      <point x="417" y="605"/>
      <point x="422" y="605"/>
      <point x="427" y="605" type="curve" smooth="yes"/>
      <point x="499" y="605"/>
      <point x="509" y="565"/>
      <point x="517" y="496" type="curve"/>
      <point x="526" y="498"/>
      <point x="536" y="499"/>
      <point x="545" y="501" type="curve"/>
      <point x="548" y="542"/>
      <point x="553" y="638"/>
      <point x="553" y="646" type="curve" smooth="yes"/>
      <point x="553" y="648"/>
      <point x="552" y="649"/>
      <point x="550" y="649" type="curve"/>
      <point x="532" y="646"/>
      <point x="527" y="645"/>
      <point x="504" y="645" type="curve" smooth="yes"/>
      <point x="260" y="645" type="line" smooth="yes"/>
      <point x="223" y="645"/>
      <point x="184" y="646"/>
      <point x="139" y="647" type="curve"/>
      <point x="138" y="646"/>
      <point x="138" y="646"/>
      <point x="137" y="645" type="curve"/>
      <point x="136" y="638"/>
      <point x="134" y="632"/>
      <point x="133" y="625" type="curve"/>
      <point x="133" y="624"/>
      <point x="132" y="622"/>
      <point x="133" y="620" type="curve"/>
      <point x="134" y="619"/>
      <point x="136" y="618" name=".hr01"/>
      <point x="139" y="618" type="curve"/>
      <point x="148" y="617"/>
      <point x="158" y="617"/>
      <point x="167" y="616" type="curve"/>
      <point x="198" y="614"/>
      <point x="210" y="606"/>
      <point x="210" y="586" type="curve" smooth="yes"/>
      <point x="210" y="581"/>
      <point x="209" y="577"/>
      <point x="208" y="571" type="curve"/>
      <point x="205" y="556"/>
      <point x="202" y="542"/>
      <point x="199" y="527" type="curve" smooth="yes"/>
    </contour>
    <contour>
      <point x="14" y="-2" type="curve"/>
      <point x="59" y="-1"/>
      <point x="98" y="0"/>
      <point x="135" y="0" type="curve" smooth="yes"/>
      <point x="148" y="0" type="line" smooth="yes"/>
      <point x="183" y="0"/>
      <point x="218" y="-1"/>
      <point x="258" y="-2" type="curve"/>
      <point x="261" y="1"/>
      <point x="267" y="25"/>
      <point x="263" y="25" type="curve"/>
      <point x="206" y="30"/>
      <point x="190" y="40"/>
      <point x="190" y="70" type="curve" smooth="yes"/>
      <point x="190" y="82"/>
      <point x="193" y="100"/>
      <point x="197" y="120" type="curve"/>
      <point x="120" y="120" type="line"/>
      <point x="108" y="59"/>
      <point x="71" y="29"/>
      <point x="19" y="25" type="curve"/>
      <point x="15" y="21"/>
      <point x="11" y="1"/>
    </contour>
  </outline>
  <guideline angle="0" x="0" y="120"/>
</glyph>
<glyph name="H" format="2">
	<unicode hex="0048"/>
	<advance width="668"/>
	<outline>
		<contour>
			<point x="598" y="569" type="curve" smooth="yes"/>
			<point x="558" y="363" type="line"/>
			<point x="245" y="363" type="line"/>
			<point x="285" y="569" type="line" smooth="yes"/>
			<point x="291" y="600"/>
			<point x="322" y="613"/>
			<point x="378" y="618" type="curve"/>
			<point x="382" y="622"/>
			<point x="384" y="638"/>
			<point x="380" y="647" type="curve"/>
			<point x="341" y="646"/>
			<point x="309" y="645"/>
			<point x="277" y="645" type="curve" smooth="yes"/>
			<point x="251" y="645" type="line"/>
			<point x="127" y="0" type="line"/>
			<point x="132" y="0"/>
			<point x="147" y="0"/>
			<point x="153" y="0" type="curve" smooth="yes"/>
			<point x="187" y="0"/>
			<point x="225" y="-1"/>
			<point x="263" y="-2" type="curve"/>
			<point x="266" y="2"/>
			<point x="269" y="22"/>
			<point x="266" y="27" type="curve"/>
			<point x="231" y="30"/>
			<point x="181" y="38"/>
			<point x="191" y="90" type="curve" smooth="yes"/>
			<point x="236" y="321" type="line"/>
			<point x="549" y="321" type="line"/>
			<point x="503" y="90" type="line" smooth="yes"/>
			<point x="496" y="53"/>
			<point x="488" y="35"/>
			<point x="408" y="27" type="curve"/>
			<point x="404" y="23"/>
			<point x="402" y="7"/>
			<point x="406" y="-2" type="curve"/>
			<point x="445" y="-1"/>
			<point x="477" y="0"/>
			<point x="509" y="0" type="curve" smooth="yes"/>
			<point x="526" y="0" type="line" smooth="yes"/>
			<point x="564" y="0"/>
			<point x="609" y="-1"/>
			<point x="653" y="-2" type="curve"/>
			<point x="656" y="2"/>
			<point x="659" y="22"/>
			<point x="656" y="27" type="curve"/>
			<point x="613" y="31"/>
			<point x="571" y="39"/>
			<point x="581" y="90" type="curve" smooth="yes"/>
			<point x="675" y="569" type="line" smooth="yes"/>
			<point x="681" y="600"/>
			<point x="704" y="613"/>
			<point x="768" y="618" type="curve"/>
			<point x="772" y="622"/>
			<point x="774" y="638"/>
			<point x="770" y="647" type="curve"/>
			<point x="725" y="646"/>
			<point x="689" y="645"/>
			<point x="650" y="645" type="curve" smooth="yes"/>
			<point x="633" y="645" type="line" smooth="yes"/>
			<point x="599" y="645"/>
			<point x="561" y="646"/>
			<point x="523" y="647" type="curve"/>
			<point x="520" y="643"/>
			<point x="517" y="623"/>
			<point x="520" y="618" type="curve"/>
			<point x="577" y="615"/>
			<point x="604" y="600"/>
		</contour>
		<contour>
			<point x="174" y="0" type="line"/>
			<point x="282" y="554" type="line"/>
			<point x="251" y="645" type="line"/>
			<point x="207" y="645"/>
			<point x="170" y="646"/>
			<point x="137" y="647" type="curve"/>
			<point x="135" y="645"/>
			<point x="129" y="628"/>
			<point x="134" y="618" type="curve"/>
			<point x="185" y="616"/>
			<point x="205" y="606"/>
			<point x="205" y="585" type="curve" smooth="yes"/>
			<point x="205" y="567"/>
			<point x="204" y="551"/>
			<point x="198" y="521" type="curve" smooth="yes"/>
			<point x="121" y="122" type="line" smooth="yes"/>
			<point x="108" y="56"/>
			<point x="85" y="34"/>
			<point x="17" y="27" type="curve"/>
			<point x="11" y="17"/>
			<point x="8" y="5"/>
			<point x="13" y="-2" type="curve"/>
			<point x="58" y="-1"/>
			<point x="98" y="0"/>
			<point x="135" y="0" type="curve" smooth="yes"/>
		</contour>
	</outline>
	<anchor name="t.uni0302" x="474" y="740"/>
	<anchor name="b.minus-60" x="316" y="-60"/>
	<anchor name="b.cedilla" x="145" y="10"/>
	<guideline x="0" y="740" angle="0"/>
	<guideline x="0" y="-60" angle="0"/>
	<guideline x="0" y="90" angle="0"/>
	<guideline x="0" y="122" angle="0"/>
	<guideline x="191" y="76" angle="78.9151"/>
	<guideline x="211" y="569" angle="258.869"/>
	<guideline x="552" y="321" angle="258.797"/>
	<guideline x="588" y="114" angle="78.8112"/>
	<guideline x="0" y="551" angle="0"/>
	<guideline x="601" y="569" angle="259.011"/>
	<guideline x="584" y="90" angle="78.8972"/>
	<guideline x="211" y="569" angle="258.897"/>
	<guideline x="428" y="521" angle="259.077"/>
</glyph>
<glyph name="I" format="2">
	<unicode hex="0049"/>
	<advance width="280"/>
	<outline>
		<contour>
			<point x="122" y="0" type="line"/>
			<point x="156" y="0"/>
			<point x="227" y="-1"/>
			<point x="265" y="-2" type="curve"/>
			<point x="268" y="2"/>
			<point x="271" y="22"/>
			<point x="268" y="27" type="curve"/>
			<point x="206" y="33"/>
			<point x="182" y="38"/>
			<point x="200" y="129" type="curve" smooth="yes"/>
			<point x="278" y="534" type="line" smooth="yes"/>
			<point x="289" y="591"/>
			<point x="301" y="610"/>
			<point x="378" y="618" type="curve"/>
			<point x="382" y="622"/>
			<point x="384" y="638"/>
			<point x="380" y="647" type="curve"/>
			<point x="335" y="646"/>
			<point x="302" y="645"/>
			<point x="263" y="645" type="curve"/>
			<point x="251" y="645" type="line"/>
		</contour>
		<contour>
			<point x="174" y="0" type="line"/>
			<point x="282" y="554" type="line"/>
			<point x="251" y="645" type="line"/>
			<point x="207" y="645"/>
			<point x="170" y="646"/>
			<point x="137" y="647" type="curve"/>
			<point x="135" y="645"/>
			<point x="129" y="628"/>
			<point x="134" y="618" type="curve"/>
			<point x="185" y="616"/>
			<point x="205" y="606"/>
			<point x="205" y="585" type="curve" smooth="yes"/>
			<point x="205" y="567"/>
			<point x="204" y="551"/>
			<point x="198" y="521" type="curve" smooth="yes"/>
			<point x="121" y="122" type="line" smooth="yes"/>
			<point x="108" y="56"/>
			<point x="85" y="34"/>
			<point x="17" y="27" type="curve"/>
			<point x="11" y="17"/>
			<point x="8" y="5"/>
			<point x="13" y="-2" type="curve"/>
			<point x="58" y="-1"/>
			<point x="98" y="0"/>
			<point x="135" y="0" type="curve" smooth="yes"/>
		</contour>
	</outline>
	<anchor name="t.uni0302" x="294" y="740"/>
	<anchor name="b.ogonek" x="193" y="10"/>
	<anchor name="b.minus-60" x="129" y="-60"/>
	<guideline x="251" y="645" angle="258.69"/>
</glyph>
<glyph name="L" format="2">
  <advance width="519"/>
  <unicode hex="004C"/>
  <anchor x="480" y="740" name="t.uni0302"/>
  <anchor x="232" y="-60" name="b.minus-60"/>
  <outline>
    <contour>
      <point x="338" y="39" type="curve" smooth="yes"/>
      <point x="228" y="39" type="line" smooth="yes"/>
      <point x="197" y="39"/>
      <point x="187" y="63"/>
      <point x="192" y="89" type="curve" smooth="yes"/>
      <point x="278" y="531" type="line" smooth="yes"/>
      <point x="291" y="598"/>
      <point x="305" y="610"/>
      <point x="379" y="618" type="curve"/>
      <point x="383" y="622"/>
      <point x="385" y="638"/>
      <point x="381" y="647" type="curve"/>
      <point x="342" y="646"/>
      <point x="310" y="645"/>
      <point x="278" y="645" type="curve" smooth="yes"/>
      <point x="250" y="645" type="line"/>
      <point x="127" y="0" type="line"/>
      <point x="133" y="0"/>
      <point x="150" y="0"/>
      <point x="156" y="0" type="curve" smooth="yes"/>
      <point x="341" y="0" type="line" smooth="yes"/>
      <point x="367" y="0"/>
      <point x="446" y="-2"/>
      <point x="455" y="-2" type="curve"/>
      <point x="470" y="54"/>
      <point x="492" y="111"/>
      <point x="513" y="163" type="curve"/>
      <point x="507" y="169"/>
      <point x="495" y="172"/>
      <point x="485" y="170" type="curve"/>
      <point x="457" y="109"/>
      <point x="411" y="39"/>
    </contour>
    <contour>
      <point x="174" y="0" type="line"/>
      <point x="282" y="554" type="line"/>
      <point x="251" y="645" type="line"/>
      <point x="207" y="645"/>
      <point x="170" y="646"/>
      <point x="137" y="647" type="curve"/>
      <point x="135" y="645"/>
      <point x="129" y="628"/>
      <point x="134" y="618" type="curve"/>
      <point x="185" y="616"/>
      <point x="205" y="606"/>
      <point x="205" y="585" type="curve" smooth="yes"/>
      <point x="205" y="567"/>
      <point x="204" y="551"/>
      <point x="198" y="521" type="curve" smooth="yes"/>
      <point x="121" y="122" type="line" smooth="yes"/>
      <point x="108" y="56"/>
      <point x="85" y="34"/>
      <point x="17" y="27" type="curve"/>
      <point x="11" y="17"/>
      <point x="8" y="5"/>
      <point x="13" y="-2" type="curve"/>
      <point x="58" y="-1"/>
      <point x="98" y="0"/>
      <point x="135" y="0" type="curve" smooth="yes"/>
    </contour>
  </outline>
</glyph>
<glyph name="P" format="2">
	<unicode hex="0050"/>
	<advance width="499"/>
	<outline>
		<contour>
			<point x="387" y="654" type="curve" smooth="yes"/>
			<point x="362" y="654"/>
			<point x="300" y="645"/>
			<point x="261" y="645" type="curve"/>
			<point x="251" y="645" type="line"/>
			<point x="124" y="0" type="line"/>
			<point x="162" y="0"/>
			<point x="222" y="-1"/>
			<point x="267" y="-2" type="curve"/>
			<point x="268" y="-1"/>
			<point x="275" y="17"/>
			<point x="270" y="27" type="curve"/>
			<point x="205" y="36"/>
			<point x="184" y="50"/>
			<point x="191" y="87" type="curve" smooth="yes"/>
			<point x="276" y="522" type="line" smooth="yes"/>
			<point x="292" y="602"/>
			<point x="310" y="620"/>
			<point x="373" y="620" type="curve" smooth="yes"/>
			<point x="430" y="620"/>
			<point x="484" y="602"/>
			<point x="484" y="520" type="curve" smooth="yes"/>
			<point x="484" y="406"/>
			<point x="426" y="316"/>
			<point x="304" y="316" type="curve" smooth="yes"/>
			<point x="257" y="316"/>
			<point x="240" y="319"/>
			<point x="210" y="329" type="curve"/>
			<point x="209" y="318"/>
			<point x="212" y="307"/>
			<point x="218" y="297" type="curve"/>
			<point x="245" y="286"/>
			<point x="261" y="282"/>
			<point x="302" y="282" type="curve" smooth="yes"/>
			<point x="437" y="282"/>
			<point x="569" y="375"/>
			<point x="569" y="518" type="curve" smooth="yes"/>
			<point x="569" y="577"/>
			<point x="535" y="654"/>
		</contour>
		<contour>
			<point x="174" y="0" type="line"/>
			<point x="282" y="554" type="line"/>
			<point x="251" y="645" type="line"/>
			<point x="207" y="645"/>
			<point x="170" y="646"/>
			<point x="137" y="647" type="curve"/>
			<point x="135" y="645"/>
			<point x="129" y="628"/>
			<point x="134" y="618" type="curve"/>
			<point x="185" y="616"/>
			<point x="205" y="606"/>
			<point x="205" y="585" type="curve" smooth="yes"/>
			<point x="205" y="567"/>
			<point x="204" y="551"/>
			<point x="198" y="521" type="curve" smooth="yes"/>
			<point x="121" y="122" type="line" smooth="yes"/>
			<point x="108" y="56"/>
			<point x="85" y="34"/>
			<point x="17" y="27" type="curve"/>
			<point x="11" y="17"/>
			<point x="8" y="5"/>
			<point x="13" y="-2" type="curve"/>
			<point x="58" y="-1"/>
			<point x="98" y="0"/>
			<point x="135" y="0" type="curve" smooth="yes"/>
		</contour>
	</outline>
	<anchor name="t.uni0302" x="351" y="740"/>
	<anchor name="b.minus-60" x="135" y="-60"/>
</glyph>
<glyph name="Q" format="2">
  <advance width="668"/>
  <unicode hex="0051"/>
  <anchor x="498" y="850" name="m.uni0302"/>
  <anchor x="720" y="606" name="t.uni0315_1"/>
  <anchor x="480" y="740" name="t.uni0302"/>
  <outline>
    <component base="O"/>
    <contour>
      <point x="127" y="-128" type="curve" smooth="yes"/>
      <point x="104" y="-153" type="line"/>
      <point x="137" y="-173" type="line"/>
      <point x="183" y="-126" type="line" smooth="yes"/>
      <point x="192" y="-117"/>
      <point x="212" y="-114"/>
      <point x="219" y="-114" type="curve" smooth="yes"/>
      <point x="306" y="-114"/>
      <point x="352" y="-208"/>
      <point x="473" y="-208" type="curve" smooth="yes"/>
      <point x="538" y="-208"/>
      <point x="582" y="-182"/>
      <point x="629" y="-127" type="curve"/>
      <point x="615" y="-115" type="line"/>
      <point x="592" y="-140"/>
      <point x="559" y="-152"/>
      <point x="525" y="-152" type="curve" smooth="yes"/>
      <point x="439" y="-152"/>
      <point x="376" y="-70"/>
      <point x="272" y="-70" type="curve" smooth="yes"/>
      <point x="266" y="-70"/>
      <point x="260" y="-70"/>
      <point x="253" y="-71" type="curve"/>
      <point x="253" y="-71" type="line"/>
      <point x="308" y="-35"/>
      <point x="358" y="-13"/>
      <point x="393" y="-4" type="curve"/>
      <point x="393" y="-1" type="line"/>
      <point x="309" y="-1" type="line"/>
      <point x="240" y="-31"/>
      <point x="171" y="-81"/>
    </contour>
  </outline>
</glyph>
<glyph name="R" format="2">
	<unicode hex="0052"/>
	<advance width="550"/>
	<outline>
		<contour>
			<point x="382" y="654" type="curve" smooth="yes"/>
			<point x="358" y="654"/>
			<point x="298" y="645"/>
			<point x="260" y="645" type="curve"/>
			<point x="251" y="645" type="line"/>
			<point x="124" y="0" type="line"/>
			<point x="166" y="0"/>
			<point x="208" y="-1"/>
			<point x="257" y="-2" type="curve"/>
			<point x="261" y="2"/>
			<point x="266" y="21"/>
			<point x="262" y="25" type="curve" smooth="yes"/>
			<point x="254" y="33"/>
			<point x="187" y="18"/>
			<point x="187" y="59" type="curve" smooth="yes"/>
			<point x="187" y="63"/>
			<point x="187" y="67"/>
			<point x="188" y="72" type="curve" smooth="yes"/>
			<point x="231" y="291" type="line"/>
			<point x="298" y="291"/>
			<point x="327" y="281"/>
			<point x="338" y="253" type="curve" smooth="yes"/>
			<point x="401" y="92" type="line" smooth="yes"/>
			<point x="428" y="22"/>
			<point x="446" y="-10"/>
			<point x="516" y="-10" type="curve" smooth="yes"/>
			<point x="530" y="-10"/>
			<point x="547" y="-8"/>
			<point x="558" y="-3" type="curve"/>
			<point x="561" y="2"/>
			<point x="563" y="12"/>
			<point x="561" y="21" type="curve"/>
			<point x="518" y="21"/>
			<point x="500" y="55"/>
			<point x="484" y="98" type="curve" smooth="yes"/>
			<point x="404" y="308" type="line"/>
			<point x="493" y="336"/>
			<point x="569" y="412"/>
			<point x="569" y="505" type="curve" smooth="yes"/>
			<point x="569" y="626"/>
			<point x="487" y="654"/>
		</contour>
		<contour>
			<point x="485" y="521" type="curve" smooth="yes"/>
			<point x="485" y="394"/>
			<point x="411" y="325"/>
			<point x="285" y="325" type="curve" smooth="yes"/>
			<point x="237" y="325" type="line"/>
			<point x="286" y="574" type="line" smooth="yes"/>
			<point x="292" y="603"/>
			<point x="308" y="620"/>
			<point x="376" y="620" type="curve" smooth="yes"/>
			<point x="427" y="620"/>
			<point x="485" y="602"/>
		</contour>
		<contour>
			<point x="174" y="0" type="line"/>
			<point x="282" y="554" type="line"/>
			<point x="251" y="645" type="line"/>
			<point x="207" y="645"/>
			<point x="170" y="646"/>
			<point x="137" y="647" type="curve"/>
			<point x="135" y="645"/>
			<point x="129" y="628"/>
			<point x="134" y="618" type="curve"/>
			<point x="185" y="616"/>
			<point x="205" y="606"/>
			<point x="205" y="585" type="curve" smooth="yes"/>
			<point x="205" y="567"/>
			<point x="204" y="551"/>
			<point x="198" y="521" type="curve" smooth="yes"/>
			<point x="121" y="122" type="line" smooth="yes"/>
			<point x="108" y="56"/>
			<point x="85" y="34"/>
			<point x="17" y="27" type="curve"/>
			<point x="11" y="17"/>
			<point x="8" y="5"/>
			<point x="13" y="-2" type="curve"/>
			<point x="58" y="-1"/>
			<point x="98" y="0"/>
			<point x="135" y="0" type="curve" smooth="yes"/>
		</contour>
	</outline>
	<anchor name="t.uni0302" x="378" y="740"/>
	<anchor name="b.minus-60" x="278" y="-60"/>
	<guideline x="193" y="72" angle="78.8915"/>
</glyph>
<glyph name="T" format="2">
	<unicode hex="0054"/>
	<advance width="544"/>
	<outline>
		<contour>
			<point x="167" y="-2" type="curve"/>
			<point x="212" y="-1"/>
			<point x="248" y="0"/>
			<point x="287" y="0" type="curve" smooth="yes"/>
			<point x="325" y="0"/>
			<point x="370" y="-1"/>
			<point x="414" y="-2" type="curve"/>
			<point x="417" y="2"/>
			<point x="420" y="22"/>
			<point x="417" y="27" type="curve"/>
			<point x="350" y="34"/>
			<point x="333" y="45"/>
			<point x="339" y="76" type="curve" smooth="yes"/>
			<point x="434" y="564" type="line" smooth="yes"/>
			<point x="439" y="589"/>
			<point x="459" y="606"/>
			<point x="488" y="606" type="curve" smooth="yes"/>
			<point x="542" y="606" type="line" smooth="yes"/>
			<point x="594" y="606"/>
			<point x="609" y="580"/>
			<point x="626" y="513" type="curve"/>
			<point x="636" y="513"/>
			<point x="644" y="513"/>
			<point x="656" y="518" type="curve"/>
			<point x="645" y="575"/>
			<point x="643" y="618"/>
			<point x="646" y="657" type="curve"/>
			<point x="644" y="659" type="line"/>
			<point x="619" y="649"/>
			<point x="599" y="645"/>
			<point x="563" y="645" type="curve" smooth="yes"/>
			<point x="229" y="645" type="line" smooth="yes"/>
			<point x="203" y="645"/>
			<point x="181" y="649"/>
			<point x="159" y="658" type="curve"/>
			<point x="157" y="658" type="line"/>
			<point x="145" y="609"/>
			<point x="137" y="581"/>
			<point x="111" y="528" type="curve"/>
			<point x="119" y="523"/>
			<point x="132" y="521"/>
			<point x="141" y="521" type="curve"/>
			<point x="170" y="586"/>
			<point x="195" y="606"/>
			<point x="248" y="606" type="curve" smooth="yes"/>
			<point x="317" y="606" type="line" smooth="yes"/>
			<point x="346" y="606"/>
			<point x="362" y="593"/>
			<point x="357" y="567" type="curve" smooth="yes"/>
			<point x="262" y="76" type="line" smooth="yes"/>
			<point x="256" y="44"/>
			<point x="232" y="31"/>
			<point x="169" y="27" type="curve"/>
			<point x="165" y="23"/>
			<point x="163" y="7"/>
		</contour>
	</outline>
	<anchor name="t.uni0302" x="434" y="740"/>
	<anchor name="b.minus-60" x="278" y="-60"/>
	<anchor name="b.cedilla" x="300" y="10"/>
	<guideline x="0" y="-60" angle="0"/>
</glyph>
<glyph name="V" format="2">
  <advance width="597"/>
  <unicode hex="0056"/>
  <anchor x="480" y="740" name="top"/>
  <anchor x="283" y="-60" name="b.minus-60"/>
  <outline>
    <contour>
      <point x="617" y="553" type="line" smooth="yes"/>
      <point x="636" y="586"/>
      <point x="668" y="612"/>
      <point x="721" y="618" type="curve"/>
      <point x="727" y="624"/>
      <point x="727" y="641"/>
      <point x="721" y="647" type="curve"/>
      <point x="691" y="646"/>
      <point x="666" y="645"/>
      <point x="643" y="645" type="curve" smooth="yes"/>
      <point x="638" y="645"/>
      <point x="632" y="645"/>
      <point x="627" y="645" type="curve" smooth="yes"/>
      <point x="601" y="645"/>
      <point x="557" y="646"/>
      <point x="517" y="647" type="curve"/>
      <point x="511" y="641"/>
      <point x="511" y="624"/>
      <point x="517" y="618" type="curve"/>
      <point x="567" y="614"/>
      <point x="594" y="600"/>
      <point x="573" y="561" type="curve" smooth="yes"/>
      <point x="381" y="202" type="line"/>
      <point x="340" y="127" type="line"/>
      <point x="338" y="125"/>
      <point x="336" y="124"/>
      <point x="333" y="127" type="curve"/>
      <point x="321" y="212" type="line"/>
      <point x="269" y="572" type="line" smooth="yes"/>
      <point x="264" y="605"/>
      <point x="306" y="616"/>
      <point x="341" y="618" type="curve"/>
      <point x="347" y="624"/>
      <point x="347" y="641"/>
      <point x="341" y="647" type="curve"/>
      <point x="314" y="646"/>
      <point x="275" y="645"/>
      <point x="240" y="645" type="curve" smooth="yes"/>
      <point x="233" y="645"/>
      <point x="227" y="645"/>
      <point x="220" y="645" type="curve" smooth="yes"/>
      <point x="180" y="645"/>
      <point x="154" y="646"/>
      <point x="114" y="647" type="curve"/>
      <point x="108" y="641"/>
      <point x="108" y="624"/>
      <point x="114" y="618" type="curve"/>
      <point x="156" y="613"/>
      <point x="180" y="612"/>
      <point x="188" y="556" type="curve" smooth="yes"/>
      <point x="269" y="11" type="line" smooth="yes"/>
      <point x="271" y="-4"/>
      <point x="277" y="-12"/>
      <point x="287" y="-12" type="curve" smooth="yes"/>
      <point x="304" y="-12"/>
      <point x="314" y="12"/>
      <point x="321" y="24" type="curve" smooth="yes"/>
    </contour>
  </outline>
</glyph>
<glyph name="Z" format="2">
	<unicode hex="005A"/>
	<advance width="578"/>
	<outline>
		<contour>
			<point x="41" y="12" type="curve" smooth="yes"/>
			<point x="41" y="4"/>
			<point x="45" y="0"/>
			<point x="57" y="0" type="curve" smooth="yes"/>
			<point x="320" y="0" type="line" smooth="yes"/>
			<point x="379" y="0"/>
			<point x="467" y="1"/>
			<point x="527" y="-3" type="curve"/>
			<point x="529" y="-1" type="line"/>
			<point x="543" y="54"/>
			<point x="565" y="113"/>
			<point x="586" y="165" type="curve"/>
			<point x="583" y="168"/>
			<point x="569" y="170"/>
			<point x="557" y="170" type="curve"/>
			<point x="524" y="98"/>
			<point x="485" y="39"/>
			<point x="412" y="39" type="curve" smooth="yes"/>
			<point x="188" y="39" type="line" smooth="yes"/>
			<point x="174" y="39"/>
			<point x="167" y="42"/>
			<point x="167" y="49" type="curve" smooth="yes"/>
			<point x="167" y="59"/>
			<point x="171" y="65"/>
			<point x="178" y="72" type="curve"/>
			<point x="639" y="591" type="line" smooth="yes"/>
			<point x="665" y="621"/>
			<point x="673" y="638"/>
			<point x="673" y="647" type="curve" smooth="yes"/>
			<point x="673" y="653"/>
			<point x="669" y="655"/>
			<point x="653" y="655" type="curve" smooth="yes"/>
			<point x="641" y="655"/>
			<point x="620" y="645"/>
			<point x="590" y="645" type="curve" smooth="yes"/>
			<point x="414" y="645" type="line" smooth="yes"/>
			<point x="291" y="645"/>
			<point x="264" y="649"/>
			<point x="208" y="659" type="curve"/>
			<point x="207" y="658"/>
			<point x="207" y="658"/>
			<point x="206" y="657" type="curve"/>
			<point x="192" y="604"/>
			<point x="169" y="532"/>
			<point x="153" y="491" type="curve"/>
			<point x="158" y="489"/>
			<point x="175" y="486"/>
			<point x="181" y="486" type="curve"/>
			<point x="215" y="555"/>
			<point x="242" y="605"/>
			<point x="314" y="605" type="curve" smooth="yes"/>
			<point x="535" y="605" type="line" smooth="yes"/>
			<point x="539" y="605"/>
			<point x="543" y="601"/>
			<point x="543" y="597" type="curve" smooth="yes"/>
			<point x="543" y="594"/>
			<point x="538" y="586"/>
			<point x="532" y="579" type="curve" smooth="yes"/>
			<point x="54" y="38" type="line"/>
			<point x="47" y="31"/>
			<point x="41" y="20"/>
		</contour>
	</outline>
	<anchor name="t.uni0302" x="439" y="740"/>
	<anchor name="b.minus-60" x="267" y="-60"/>
</glyph>
<glyph name="grave" format="2">
	<unicode hex="0060"/>
	<advance width="318"/>
	<outline>
		<contour>
			<point x="245" y="661" type="line"/>
			<point x="242" y="662"/>
			<point x="235" y="663"/>
			<point x="230" y="663" type="curve" smooth="yes"/>
			<point x="201" y="663"/>
			<point x="183" y="647"/>
			<point x="179" y="640" type="curve"/>
			<point x="179" y="629" type="line"/>
			<point x="313" y="520" type="line" smooth="yes"/>
			<point x="331" y="505"/>
			<point x="338" y="500"/>
			<point x="345" y="500" type="curve" smooth="yes"/>
			<point x="352" y="500"/>
			<point x="357" y="505"/>
			<point x="357" y="511" type="curve" smooth="yes"/>
			<point x="357" y="516"/>
			<point x="355" y="525"/>
			<point x="347" y="535" type="curve" smooth="yes"/>
		</contour>
	</outline>
	<guideline x="347" y="535" angle="308.99"/>
	<guideline x="313" y="520" angle="140.87"/>
	<guideline x="0" y="500" angle="0"/>
</glyph>
<glyph name="e" format="2">
  <advance width="393"/>
  <unicode hex="0065"/>
  <anchor x="321" y="500" name="t.uni0302"/>
  <anchor x="271" y="10" name="b.ogonek"/>
  <anchor x="214" y="10" name="b.cedilla"/>
  <anchor x="187" y="-60" name="b.minus-60"/>
  <outline>
    <contour>
      <point x="159" y="199" type="curve"/>
      <point x="416" y="249"/>
      <point x="416" y="325"/>
      <point x="416" y="363" type="curve" smooth="yes"/>
      <point x="416" y="414"/>
      <point x="366" y="439"/>
      <point x="321" y="439" type="curve" smooth="yes"/>
      <point x="147" y="439"/>
      <point x="75" y="269"/>
      <point x="75" y="148" type="curve" smooth="yes"/>
      <point x="75" y="57"/>
      <point x="115" y="-10"/>
      <point x="202" y="-10" type="curve" smooth="yes"/>
      <point x="265" y="-10"/>
      <point x="326" y="25"/>
      <point x="385" y="101" type="curve"/>
      <point x="380" y="112"/>
      <point x="374" y="117"/>
      <point x="362" y="117" type="curve"/>
      <point x="305" y="59"/>
      <point x="282" y="50"/>
      <point x="234" y="50" type="curve" smooth="yes"/>
      <point x="189" y="50"/>
      <point x="158" y="74"/>
      <point x="158" y="165" type="curve" smooth="yes"/>
      <point x="158" y="170"/>
      <point x="158" y="191"/>
    </contour>
    <contour>
      <point x="347" y="368" type="curve" smooth="yes"/>
      <point x="347" y="280"/>
      <point x="242" y="247"/>
      <point x="166" y="237" type="curve"/>
      <point x="201" y="379"/>
      <point x="256" y="408"/>
      <point x="306" y="408" type="curve" smooth="yes"/>
      <point x="334" y="408"/>
      <point x="347" y="399"/>
    </contour>
  </outline>
</glyph>
<glyph name="i" format="2">
  <advance width="266"/>
  <unicode hex="0069"/>
  <anchor x="191" y="10" name="b.ogonek"/>
  <anchor x="142" y="-60" name="b.minus-60"/>
  <outline>
    <contour>
      <point x="191" y="570" type="curve" smooth="yes"/>
      <point x="191" y="542"/>
      <point x="211" y="522"/>
      <point x="239" y="522" type="curve" smooth="yes"/>
      <point x="267" y="522"/>
      <point x="287" y="542"/>
      <point x="287" y="570" type="curve" smooth="yes"/>
      <point x="287" y="598"/>
      <point x="267" y="618"/>
      <point x="239" y="618" type="curve" smooth="yes"/>
      <point x="211" y="618"/>
      <point x="191" y="598"/>
    </contour>
    <contour>
      <point x="145" y="250" type="line"/>
      <point x="114" y="115" type="line" smooth="yes"/>
      <point x="99" y="51"/>
      <point x="97" y="38"/>
      <point x="97" y="28" type="curve" smooth="yes"/>
      <point x="97" y="4"/>
      <point x="108" y="-10"/>
      <point x="138" y="-10" type="curve" smooth="yes"/>
      <point x="186" y="-10"/>
      <point x="231" y="24"/>
      <point x="277" y="83" type="curve"/>
      <point x="274" y="92"/>
      <point x="268" y="100"/>
      <point x="254" y="100" type="curve"/>
      <point x="228" y="70"/>
      <point x="199" y="50"/>
      <point x="188" y="50" type="curve" smooth="yes"/>
      <point x="182" y="50"/>
      <point x="179" y="55"/>
      <point x="179" y="64" type="curve" smooth="yes"/>
      <point x="179" y="76"/>
      <point x="184" y="98"/>
      <point x="190" y="124" type="curve" smooth="yes"/>
      <point x="219" y="250" type="line"/>
    </contour>
    <contour>
      <point x="145" y="250" type="line"/>
      <point x="219" y="250" type="line"/>
      <point x="235" y="320" type="line" smooth="yes"/>
      <point x="249" y="383"/>
      <point x="260" y="407"/>
      <point x="260" y="421" type="curve" smooth="yes"/>
      <point x="260" y="431"/>
      <point x="255" y="436"/>
      <point x="248" y="436" type="curve"/>
      <point x="216" y="429"/>
      <point x="158" y="425"/>
      <point x="111" y="423" type="curve"/>
      <point x="104" y="415"/>
      <point x="106" y="404"/>
      <point x="112" y="395" type="curve"/>
      <point x="152" y="392" type="line" smooth="yes"/>
      <point x="164" y="391"/>
      <point x="170" y="382"/>
      <point x="170" y="371" type="curve" smooth="yes"/>
      <point x="170" y="363"/>
      <point x="167" y="349"/>
      <point x="161" y="321" type="curve" smooth="yes"/>
    </contour>
  </outline>
</glyph>
<glyph name="j" format="2">
  <advance width="259"/>
  <unicode hex="006A"/>
  <anchor x="0" y="-319" name="m.uni0316_2"/>
  <outline>
    <contour>
      <point x="206" y="570" type="curve" smooth="yes"/>
      <point x="206" y="544"/>
      <point x="228" y="522"/>
      <point x="254" y="522" type="curve" smooth="yes"/>
      <point x="280" y="522"/>
      <point x="302" y="544"/>
      <point x="302" y="570" type="curve" smooth="yes"/>
      <point x="302" y="596"/>
      <point x="280" y="618"/>
      <point x="254" y="618" type="curve" smooth="yes"/>
      <point x="228" y="618"/>
      <point x="206" y="596"/>
    </contour>
    <contour>
      <point x="115" y="42" type="line" smooth="yes"/>
      <point x="82" y="-104"/>
      <point x="63" y="-160"/>
      <point x="28" y="-160" type="curve" smooth="yes"/>
      <point x="1" y="-160"/>
      <point x="0" y="-117"/>
      <point x="-49" y="-117" type="curve" smooth="yes"/>
      <point x="-62" y="-117"/>
      <point x="-78" y="-127"/>
      <point x="-78" y="-148" type="curve" smooth="yes"/>
      <point x="-78" y="-180"/>
      <point x="-40" y="-196"/>
      <point x="4" y="-196" type="curve" smooth="yes"/>
      <point x="105" y="-196"/>
      <point x="153" y="-111"/>
      <point x="184" y="24" type="curve" smooth="yes"/>
      <point x="236" y="250" type="line"/>
      <point x="162" y="250" type="line"/>
    </contour>
    <contour>
      <point x="162" y="250" type="line"/>
      <point x="236" y="250" type="line"/>
      <point x="252" y="320" type="line" smooth="yes"/>
      <point x="266" y="383"/>
      <point x="277" y="407"/>
      <point x="277" y="421" type="curve" smooth="yes"/>
      <point x="277" y="431"/>
      <point x="272" y="436"/>
      <point x="265" y="436" type="curve" name=".hr01"/>
      <point x="233" y="429"/>
      <point x="175" y="425"/>
      <point x="128" y="423" type="curve"/>
      <point x="121" y="415"/>
      <point x="123" y="404"/>
      <point x="129" y="395" type="curve"/>
      <point x="169" y="392" type="line" smooth="yes"/>
      <point x="181" y="391"/>
      <point x="187" y="382"/>
      <point x="187" y="371" type="curve" smooth="yes"/>
      <point x="187" y="363"/>
      <point x="184" y="349"/>
      <point x="178" y="321" type="curve" smooth="yes"/>
    </contour>
  </outline>
</glyph>
<glyph name="k" format="2">
  <advance width="486"/>
  <unicode hex="006B"/>
  <anchor x="395" y="740" name="top"/>
  <anchor x="243" y="-60" name="b.minus-60"/>
  <outline>
    <contour>
      <point x="189" y="229" type="line"/>
      <point x="199" y="235"/>
      <point x="211" y="237"/>
      <point x="221" y="237" type="curve" smooth="yes"/>
      <point x="229" y="237"/>
      <point x="236" y="230"/>
      <point x="241" y="221" type="curve" smooth="yes"/>
      <point x="259" y="189"/>
      <point x="270" y="138"/>
      <point x="290" y="93" type="curve" smooth="yes"/>
      <point x="308" y="52"/>
      <point x="336" y="-10"/>
      <point x="389" y="-10" type="curve" smooth="yes"/>
      <point x="423" y="-10"/>
      <point x="458" y="21"/>
      <point x="490" y="77" type="curve"/>
      <point x="486" y="84"/>
      <point x="479" y="90"/>
      <point x="468" y="90" type="curve"/>
      <point x="448" y="61"/>
      <point x="426" y="42"/>
      <point x="415" y="42" type="curve" smooth="yes"/>
      <point x="400" y="42"/>
      <point x="391" y="54"/>
      <point x="386" y="68" type="curve" smooth="yes"/>
      <point x="369" y="119"/>
      <point x="355" y="161"/>
      <point x="332" y="205" type="curve" smooth="yes"/>
      <point x="315" y="236"/>
      <point x="298" y="247"/>
      <point x="270" y="256" type="curve"/>
      <point x="270" y="260" type="line"/>
      <point x="352" y="332" type="line" smooth="yes"/>
      <point x="382" y="358"/>
      <point x="402" y="368"/>
      <point x="418" y="368" type="curve" smooth="yes"/>
      <point x="440" y="368"/>
      <point x="448" y="354"/>
      <point x="474" y="354" type="curve" smooth="yes"/>
      <point x="497" y="354"/>
      <point x="520" y="381"/>
      <point x="520" y="404" type="curve" smooth="yes"/>
      <point x="520" y="432"/>
      <point x="498" y="439"/>
      <point x="471" y="439" type="curve" smooth="yes"/>
      <point x="439" y="439"/>
      <point x="380" y="399"/>
      <point x="306" y="337" type="curve" smooth="yes"/>
      <point x="274" y="310" type="line" smooth="yes"/>
      <point x="237" y="279"/>
      <point x="227" y="272"/>
      <point x="207" y="272" type="curve" smooth="yes"/>
      <point x="203" y="272"/>
      <point x="198" y="273"/>
      <point x="193" y="275" type="curve"/>
      <point x="183" y="229" type="line"/>
    </contour>
    <contour>
      <point x="153" y="24" type="curve" smooth="yes"/>
      <point x="278" y="583" type="line" smooth="yes"/>
      <point x="290" y="638"/>
      <point x="295" y="659"/>
      <point x="303" y="688" type="curve"/>
      <point x="303" y="695"/>
      <point x="300" y="698"/>
      <point x="291" y="698" type="curve"/>
      <point x="249" y="684"/>
      <point x="195" y="676"/>
      <point x="151" y="672" type="curve"/>
      <point x="147" y="665"/>
      <point x="144" y="653"/>
      <point x="146" y="643" type="curve"/>
      <point x="188" y="639"/>
      <point x="205" y="629"/>
      <point x="205" y="609" type="curve" smooth="yes"/>
      <point x="205" y="602"/>
      <point x="203" y="585"/>
      <point x="198" y="563" type="curve" smooth="yes"/>
      <point x="77" y="22" type="line" smooth="yes"/>
      <point x="74" y="9"/>
      <point x="86" y="0"/>
      <point x="95" y="0" type="curve" smooth="yes"/>
      <point x="123" y="0" type="line" smooth="yes"/>
      <point x="138" y="0"/>
      <point x="150" y="9"/>
    </contour>
  </outline>
  <guideline angle="77.5043" x="137" y="24"/>
  <guideline angle="77.3952" x="153" y="24"/>
</glyph>
<glyph name="m" format="2">
	<unicode hex="006D"/>
	<advance width="758"/>
	<outline>
		<contour>
			<point x="155" y="310" type="line"/>
			<point x="101" y="72" type="line" smooth="yes"/>
			<point x="91" y="29"/>
			<point x="89" y="20"/>
			<point x="89" y="12" type="curve" smooth="yes"/>
			<point x="89" y="-1"/>
			<point x="97" y="-10"/>
			<point x="128" y="-10" type="curve" smooth="yes"/>
			<point x="151" y="-10"/>
			<point x="156" y="-5"/>
			<point x="175" y="72" type="curve" smooth="yes"/>
			<point x="215" y="233" type="line"/>
			<point x="293" y="346"/>
			<point x="349" y="379"/>
			<point x="383" y="379" type="curve" smooth="yes"/>
			<point x="407" y="379"/>
			<point x="407" y="362"/>
			<point x="407" y="342" type="curve" smooth="yes"/>
			<point x="407" y="330"/>
			<point x="406" y="306"/>
			<point x="399" y="275" type="curve" smooth="yes"/>
			<point x="351" y="72" type="line" smooth="yes"/>
			<point x="341" y="29"/>
			<point x="339" y="20"/>
			<point x="339" y="14" type="curve" smooth="yes"/>
			<point x="339" y="1"/>
			<point x="347" y="-10"/>
			<point x="370" y="-10" type="curve" smooth="yes"/>
			<point x="404" y="-10"/>
			<point x="407" y="-5"/>
			<point x="425" y="72" type="curve" smooth="yes"/>
			<point x="462" y="229" type="line"/>
			<point x="493" y="276"/>
			<point x="562" y="379"/>
			<point x="622" y="379" type="curve" smooth="yes"/>
			<point x="638" y="379"/>
			<point x="648" y="372"/>
			<point x="648" y="341" type="curve" smooth="yes"/>
			<point x="648" y="331"/>
			<point x="647" y="302"/>
			<point x="639" y="271" type="curve" smooth="yes"/>
			<point x="600" y="114" type="line" smooth="yes"/>
			<point x="586" y="58"/>
			<point x="582" y="38"/>
			<point x="582" y="27" type="curve" smooth="yes"/>
			<point x="582" y="1"/>
			<point x="600" y="-10"/>
			<point x="623" y="-10" type="curve" smooth="yes"/>
			<point x="679" y="-10"/>
			<point x="732" y="23"/>
			<point x="764" y="101" type="curve"/>
			<point x="762" y="110"/>
			<point x="755" y="115"/>
			<point x="742" y="115" type="curve"/>
			<point x="718" y="77"/>
			<point x="690" y="50"/>
			<point x="675" y="50" type="curve" smooth="yes"/>
			<point x="668" y="50"/>
			<point x="665" y="56"/>
			<point x="665" y="66" type="curve" smooth="yes"/>
			<point x="665" y="71"/>
			<point x="666" y="83"/>
			<point x="671" y="101" type="curve" smooth="yes"/>
			<point x="717" y="279" type="line" smooth="yes"/>
			<point x="723" y="302"/>
			<point x="727" y="333"/>
			<point x="727" y="354" type="curve" smooth="yes"/>
			<point x="727" y="415"/>
			<point x="694" y="439"/>
			<point x="656" y="439" type="curve" smooth="yes"/>
			<point x="604" y="439"/>
			<point x="544" y="396"/>
			<point x="479" y="305" type="curve"/>
			<point x="482" y="321"/>
			<point x="483" y="339"/>
			<point x="483" y="352" type="curve" smooth="yes"/>
			<point x="483" y="422"/>
			<point x="453" y="439"/>
			<point x="417" y="439" type="curve" smooth="yes"/>
			<point x="344" y="439"/>
			<point x="277" y="370"/>
			<point x="230" y="310" type="curve"/>
		</contour>
		<contour>
			<point x="155" y="310" type="line"/>
			<point x="228" y="310" type="line"/>
			<point x="230" y="320" type="line" smooth="yes"/>
			<point x="243" y="383"/>
			<point x="257" y="407"/>
			<point x="257" y="421" type="curve" smooth="yes"/>
			<point x="257" y="431"/>
			<point x="252" y="436"/>
			<point x="245" y="436" type="curve"/>
			<point x="213" y="429"/>
			<point x="155" y="425"/>
			<point x="108" y="423" type="curve"/>
			<point x="101" y="415"/>
			<point x="103" y="404"/>
			<point x="109" y="395" type="curve"/>
			<point x="149" y="392" type="line" smooth="yes"/>
			<point x="161" y="391"/>
			<point x="167" y="382"/>
			<point x="167" y="371" type="curve" smooth="yes"/>
			<point x="167" y="363"/>
			<point x="163" y="342"/>
			<point x="156" y="314" type="curve" smooth="yes"/>
		</contour>
	</outline>
	<anchor name="t.uni0302" x="482" y="530"/>
	<anchor name="b.minus-60" x="372" y="-60"/>
	<guideline x="158" y="321" angle="257.106"/>
	<guideline x="175" y="72" angle="76.0475"/>
	<guideline x="0" y="310" angle="0"/>
</glyph>
<glyph name="n" format="2">
  <advance width="518"/>
  <unicode hex="006E"/>
  <anchor x="354" y="497" name="t.uni0302"/>
  <anchor x="247" y="-60" name="b.minus-60"/>
  <outline>
    <contour>
      <point x="155" y="310" type="line"/>
      <point x="102" y="72" type="line"/>
      <point x="178" y="72" type="line"/>
      <point x="216" y="238" type="line"/>
      <point x="241" y="271"/>
      <point x="323" y="379" name=".hr01"/>
      <point x="370" y="379" type="curve" smooth="yes"/>
      <point x="391" y="379"/>
      <point x="405" y="374"/>
      <point x="405" y="343" type="curve" smooth="yes"/>
      <point x="405" y="331"/>
      <point x="399" y="303"/>
      <point x="392" y="275" type="curve" smooth="yes"/>
      <point x="354" y="115" type="line" smooth="yes"/>
      <point x="346" y="83"/>
      <point x="337" y="42"/>
      <point x="337" y="23" type="curve" smooth="yes"/>
      <point x="337" y="4"/>
      <point x="348" y="-10"/>
      <point x="378" y="-10" type="curve" smooth="yes"/>
      <point x="426" y="-10"/>
      <point x="474" y="24"/>
      <point x="520" y="83" type="curve"/>
      <point x="517" y="92"/>
      <point x="511" y="100"/>
      <point x="497" y="100" type="curve"/>
      <point x="471" y="70"/>
      <point x="442" y="50"/>
      <point x="432" y="50" type="curve" smooth="yes"/>
      <point x="425" y="50"/>
      <point x="422" y="55"/>
      <point x="422" y="67" type="curve" smooth="yes"/>
      <point x="422" y="76"/>
      <point x="427" y="98"/>
      <point x="433" y="124" type="curve" smooth="yes"/>
      <point x="471" y="283" type="line" smooth="yes"/>
      <point x="479" y="318"/>
      <point x="484" y="341"/>
      <point x="484" y="359" type="curve" smooth="yes"/>
      <point x="484" y="419"/>
      <point x="457" y="439"/>
      <point x="418" y="439" type="curve" smooth="yes"/>
      <point x="364" y="439"/>
      <point x="308" y="401"/>
      <point x="231" y="310" type="curve"/>
    </contour>
    <contour>
      <point x="155" y="310" type="line"/>
      <point x="228" y="310" type="line"/>
      <point x="230" y="320" type="line" smooth="yes"/>
      <point x="243" y="383"/>
      <point x="257" y="407"/>
      <point x="257" y="421" type="curve" smooth="yes"/>
      <point x="257" y="431"/>
      <point x="252" y="436" name=".hr02"/>
      <point x="245" y="436" type="curve"/>
      <point x="213" y="429"/>
      <point x="155" y="425"/>
      <point x="108" y="423" type="curve"/>
      <point x="101" y="415"/>
      <point x="103" y="404"/>
      <point x="109" y="395" type="curve"/>
      <point x="149" y="392" type="line" smooth="yes"/>
      <point x="161" y="391"/>
      <point x="167" y="382"/>
      <point x="167" y="371" type="curve" smooth="yes"/>
      <point x="167" y="363"/>
      <point x="163" y="342"/>
      <point x="156" y="314" type="curve" smooth="yes"/>
    </contour>
    <contour>
      <point x="90" y="12" type="curve" smooth="yes"/>
      <point x="90" y="-1"/>
      <point x="98" y="-10"/>
      <point x="129" y="-10" type="curve" smooth="yes"/>
      <point x="152" y="-10"/>
      <point x="164" y="8"/>
      <point x="172" y="45" type="curve" smooth="yes"/>
      <point x="178" y="72" type="line"/>
      <point x="102" y="72" type="line"/>
      <point x="97" y="48" type="line" smooth="yes"/>
      <point x="94" y="35"/>
      <point x="90" y="20"/>
    </contour>
  </outline>
  <guideline angle="0" x="0" y="72"/>
  <guideline angle="77.1957" x="181" y="84"/>
  <guideline angle="257.446" x="155" y="310"/>
</glyph>
<glyph name="q" format="2">
  <advance width="491"/>
  <unicode hex="0071"/>
  <anchor x="369" y="500" name="top"/>
  <anchor x="179" y="-60" name="b.minus-60"/>
  <outline>
    <contour>
      <point x="81" y="147" type="curve" smooth="yes"/>
      <point x="81" y="72"/>
      <point x="104" y="-10"/>
      <point x="198" y="-10" type="curve" smooth="yes"/>
      <point x="247" y="-10"/>
      <point x="296" y="14"/>
      <point x="358" y="100" type="curve"/>
      <point x="361" y="99" type="line"/>
      <point x="295" y="-161" type="line" smooth="yes"/>
      <point x="287" y="-192"/>
      <point x="261" y="-207"/>
      <point x="213" y="-211" type="curve"/>
      <point x="211" y="-219"/>
      <point x="211" y="-229"/>
      <point x="213" y="-238" type="curve"/>
      <point x="220" y="-238"/>
      <point x="284" y="-233"/>
      <point x="320" y="-233" type="curve" smooth="yes"/>
      <point x="359" y="-233"/>
      <point x="422" y="-235"/>
      <point x="429" y="-235" type="curve"/>
      <point x="433" y="-227"/>
      <point x="434" y="-214"/>
      <point x="429" y="-206" type="curve"/>
      <point x="388" y="-206"/>
      <point x="369" y="-198"/>
      <point x="369" y="-175" type="curve" smooth="yes"/>
      <point x="369" y="-171"/>
      <point x="370" y="-166"/>
      <point x="371" y="-161" type="curve" smooth="yes"/>
      <point x="505" y="421" type="line" smooth="yes"/>
      <point x="506" y="426"/>
      <point x="507" y="431"/>
      <point x="507" y="436" type="curve" smooth="yes"/>
      <point x="507" y="444"/>
      <point x="499" y="446"/>
      <point x="496" y="446" type="curve" smooth="yes"/>
      <point x="486" y="446"/>
      <point x="472" y="437"/>
      <point x="465" y="427" type="curve" smooth="yes"/>
      <point x="436" y="386" type="line"/>
      <point x="413" y="418"/>
      <point x="381" y="439"/>
      <point x="340" y="439" type="curve" smooth="yes"/>
      <point x="234" y="439"/>
      <point x="81" y="319"/>
    </contour>
    <contour>
      <point x="165" y="158" type="curve" smooth="yes"/>
      <point x="165" y="278"/>
      <point x="242" y="403"/>
      <point x="344" y="403" type="curve" smooth="yes"/>
      <point x="380" y="403"/>
      <point x="405" y="371"/>
      <point x="405" y="330" type="curve" smooth="yes"/>
      <point x="405" y="314"/>
      <point x="386" y="236"/>
      <point x="367" y="180" type="curve" smooth="yes"/>
      <point x="344" y="115"/>
      <point x="256" y="32"/>
      <point x="219" y="32" type="curve" smooth="yes"/>
      <point x="180" y="32"/>
      <point x="165" y="102"/>
    </contour>
  </outline>
</glyph>
<glyph name="r" format="2">
  <advance width="357"/>
  <unicode hex="0072"/>
  <anchor x="312" y="646" name="m.uni0302"/>
  <anchor x="113" y="-110" name="m.uni0316_2"/>
  <anchor x="134" y="7" name="b.uni0327_5"/>
  <outline>
    <contour>
      <point x="202" y="189" type="line"/>
      <point x="250" y="276"/>
      <point x="306" y="369"/>
      <point x="329" y="369" type="curve" smooth="yes"/>
      <point x="339" y="369"/>
      <point x="344" y="364"/>
      <point x="350" y="357" type="curve" smooth="yes"/>
      <point x="357" y="349"/>
      <point x="370" y="336" name=".hr01"/>
      <point x="384" y="336" type="curve" smooth="yes"/>
      <point x="407" y="336"/>
      <point x="424" y="357"/>
      <point x="428" y="380" type="curve"/>
      <point x="429" y="384"/>
      <point x="429" y="388"/>
      <point x="429" y="392" type="curve" smooth="yes"/>
      <point x="429" y="413"/>
      <point x="414" y="439"/>
      <point x="377" y="439" type="curve" smooth="yes"/>
      <point x="327" y="439"/>
      <point x="269" y="377"/>
      <point x="225" y="284" type="curve"/>
      <point x="221" y="285" type="line"/>
      <point x="224" y="297"/>
      <point x="226" y="308"/>
      <point x="229" y="320" type="curve" smooth="yes"/>
      <point x="238" y="359"/>
      <point x="247" y="394" name=".hr02"/>
      <point x="247" y="411" type="curve" smooth="yes"/>
      <point x="247" y="426"/>
      <point x="238" y="436" name=".hr03"/>
      <point x="225" y="436" type="curve" smooth="yes"/>
      <point x="193" y="436"/>
      <point x="152" y="429"/>
      <point x="105" y="423" type="curve"/>
      <point x="98" y="415"/>
      <point x="100" y="404"/>
      <point x="106" y="395" type="curve"/>
      <point x="146" y="392" type="line" smooth="yes"/>
      <point x="158" y="391"/>
      <point x="164" y="382"/>
      <point x="164" y="372" type="curve" smooth="yes"/>
      <point x="164" y="370"/>
      <point x="164" y="368"/>
      <point x="164" y="366" type="curve" smooth="yes"/>
      <point x="164" y="357"/>
      <point x="163" y="343"/>
      <point x="157" y="321" type="curve"/>
      <point x="151" y="295"/>
      <point x="145" y="268"/>
      <point x="140" y="242" type="curve"/>
      <point x="102" y="72" type="line" smooth="yes"/>
      <point x="97" y="51"/>
      <point x="89" y="33" name=".hr04"/>
      <point x="89" y="17" type="curve" smooth="yes"/>
      <point x="89" y="1"/>
      <point x="98" y="-10"/>
      <point x="127" y="-10" type="curve" smooth="yes"/>
      <point x="131" y="-10"/>
      <point x="134" y="-9"/>
      <point x="137" y="-8" type="curve" smooth="yes"/>
      <point x="162" y="0"/>
      <point x="164" y="37" name=".hr05"/>
      <point x="173" y="72" type="curve"/>
      <point x="173" y="72"/>
      <point x="173" y="72"/>
      <point x="173" y="72" type="curve"/>
    </contour>
  </outline>
</glyph>
<glyph name="z" format="2">
	<unicode hex="007A"/>
	<advance width="436"/>
	<outline>
		<contour>
			<point x="54" y="7" type="curve"/>
			<point x="61" y="-4"/>
			<point x="77" y="-10"/>
			<point x="91" y="-12" type="curve"/>
			<point x="113" y="25"/>
			<point x="138" y="41"/>
			<point x="148" y="41" type="curve" smooth="yes"/>
			<point x="165" y="41"/>
			<point x="192" y="35"/>
			<point x="224" y="15" type="curve" smooth="yes"/>
			<point x="249" y="0"/>
			<point x="282" y="-10"/>
			<point x="310" y="-10" type="curve" smooth="yes"/>
			<point x="353" y="-10"/>
			<point x="386" y="15"/>
			<point x="433" y="123" type="curve"/>
			<point x="427" y="130"/>
			<point x="420" y="133"/>
			<point x="408" y="133" type="curve"/>
			<point x="377" y="82"/>
			<point x="350" y="67"/>
			<point x="323" y="67" type="curve" smooth="yes"/>
			<point x="282" y="67"/>
			<point x="240" y="102"/>
			<point x="176" y="102" type="curve"/>
			<point x="467" y="429" type="line"/>
			<point x="464" y="434"/>
			<point x="448" y="444"/>
			<point x="438" y="444" type="curve"/>
			<point x="415" y="418"/>
			<point x="400" y="412"/>
			<point x="384" y="412" type="curve" smooth="yes"/>
			<point x="327" y="412"/>
			<point x="262" y="439"/>
			<point x="199" y="439" type="curve" smooth="yes"/>
			<point x="164" y="439"/>
			<point x="119" y="374"/>
			<point x="102" y="315" type="curve"/>
			<point x="109" y="308"/>
			<point x="118" y="307"/>
			<point x="129" y="307" type="curve"/>
			<point x="150" y="353"/>
			<point x="167" y="363"/>
			<point x="213" y="363" type="curve" smooth="yes"/>
			<point x="258" y="363"/>
			<point x="296" y="354"/>
			<point x="325" y="354" type="curve" smooth="yes"/>
			<point x="339" y="354"/>
			<point x="347" y="354"/>
			<point x="357" y="356" type="curve"/>
			<point x="116" y="91" type="line" smooth="yes"/>
			<point x="95" y="68"/>
			<point x="58" y="21"/>
		</contour>
	</outline>
	<anchor name="t.uni0302" x="316" y="500"/>
	<anchor name="b.minus-60" x="203" y="-60"/>
</glyph>
<glyph name="bar" format="2">
  <advance width="205"/>
  <unicode hex="007C"/>
  <outline>
    <contour>
      <point x="84" y="-233" type="line"/>
      <point x="240" y="652" type="line"/>
      <point x="196" y="652" type="line"/>
      <point x="40" y="-233" type="line"/>
    </contour>
  </outline>
</glyph>
<glyph name="copyright" format="2">
  <advance width="633"/>
  <unicode hex="00A9"/>
  <outline>
    <contour>
      <point x="322" y="23" type="curve"/>
      <point x="506" y="23"/>
      <point x="671" y="186"/>
      <point x="671" y="361" type="curve" smooth="yes"/>
      <point x="671" y="494"/>
      <point x="577" y="588"/>
      <point x="435" y="588" type="curve" smooth="yes"/>
      <point x="253" y="588"/>
      <point x="93" y="432"/>
      <point x="93" y="255" type="curve" smooth="yes"/>
      <point x="93" y="118"/>
      <point x="187" y="23"/>
    </contour>
    <contour>
      <point x="435" y="560" type="curve" smooth="yes"/>
      <point x="556" y="560"/>
      <point x="639" y="473"/>
      <point x="639" y="359" type="curve" smooth="yes"/>
      <point x="639" y="203"/>
      <point x="486" y="51"/>
      <point x="329" y="51" type="curve" smooth="yes"/>
      <point x="208" y="51"/>
      <point x="125" y="139"/>
      <point x="125" y="256" type="curve" smooth="yes"/>
      <point x="125" y="411"/>
      <point x="275" y="560"/>
    </contour>
    <contour>
      <point x="483" y="218" type="curve"/>
      <point x="481" y="225"/>
      <point x="473" y="231"/>
      <point x="465" y="232" type="curve"/>
      <point x="451" y="216"/>
      <point x="414" y="181"/>
      <point x="363" y="181" type="curve" smooth="yes"/>
      <point x="309" y="181"/>
      <point x="285" y="219"/>
      <point x="285" y="270" type="curve" smooth="yes"/>
      <point x="285" y="339"/>
      <point x="330" y="435"/>
      <point x="412" y="435" type="curve" smooth="yes"/>
      <point x="469" y="435"/>
      <point x="484" y="414"/>
      <point x="484" y="360" type="curve"/>
      <point x="511" y="364" type="line"/>
      <point x="515" y="388"/>
      <point x="517" y="416"/>
      <point x="516" y="442" type="curve"/>
      <point x="482" y="442"/>
      <point x="465" y="456" name=".hr01"/>
      <point x="423" y="456" type="curve" smooth="yes"/>
      <point x="320" y="456" name=".hr02"/>
      <point x="229" y="370"/>
      <point x="229" y="274" type="curve" smooth="yes"/>
      <point x="229" y="208"/>
      <point x="272" y="153"/>
      <point x="349" y="153" type="curve" smooth="yes"/>
      <point x="410" y="153"/>
      <point x="457" y="187"/>
    </contour>
  </outline>
</glyph>
<glyph name="uni00B2" format="2">
  <advance width="277"/>
  <unicode hex="00B2"/>
  <outline>
    <contour>
      <point x="157" y="707" type="curve" smooth="yes"/>
      <point x="157" y="696"/>
      <point x="168" y="687"/>
      <point x="180" y="687" type="curve" smooth="yes"/>
      <point x="201" y="687"/>
      <point x="212" y="704"/>
      <point x="212" y="723" type="curve" smooth="yes"/>
      <point x="212" y="756"/>
      <point x="251" y="764"/>
      <point x="271" y="764" type="curve" smooth="yes"/>
      <point x="298" y="764"/>
      <point x="314" y="746"/>
      <point x="314" y="719" type="curve" smooth="yes"/>
      <point x="314" y="677"/>
      <point x="289" y="639"/>
      <point x="256" y="615" type="curve" smooth="yes"/>
      <point x="223" y="591" type="line" smooth="yes"/>
      <point x="155" y="541"/>
      <point x="118" y="504"/>
      <point x="108" y="464" type="curve"/>
      <point x="314" y="464" type="line"/>
      <point x="323" y="493"/>
      <point x="336" y="528"/>
      <point x="350" y="558" type="curve"/>
      <point x="344" y="562"/>
      <point x="336" y="563"/>
      <point x="327" y="563" type="curve"/>
      <point x="313" y="537"/>
      <point x="285" y="496"/>
      <point x="257" y="496" type="curve" smooth="yes"/>
      <point x="176" y="496" type="line"/>
      <point x="185" y="529"/>
      <point x="227" y="567"/>
      <point x="259" y="586" type="curve" smooth="yes"/>
      <point x="269" y="592" type="line" smooth="yes"/>
      <point x="317" y="620"/>
      <point x="373" y="661"/>
      <point x="373" y="723" type="curve" smooth="yes"/>
      <point x="373" y="769"/>
      <point x="329" y="788"/>
      <point x="289" y="788" type="curve" smooth="yes"/>
      <point x="246" y="788"/>
      <point x="157" y="764"/>
    </contour>
  </outline>
  <guideline angle="0" x="0" y="460"/>
  <guideline angle="0" x="0" y="789"/>
  <guideline angle="0" x="0" y="464"/>
  <guideline angle="0" x="0" y="785"/>
</glyph>
<glyph name="uni00B3" format="2">
  <advance width="286"/>
  <unicode hex="00B3"/>
  <outline>
    <contour>
      <point x="111" y="495" type="curve" smooth="yes"/>
      <point x="111" y="475"/>
      <point x="158" y="460"/>
      <point x="194" y="460" type="curve" smooth="yes"/>
      <point x="268" y="460"/>
      <point x="364" y="508"/>
      <point x="364" y="593" type="curve" smooth="yes"/>
      <point x="364" y="639"/>
      <point x="328" y="660"/>
      <point x="299" y="663" type="curve"/>
      <point x="329" y="678"/>
      <point x="364" y="705"/>
      <point x="364" y="742" type="curve" smooth="yes"/>
      <point x="364" y="772"/>
      <point x="337" y="790"/>
      <point x="290" y="790" type="curve" smooth="yes"/>
      <point x="229" y="790"/>
      <point x="160" y="753"/>
      <point x="160" y="720" type="curve" smooth="yes"/>
      <point x="160" y="708"/>
      <point x="166" y="702"/>
      <point x="180" y="702" type="curve" smooth="yes"/>
      <point x="203" y="702"/>
      <point x="207" y="713"/>
      <point x="210" y="727" type="curve" smooth="yes"/>
      <point x="216" y="753"/>
      <point x="236" y="766"/>
      <point x="273" y="766" type="curve" smooth="yes"/>
      <point x="290" y="766"/>
      <point x="307" y="759"/>
      <point x="307" y="737" type="curve" smooth="yes"/>
      <point x="307" y="689"/>
      <point x="261" y="659"/>
      <point x="218" y="653" type="curve"/>
      <point x="215" y="629" type="line"/>
      <point x="220" y="630"/>
      <point x="229" y="631"/>
      <point x="236" y="631" type="curve" smooth="yes"/>
      <point x="258" y="631"/>
      <point x="303" y="625"/>
      <point x="303" y="582" type="curve" smooth="yes"/>
      <point x="303" y="532"/>
      <point x="260" y="485"/>
      <point x="209" y="485" type="curve" smooth="yes"/>
      <point x="151" y="485"/>
      <point x="171" y="517"/>
      <point x="140" y="517" type="curve" smooth="yes"/>
      <point x="130" y="517"/>
      <point x="111" y="508"/>
    </contour>
  </outline>
  <guideline angle="0" x="0" y="460"/>
  <guideline angle="0" x="0" y="789"/>
  <guideline angle="0" x="0" y="464"/>
  <guideline angle="0" x="0" y="785"/>
</glyph>
<glyph name="acute" format="2">
  <advance width="276"/>
  <unicode hex="00B4"/>
  <anchor x="250" y="500" name="_top"/>
  <outline>
    <contour>
      <point x="273" y="661" type="curve"/>
      <point x="171" y="535" type="line" smooth="yes"/>
      <point x="163" y="525"/>
      <point x="161" y="516"/>
      <point x="161" y="511" type="curve" smooth="yes"/>
      <point x="161" y="505"/>
      <point x="166" y="500"/>
      <point x="173" y="500" type="curve" smooth="yes"/>
      <point x="180" y="500"/>
      <point x="186.823" y="505.215"/>
      <point x="205" y="520" type="curve" smooth="yes"/>
      <point x="339" y="629" type="line"/>
      <point x="339" y="640" type="line"/>
      <point x="327" y="655"/>
      <point x="311" y="663"/>
      <point x="288" y="663" type="curve" smooth="yes"/>
      <point x="283" y="663"/>
      <point x="276" y="662"/>
    </contour>
  </outline>
  <guideline angle="231.009" x="273" y="661"/>
  <guideline angle="39.126" x="339" y="629"/>
</glyph>
<glyph name="mu" format="2">
	<unicode hex="00B5"/>
	<advance width="485"/>
	<outline>
		<contour>
			<point x="41" y="-57" type="line" smooth="yes"/>
			<point x="31" y="-102"/>
			<point x="5" y="-187"/>
			<point x="-20" y="-217" type="curve"/>
			<point x="-14" y="-233" type="line"/>
			<point x="64" y="-205" type="line"/>
			<point x="80" y="-179"/>
			<point x="92" y="-127"/>
			<point x="100" y="-81" type="curve" smooth="yes"/>
			<point x="119" y="30" type="line"/>
			<point x="121" y="9"/>
			<point x="145" y="-10"/>
			<point x="167" y="-10" type="curve" smooth="yes"/>
			<point x="259" y="-10"/>
			<point x="319" y="83"/>
			<point x="366" y="156" type="curve"/>
			<point x="369" y="154" type="line"/>
			<point x="358" y="118"/>
			<point x="341" y="58"/>
			<point x="341" y="23" type="curve" smooth="yes"/>
			<point x="341" y="4"/>
			<point x="348" y="-10"/>
			<point x="378" y="-10" type="curve" smooth="yes"/>
			<point x="426" y="-10"/>
			<point x="471" y="24"/>
			<point x="517" y="83" type="curve"/>
			<point x="514" y="92"/>
			<point x="508" y="100"/>
			<point x="494" y="100" type="curve"/>
			<point x="484" y="89"/>
			<point x="446" y="50"/>
			<point x="429" y="50" type="curve" smooth="yes"/>
			<point x="422" y="50"/>
			<point x="419" y="55"/>
			<point x="419" y="67" type="curve" smooth="yes"/>
			<point x="419" y="76"/>
			<point x="424" y="98"/>
			<point x="430" y="124" type="curve" smooth="yes"/>
			<point x="486" y="352" type="line" smooth="yes"/>
			<point x="490" y="370"/>
			<point x="499" y="400"/>
			<point x="499" y="412" type="curve" smooth="yes"/>
			<point x="499" y="429"/>
			<point x="489" y="439"/>
			<point x="457" y="439" type="curve" smooth="yes"/>
			<point x="419" y="439"/>
			<point x="421" y="395"/>
			<point x="411" y="357" type="curve" smooth="yes"/>
			<point x="382" y="247" type="line"/>
			<point x="358" y="189"/>
			<point x="266" y="40"/>
			<point x="206" y="40" type="curve" smooth="yes"/>
			<point x="148" y="40"/>
			<point x="151" y="95"/>
			<point x="163" y="147" type="curve" smooth="yes"/>
			<point x="206" y="336" type="line" smooth="yes"/>
			<point x="209" y="350"/>
			<point x="223" y="402"/>
			<point x="223" y="412" type="curve" smooth="yes"/>
			<point x="223" y="429"/>
			<point x="213" y="439"/>
			<point x="181" y="439" type="curve" smooth="yes"/>
			<point x="143" y="439"/>
			<point x="144" y="395"/>
			<point x="135" y="357" type="curve" smooth="yes"/>
		</contour>
	</outline>
</glyph>
<glyph name="uni00B9" format="2">
  <advance width="278"/>
  <unicode hex="00B9"/>
  <outline>
    <contour>
      <point x="234" y="621" type="curve" smooth="yes"/>
      <point x="246" y="621"/>
      <point x="246.102" y="610.981"/>
      <point x="240" y="579" type="curve" smooth="yes"/>
      <point x="211" y="427" type="line" smooth="yes"/>
      <point x="205.595" y="398.67"/>
      <point x="170.387" y="390"/>
      <point x="137" y="390" type="curve"/>
      <point x="130.733" y="384.059"/>
      <point x="129.858" y="371.231"/>
      <point x="131.316" y="364" type="curve"/>
      <point x="137.316" y="364.1"/>
      <point x="185" y="365"/>
      <point x="223" y="365" type="curve" smooth="yes"/>
      <point x="253" y="365"/>
      <point x="298" y="364"/>
      <point x="309" y="364" type="curve"/>
      <point x="312.211" y="370.028"/>
      <point x="314.988" y="383.765"/>
      <point x="311.773" y="390" type="curve"/>
      <point x="288.71" y="390"/>
      <point x="260.605" y="396.479"/>
      <point x="260.605" y="415.262" type="curve" smooth="yes"/>
      <point x="260.605" y="420.038"/>
      <point x="263.077" y="432.271"/>
      <point x="264" y="437" type="curve" smooth="yes"/>
      <point x="296.007" y="600.956" type="line" smooth="yes"/>
      <point x="301.7" y="630.115"/>
      <point x="308.233" y="655.034"/>
      <point x="318.15" y="684" type="curve"/>
      <point x="313.889" y="686.78"/>
      <point x="308" y="688"/>
      <point x="303" y="688" type="curve" smooth="yes"/>
      <point x="298.824" y="688"/>
      <point x="290" y="684"/>
      <point x="286" y="682" type="curve"/>
      <point x="244" y="659"/>
      <point x="216" y="648"/>
      <point x="170" y="632" type="curve"/>
      <point x="167.988" y="623.364"/>
      <point x="170.173" y="611.642"/>
      <point x="174" y="605" type="curve"/>
      <point x="190" y="612"/>
      <point x="221" y="621"/>
    </contour>
  </outline>
</glyph>
<glyph name="onequarter" format="2">
  <advance width="627"/>
  <unicode hex="00BC"/>
  <outline>
    <component base="uni2074" xOffset="222" yOffset="-463"/>
    <contour>
      <point x="227" y="589" type="curve" smooth="yes"/>
      <point x="239" y="589"/>
      <point x="240" y="579"/>
      <point x="233" y="547" type="curve"/>
      <point x="204" y="395" type="line" smooth="yes"/>
      <point x="200" y="372"/>
      <point x="164" y="362"/>
      <point x="128" y="358" type="curve"/>
      <point x="123" y="352"/>
      <point x="121" y="340"/>
      <point x="123" y="332" type="curve"/>
      <point x="128" y="332"/>
      <point x="178" y="333"/>
      <point x="216" y="333" type="curve" smooth="yes"/>
      <point x="246" y="333"/>
      <point x="291" y="332"/>
      <point x="302" y="332" type="curve"/>
      <point x="305" y="337"/>
      <point x="309" y="354"/>
      <point x="305" y="357" type="curve"/>
      <point x="279" y="358"/>
      <point x="250" y="367"/>
      <point x="257" y="405" type="curve" smooth="yes"/>
      <point x="287" y="559" type="line" smooth="yes"/>
      <point x="294" y="591"/>
      <point x="301" y="618"/>
      <point x="312" y="652" type="curve"/>
      <point x="308" y="655"/>
      <point x="305" y="656"/>
      <point x="300" y="656" type="curve" smooth="yes"/>
      <point x="295" y="656"/>
      <point x="283" y="652"/>
      <point x="279" y="650" type="curve" smooth="yes"/>
      <point x="237" y="627"/>
      <point x="209" y="616"/>
      <point x="163" y="600" type="curve"/>
      <point x="162" y="592"/>
      <point x="164" y="582"/>
      <point x="167" y="573" type="curve"/>
      <point x="183" y="580"/>
      <point x="214" y="589"/>
    </contour>
    <contour>
      <point x="619" y="657" type="line"/>
      <point x="153" y="-10" type="line"/>
      <point x="194" y="-10" type="line"/>
      <point x="661" y="657" type="line"/>
    </contour>
  </outline>
  <guideline angle="0" x="0" y="657"/>
  <guideline angle="0" x="0" y="-4"/>
</glyph>
<glyph name="Aogonek" format="2">
  <advance width="681"/>
  <unicode hex="0104"/>
  <outline>
    <component base="A"/>
    <contour>
      <point x="648" y="-149" type="curve"/>
      <point x="635" y="-142" type="line"/>
      <point x="609" y="-166"/>
      <point x="585" y="-177"/>
      <point x="559" y="-177" type="curve" smooth="yes"/>
      <point x="529" y="-177"/>
      <point x="510" y="-159"/>
      <point x="510" y="-130" type="curve" smooth="yes"/>
      <point x="510" y="-65"/>
      <point x="585" y="-2"/>
      <point x="662" y="-2" type="curve"/>
      <point x="662" y="5" type="line"/>
      <point x="580" y="5" type="line"/>
      <point x="507" y="-23"/>
      <point x="447" y="-92"/>
      <point x="447" y="-148" type="curve" smooth="yes"/>
      <point x="447" y="-190"/>
      <point x="478" y="-216"/>
      <point x="527" y="-216" type="curve" smooth="yes"/>
      <point x="574" y="-216"/>
      <point x="621" y="-189"/>
    </contour>
  </outline>
</glyph>
<glyph name="dcaron" format="2">
  <advance width="528"/>
  <unicode hex="010F"/>
  <outline>
    <component base="d"/>
    <contour>
      <point x="636" y="698" type="curve" smooth="yes"/>
      <point x="610" y="698"/>
      <point x="583" y="681"/>
      <point x="583" y="653" type="curve" smooth="yes"/>
      <point x="583" y="640"/>
      <point x="591" y="626"/>
      <point x="623" y="626" type="curve" smooth="yes"/>
      <point x="630" y="626"/>
      <point x="634" y="620"/>
      <point x="634" y="611" type="curve" smooth="yes"/>
      <point x="634" y="576"/>
      <point x="586" y="542"/>
      <point x="556" y="536" type="curve"/>
      <point x="557" y="519" type="line"/>
      <point x="615" y="525"/>
      <point x="683" y="581"/>
      <point x="683" y="643" type="curve" smooth="yes"/>
      <point x="683" y="672" name=".hr01"/>
      <point x="668" y="698" name=".hr02"/>
    </contour>
  </outline>
</glyph>
<glyph name="Hbar" format="2">
  <advance width="671"/>
  <unicode hex="0126"/>
  <outline>
    <contour>
      <point x="284" y="546" type="line"/>
      <point x="285" y="554"/>
      <point x="287" y="561"/>
      <point x="288" y="569" type="curve"/>
      <point x="294" y="597"/>
      <point x="309" y="611"/>
      <point x="350" y="615" type="curve" smooth="yes"/>
      <point x="360" y="616"/>
      <point x="371" y="617"/>
      <point x="381" y="618" type="curve"/>
      <point x="385" y="622"/>
      <point x="387" y="638"/>
      <point x="383" y="647" type="curve"/>
      <point x="344" y="646"/>
      <point x="312" y="645"/>
      <point x="280" y="645" type="curve" smooth="yes"/>
      <point x="263" y="645" type="line" smooth="yes"/>
      <point x="225" y="645"/>
      <point x="180" y="646"/>
      <point x="136" y="647" type="curve"/>
      <point x="133" y="643"/>
      <point x="130" y="623"/>
      <point x="133" y="618" type="curve"/>
      <point x="144" y="617"/>
      <point x="156" y="616"/>
      <point x="167" y="615" type="curve" smooth="yes"/>
      <point x="206" y="612"/>
      <point x="217" y="599"/>
      <point x="211" y="569" type="curve"/>
      <point x="210" y="561"/>
      <point x="208" y="554"/>
      <point x="207" y="546" type="curve"/>
      <point x="171" y="546" type="line"/>
      <point x="164" y="512" type="line"/>
      <point x="200" y="512" type="line"/>
      <point x="121" y="111" type="line"/>
      <point x="119" y="99"/>
      <point x="116" y="88"/>
      <point x="114" y="76" type="curve"/>
      <point x="108" y="48"/>
      <point x="93" y="34"/>
      <point x="52" y="30" type="curve" smooth="yes"/>
      <point x="42" y="29"/>
      <point x="31" y="28"/>
      <point x="21" y="27" type="curve"/>
      <point x="17" y="23"/>
      <point x="15" y="7"/>
      <point x="19" y="-2" type="curve"/>
      <point x="64" y="-1"/>
      <point x="100" y="0"/>
      <point x="139" y="0" type="curve" smooth="yes"/>
      <point x="144" y="0"/>
      <point x="149" y="0"/>
      <point x="154" y="0" type="curve" smooth="yes"/>
      <point x="188" y="0"/>
      <point x="228" y="-1"/>
      <point x="266" y="-2" type="curve"/>
      <point x="269" y="2"/>
      <point x="272" y="22"/>
      <point x="269" y="27" type="curve"/>
      <point x="258" y="28"/>
      <point x="246" y="29"/>
      <point x="235" y="30" type="curve" smooth="yes"/>
      <point x="196" y="33"/>
      <point x="185" y="46"/>
      <point x="191" y="76" type="curve"/>
      <point x="193" y="88"/>
      <point x="196" y="99"/>
      <point x="198" y="111" type="curve"/>
      <point x="239" y="321" type="line"/>
      <point x="552" y="321" type="line"/>
      <point x="511" y="111" type="line"/>
      <point x="509" y="99"/>
      <point x="506" y="88"/>
      <point x="504" y="76" type="curve"/>
      <point x="498" y="48"/>
      <point x="483" y="34"/>
      <point x="442" y="30" type="curve" smooth="yes"/>
      <point x="432" y="29"/>
      <point x="421" y="28"/>
      <point x="411" y="27" type="curve"/>
      <point x="407" y="23"/>
      <point x="405" y="7"/>
      <point x="409" y="-2" type="curve"/>
      <point x="454" y="-1"/>
      <point x="490" y="0"/>
      <point x="529" y="0" type="curve" smooth="yes"/>
      <point x="567" y="0"/>
      <point x="612" y="-1"/>
      <point x="656" y="-2" type="curve"/>
      <point x="659" y="2"/>
      <point x="662" y="22"/>
      <point x="659" y="27" type="curve"/>
      <point x="648" y="28"/>
      <point x="636" y="29"/>
      <point x="625" y="30" type="curve" smooth="yes"/>
      <point x="586" y="33"/>
      <point x="575" y="46"/>
      <point x="581" y="76" type="curve"/>
      <point x="583" y="88"/>
      <point x="586" y="99"/>
      <point x="588" y="111" type="curve"/>
      <point x="667" y="512" type="line"/>
      <point x="754" y="512" type="line"/>
      <point x="761" y="546" type="line"/>
      <point x="674" y="546" type="line"/>
      <point x="675" y="554"/>
      <point x="677" y="561"/>
      <point x="678" y="569" type="curve"/>
      <point x="684" y="597"/>
      <point x="699" y="611"/>
      <point x="740" y="615" type="curve" smooth="yes"/>
      <point x="750" y="616"/>
      <point x="761" y="617"/>
      <point x="771" y="618" type="curve"/>
      <point x="775" y="622"/>
      <point x="777" y="638"/>
      <point x="773" y="647" type="curve"/>
      <point x="728" y="646"/>
      <point x="692" y="645"/>
      <point x="653" y="645" type="curve" smooth="yes"/>
      <point x="638" y="645" type="line" smooth="yes"/>
      <point x="604" y="645"/>
      <point x="565" y="646"/>
      <point x="526" y="647" type="curve"/>
      <point x="523" y="643"/>
      <point x="520" y="623"/>
      <point x="523" y="618" type="curve"/>
      <point x="534" y="617"/>
      <point x="546" y="616"/>
      <point x="557" y="615" type="curve" smooth="yes"/>
      <point x="596" y="612"/>
      <point x="607" y="599"/>
      <point x="601" y="569" type="curve"/>
      <point x="600" y="561"/>
      <point x="598" y="554"/>
      <point x="597" y="546" type="curve"/>
    </contour>
    <contour>
      <point x="590" y="512" type="line"/>
      <point x="561" y="363" type="line"/>
      <point x="248" y="363" type="line"/>
      <point x="277" y="512" type="line"/>
    </contour>
  </outline>
</glyph>
<glyph name="dotlessi" format="2">
  <advance width="276"/>
  <unicode hex="0131"/>
  <anchor x="245" y="500" name="t.uni0302"/>
  <anchor x="139" y="-108" name="m.uni0316_2"/>
  <outline>
    <contour>
      <point x="155" y="250" type="line"/>
      <point x="124" y="115" type="line" smooth="yes"/>
      <point x="109" y="51"/>
      <point x="107" y="38"/>
      <point x="107" y="28" type="curve" smooth="yes"/>
      <point x="107" y="4"/>
      <point x="118" y="-10"/>
      <point x="148" y="-10" type="curve" smooth="yes"/>
      <point x="196" y="-10"/>
      <point x="241" y="24"/>
      <point x="287" y="83" type="curve"/>
      <point x="284" y="92"/>
      <point x="278" y="100"/>
      <point x="264" y="100" type="curve"/>
      <point x="238" y="70"/>
      <point x="209" y="50"/>
      <point x="198" y="50" type="curve" smooth="yes"/>
      <point x="192" y="50"/>
      <point x="189" y="55"/>
      <point x="189" y="64" type="curve" smooth="yes"/>
      <point x="189" y="76"/>
      <point x="194" y="98"/>
      <point x="200" y="124" type="curve" smooth="yes"/>
      <point x="229" y="250" type="line"/>
    </contour>
    <contour>
      <point x="229" y="250" type="line"/>
      <point x="245" y="320" type="line" smooth="yes"/>
      <point x="259" y="383"/>
      <point x="270" y="407"/>
      <point x="270" y="421" type="curve" smooth="yes"/>
      <point x="270" y="431"/>
      <point x="265" y="436" name=".hr01"/>
      <point x="258" y="436" type="curve"/>
      <point x="226" y="429"/>
      <point x="168" y="425"/>
      <point x="121" y="423" type="curve"/>
      <point x="114" y="415"/>
      <point x="116" y="404"/>
      <point x="122" y="395" type="curve"/>
      <point x="162" y="392" type="line" smooth="yes"/>
      <point x="174" y="391"/>
      <point x="180" y="382" name=".hr02"/>
      <point x="180" y="371" type="curve" smooth="yes"/>
      <point x="180" y="363"/>
      <point x="177" y="349"/>
      <point x="171" y="321" type="curve" smooth="yes"/>
      <point x="155" y="250" type="line"/>
    </contour>
  </outline>
  <guideline angle="0" x="0" y="250"/>
</glyph>
<glyph name="kgreenlandic" format="2">
  <advance width="506"/>
  <unicode hex="0138"/>
  <anchor x="338" y="497" name="top"/>
  <outline>
    <contour>
      <point x="199" y="207" type="line"/>
      <point x="207" y="207" type="line"/>
      <point x="213" y="210"/>
      <point x="222" y="212"/>
      <point x="229" y="212" type="curve" smooth="yes"/>
      <point x="242" y="212"/>
      <point x="253" y="207"/>
      <point x="258" y="196" type="curve" smooth="yes"/>
      <point x="286" y="139"/>
      <point x="328" y="-10"/>
      <point x="405" y="-10" type="curve" smooth="yes"/>
      <point x="452" y="-10"/>
      <point x="478" y="18"/>
      <point x="501" y="62" type="curve"/>
      <point x="494" y="70"/>
      <point x="488" y="75"/>
      <point x="479" y="75" type="curve"/>
      <point x="463" y="50"/>
      <point x="444" y="36"/>
      <point x="433" y="36" type="curve" smooth="yes"/>
      <point x="421" y="36"/>
      <point x="404" y="43"/>
      <point x="394" y="80" type="curve" smooth="yes"/>
      <point x="364" y="188"/>
      <point x="347" y="234"/>
      <point x="295" y="250" type="curve"/>
      <point x="295" y="253" type="line"/>
      <point x="369" y="330" type="line" smooth="yes"/>
      <point x="399" y="361"/>
      <point x="416" y="368"/>
      <point x="432" y="368" type="curve" smooth="yes"/>
      <point x="455" y="368"/>
      <point x="459" y="354"/>
      <point x="488" y="354" type="curve" smooth="yes"/>
      <point x="511" y="354"/>
      <point x="534" y="381"/>
      <point x="534" y="404" type="curve" smooth="yes"/>
      <point x="534" y="432"/>
      <point x="512" y="439"/>
      <point x="485" y="439" type="curve" smooth="yes"/>
      <point x="453" y="439"/>
      <point x="395" y="401"/>
      <point x="330" y="337" type="curve" smooth="yes"/>
      <point x="284" y="292" type="line" smooth="yes"/>
      <point x="266" y="274"/>
      <point x="231" y="241"/>
      <point x="215" y="241" type="curve" smooth="yes"/>
      <point x="213" y="241"/>
      <point x="208" y="241"/>
      <point x="207" y="244" type="curve"/>
    </contour>
    <contour>
      <point x="90" y="17" type="curve" smooth="yes"/>
      <point x="90" y="4"/>
      <point x="95" y="-10"/>
      <point x="114" y="-10" type="curve" smooth="yes"/>
      <point x="137" y="-10" type="line" smooth="yes"/>
      <point x="157" y="-10"/>
      <point x="162" y="4"/>
      <point x="170" y="38" type="curve" smooth="yes"/>
      <point x="233" y="320" type="line" smooth="yes"/>
      <point x="242" y="359"/>
      <point x="256" y="398"/>
      <point x="256" y="415" type="curve" smooth="yes"/>
      <point x="256" y="429"/>
      <point x="248" y="436"/>
      <point x="235" y="436" type="curve" smooth="yes"/>
      <point x="203" y="436"/>
      <point x="156" y="429"/>
      <point x="109" y="423" type="curve"/>
      <point x="102" y="415"/>
      <point x="104" y="404"/>
      <point x="110" y="395" type="curve"/>
      <point x="150" y="392" type="line" smooth="yes"/>
      <point x="162" y="391"/>
      <point x="168" y="382"/>
      <point x="168" y="372" type="curve" smooth="yes"/>
      <point x="168" y="363"/>
      <point x="165" y="350"/>
      <point x="159" y="322" type="curve" smooth="yes"/>
      <point x="103" y="72" type="line" smooth="yes"/>
      <point x="98" y="52"/>
      <point x="90" y="27"/>
    </contour>
  </outline>
  <guideline angle="77.3952" x="150" y="23"/>
  <guideline angle="77.3952" x="166" y="23"/>
</glyph>
<glyph name="Eng" format="2">
  <advance width="628"/>
  <unicode hex="014A"/>
  <anchor x="346" y="804" name="m.uni0302"/>
  <anchor x="364" y="-109" name="m.uni0316_2"/>
  <anchor x="124" y="-3" name="b.uni0327_5"/>
  <outline>
    <contour>
      <point x="21" y="-2" type="curve"/>
      <point x="103" y="0"/>
      <point x="186" y="0"/>
      <point x="268" y="-2" type="curve"/>
      <point x="271" y="6"/>
      <point x="273" y="19"/>
      <point x="271" y="27" type="curve"/>
      <point x="246" y="29"/>
      <point x="191" y="26"/>
      <point x="191" y="62" type="curve" smooth="yes"/>
      <point x="191" y="70"/>
      <point x="200" y="110"/>
      <point x="204" y="131" type="curve" smooth="yes"/>
      <point x="253" y="378" type="line"/>
      <point x="311" y="466"/>
      <point x="400" y="584"/>
      <point x="498" y="584" type="curve" smooth="yes"/>
      <point x="566" y="584"/>
      <point x="589" y="548"/>
      <point x="589" y="484" type="curve" smooth="yes"/>
      <point x="589" y="448"/>
      <point x="576" y="376"/>
      <point x="566" y="322" type="curve" smooth="yes"/>
      <point x="524" y="106" type="line" smooth="yes"/>
      <point x="488" y="-77"/>
      <point x="451" y="-165"/>
      <point x="381" y="-165" type="curve" smooth="yes"/>
      <point x="357" y="-165"/>
      <point x="374" y="-101"/>
      <point x="309" y="-101" type="curve" smooth="yes"/>
      <point x="287" y="-101"/>
      <point x="271" y="-120"/>
      <point x="271" y="-141" type="curve" smooth="yes"/>
      <point x="271" y="-183"/>
      <point x="334" y="-200"/>
      <point x="367" y="-200" type="curve" smooth="yes"/>
      <point x="529" y="-200"/>
      <point x="585" y="1"/>
      <point x="608" y="128" type="curve" smooth="yes"/>
      <point x="653" y="373" type="line" smooth="yes"/>
      <point x="662" y="421"/>
      <point x="666" y="461"/>
      <point x="666" y="496" type="curve" smooth="yes"/>
      <point x="666" y="607"/>
      <point x="621" y="655"/>
      <point x="526" y="655" type="curve" smooth="yes"/>
      <point x="421" y="655"/>
      <point x="333" y="552"/>
      <point x="272" y="477" type="curve"/>
      <point x="282" y="536"/>
      <point x="304" y="632"/>
      <point x="304" y="637" type="curve" smooth="yes"/>
      <point x="304" y="643"/>
      <point x="301" y="647"/>
      <point x="295" y="647" type="curve"/>
      <point x="239" y="645"/>
      <point x="194" y="646"/>
      <point x="138" y="647" type="curve"/>
      <point x="134" y="637"/>
      <point x="134" y="626"/>
      <point x="135" y="618" type="curve"/>
      <point x="161" y="616"/>
      <point x="212" y="608"/>
      <point x="212" y="582" type="curve" smooth="yes"/>
      <point x="212" y="560"/>
      <point x="206" y="535"/>
      <point x="202" y="514" type="curve" smooth="yes"/>
      <point x="121" y="103" type="line" smooth="yes"/>
      <point x="110" y="46"/>
      <point x="95" y="34"/>
      <point x="23" y="27" type="curve"/>
      <point x="19" y="21"/>
      <point x="18" y="5"/>
    </contour>
  </outline>
</glyph>
<glyph name="Tbar" format="2">
  <advance width="544"/>
  <unicode hex="0166"/>
  <outline>
    <component base="T"/>
    <contour>
      <point x="196" y="368" type="line" smooth="yes"/>
      <point x="184" y="368"/>
      <point x="172" y="349"/>
      <point x="172" y="339" type="curve" smooth="yes"/>
      <point x="172" y="334"/>
      <point x="174" y="329"/>
      <point x="180" y="329" type="curve" smooth="yes"/>
      <point x="516" y="329" type="line" smooth="yes"/>
      <point x="528" y="329"/>
      <point x="542" y="344"/>
      <point x="542" y="355" type="curve" smooth="yes"/>
      <point x="542" y="362"/>
      <point x="541" y="368"/>
      <point x="533" y="368" type="curve" smooth="yes"/>
    </contour>
  </outline>
</glyph>
<glyph name="uhungarumlaut" format="2">
  <advance width="521"/>
  <unicode hex="0171"/>
  <outline>
    <component base="u"/>
    <contour>
      <point x="564" y="611" type="curve"/>
      <point x="567" y="630"/>
      <point x="554" y="648"/>
      <point x="533" y="648" type="curve" smooth="yes"/>
      <point x="521" y="648"/>
      <point x="514" y="645"/>
      <point x="507" y="636" type="curve" smooth="yes"/>
      <point x="400" y="497" type="line"/>
      <point x="399" y="496"/>
      <point x="399" y="494"/>
      <point x="399" y="493" type="curve"/>
      <point x="397" y="485"/>
      <point x="405" y="480"/>
      <point x="410" y="480" type="curve" smooth="yes"/>
      <point x="412" y="480"/>
      <point x="414" y="480"/>
      <point x="416" y="482" type="curve"/>
      <point x="553" y="592" type="line"/>
      <point x="560" y="598"/>
      <point x="562" y="605"/>
    </contour>
    <contour>
      <point x="433" y="617" type="curve" smooth="yes"/>
      <point x="437" y="638"/>
      <point x="423" y="653"/>
      <point x="402" y="653" type="curve" smooth="yes"/>
      <point x="398" y="653"/>
      <point x="382" y="652"/>
      <point x="373" y="639" type="curve"/>
      <point x="280" y="493" type="line"/>
      <point x="278" y="492"/>
      <point x="278" y="491"/>
      <point x="278" y="490" type="curve"/>
      <point x="276" y="482"/>
      <point x="283" y="477"/>
      <point x="289" y="477" type="curve" smooth="yes"/>
      <point x="292" y="477"/>
      <point x="296" y="478"/>
      <point x="298" y="480" type="curve" smooth="yes"/>
      <point x="425" y="601" type="line" smooth="yes"/>
      <point x="430" y="606"/>
      <point x="432" y="612"/>
    </contour>
  </outline>
</glyph>
<glyph name="longs" format="2">
  <advance width="299"/>
  <unicode hex="017F"/>
  <anchor x="398" y="740" name="top"/>
  <outline>
    <contour>
      <point x="-67" y="-187" type="curve" smooth="yes"/>
      <point x="-67" y="-212"/>
      <point x="-28" y="-233"/>
      <point x="6" y="-233" type="curve" smooth="yes"/>
      <point x="109" y="-233"/>
      <point x="164" y="-136"/>
      <point x="186" y="-25" type="curve" smooth="yes"/>
      <point x="288" y="484" type="line" smooth="yes"/>
      <point x="297" y="528"/>
      <point x="327" y="664"/>
      <point x="393" y="664" type="curve" smooth="yes"/>
      <point x="419" y="664"/>
      <point x="424" y="648"/>
      <point x="425" y="630" type="curve" smooth="yes"/>
      <point x="426" y="608"/>
      <point x="432" y="583"/>
      <point x="459" y="583" type="curve" smooth="yes"/>
      <point x="488" y="583"/>
      <point x="501" y="602"/>
      <point x="501" y="628" type="curve" smooth="yes"/>
      <point x="501" y="663"/>
      <point x="457" y="698"/>
      <point x="402" y="698" type="curve" smooth="yes"/>
      <point x="273" y="698"/>
      <point x="233" y="563"/>
      <point x="208" y="461" type="curve" smooth="yes"/>
      <point x="203" y="439"/>
      <point x="185" y="430"/>
      <point x="163" y="428" type="curve" smooth="yes"/>
      <point x="133" y="425" type="line"/>
      <point x="127" y="416"/>
      <point x="126" y="402"/>
      <point x="129" y="395" type="curve"/>
      <point x="165" y="393" type="line" smooth="yes"/>
      <point x="179" y="392"/>
      <point x="188" y="385"/>
      <point x="186" y="372" type="curve" smooth="yes"/>
      <point x="114" y="-14" type="line" smooth="yes"/>
      <point x="84" y="-172"/>
      <point x="74" y="-197"/>
      <point x="37" y="-197" type="curve" smooth="yes"/>
      <point x="21" y="-197"/>
      <point x="17" y="-193"/>
      <point x="11" y="-182" type="curve" smooth="yes"/>
      <point x="0" y="-162"/>
      <point x="-16" y="-150"/>
      <point x="-34" y="-150" type="curve" smooth="yes"/>
      <point x="-49" y="-150"/>
      <point x="-67" y="-165"/>
    </contour>
  </outline>
  <guideline angle="259.38" x="186" y="372"/>
  <guideline angle="78.6519" x="230" y="195"/>
</glyph>
<glyph name="uni0188" format="2">
  <advance width="493"/>
  <unicode hex="0188"/>
  <outline>
    <component base="c"/>
    <contour>
      <point x="525" y="424" type="curve" smooth="yes"/>
      <point x="549" y="424"/>
      <point x="568" y="444"/>
      <point x="568" y="467" type="curve" smooth="yes"/>
      <point x="568" y="485"/>
      <point x="556" y="495"/>
      <point x="531" y="495" type="curve" smooth="yes"/>
      <point x="481" y="495"/>
      <point x="419" y="453"/>
      <point x="387" y="398" type="curve"/>
      <point x="409" y="384" type="line"/>
      <point x="426" y="415"/>
      <point x="450" y="433"/>
      <point x="475" y="433" type="curve" smooth="yes"/>
      <point x="492" y="433"/>
      <point x="509" y="424"/>
    </contour>
  </outline>
</glyph>
<glyph name="uni018F" format="2">
	<unicode hex="018F"/>
	<advance width="668"/>
	<outline>
		<contour>
			<point x="222" y="523" type="line"/>
			<point x="288" y="575"/>
			<point x="359" y="624"/>
			<point x="453" y="624" type="curve" smooth="yes"/>
			<point x="561" y="624"/>
			<point x="627" y="534"/>
			<point x="627" y="402" type="curve" smooth="yes"/>
			<point x="627" y="361"/>
			<point x="618" y="300"/>
			<point x="604" y="260" type="curve"/>
			<point x="106" y="260" type="line"/>
			<point x="104" y="240"/>
			<point x="102" y="221"/>
			<point x="102" y="202" type="curve" smooth="yes"/>
			<point x="102" y="84"/>
			<point x="162" y="-12"/>
			<point x="328" y="-12" type="curve" smooth="yes"/>
			<point x="554" y="-12"/>
			<point x="721" y="200"/>
			<point x="721" y="415" type="curve" smooth="yes"/>
			<point x="721" y="543"/>
			<point x="651" y="658"/>
			<point x="476" y="658" type="curve" smooth="yes"/>
			<point x="366" y="658"/>
			<point x="301" y="621"/>
			<point x="205" y="547" type="curve"/>
		</contour>
		<contour>
			<point x="176" y="216" type="curve"/>
			<point x="585" y="216" type="line"/>
			<point x="544" y="116"/>
			<point x="448" y="22"/>
			<point x="342" y="22" type="curve" smooth="yes"/>
			<point x="245" y="22"/>
			<point x="178" y="86"/>
		</contour>
	</outline>
	<anchor name="t.uni0302" x="473" y="740"/>
</glyph>
<glyph name="uni019A" format="2">
  <advance width="306"/>
  <unicode hex="019A"/>
  <outline>
    <contour>
      <point x="117" y="371" type="line" smooth="yes"/>
      <point x="108" y="371"/>
      <point x="95" y="356"/>
      <point x="93" y="346" type="curve"/>
      <point x="91" y="340"/>
      <point x="93" y="332"/>
      <point x="101" y="332" type="curve" smooth="yes"/>
      <point x="330" y="332" type="line" smooth="yes"/>
      <point x="342" y="332"/>
      <point x="354" y="347"/>
      <point x="356" y="358" type="curve" smooth="yes"/>
      <point x="357" y="363"/>
      <point x="356" y="371"/>
      <point x="347" y="371" type="curve" smooth="yes"/>
    </contour>
    <contour>
      <point x="215" y="512" type="line"/>
      <point x="126" y="119" type="line" smooth="yes"/>
      <point x="120" y="92"/>
      <point x="112" y="50"/>
      <point x="112" y="34" type="curve" smooth="yes"/>
      <point x="112" y="15"/>
      <point x="117" y="-10"/>
      <point x="154" y="-10" type="curve" smooth="yes"/>
      <point x="199" y="-10"/>
      <point x="254" y="16"/>
      <point x="299" y="91" type="curve"/>
      <point x="295" y="101"/>
      <point x="290" y="108"/>
      <point x="277" y="108" type="curve"/>
      <point x="247" y="72"/>
      <point x="215" y="50"/>
      <point x="203" y="50" type="curve" smooth="yes"/>
      <point x="195" y="50"/>
      <point x="190" y="56"/>
      <point x="190" y="64" type="curve" smooth="yes"/>
      <point x="190" y="72"/>
      <point x="192" y="87"/>
      <point x="201" y="127" type="curve" smooth="yes"/>
      <point x="289" y="512" type="line"/>
    </contour>
    <contour>
      <point x="215" y="512" type="line"/>
      <point x="289" y="512" type="line"/>
      <point x="305" y="582" type="line" smooth="yes"/>
      <point x="319" y="645"/>
      <point x="330" y="669"/>
      <point x="330" y="683" type="curve" smooth="yes"/>
      <point x="330" y="693"/>
      <point x="325" y="698"/>
      <point x="318" y="698" type="curve"/>
      <point x="286" y="691"/>
      <point x="228" y="687"/>
      <point x="181" y="685" type="curve"/>
      <point x="174" y="677"/>
      <point x="176" y="666"/>
      <point x="182" y="657" type="curve"/>
      <point x="222" y="654" type="line" smooth="yes"/>
      <point x="234" y="653"/>
      <point x="240" y="644"/>
      <point x="240" y="633" type="curve" smooth="yes"/>
      <point x="240" y="625"/>
      <point x="237" y="611"/>
      <point x="231" y="583" type="curve" smooth="yes"/>
    </contour>
  </outline>
</glyph>
<glyph name="uni019F" format="2">
  <advance width="668"/>
  <unicode hex="019F"/>
  <outline>
    <component base="O"/>
    <contour>
      <point x="168" y="311" type="line"/>
      <point x="639.075" y="311" type="line"/>
      <point x="645.14" y="353" type="line"/>
      <point x="176" y="353" type="line"/>
    </contour>
  </outline>
  <guideline angle="263.18" x="444" y="624"/>
</glyph>
<glyph name="Ohorn" format="2">
  <advance width="698"/>
  <unicode hex="01A0"/>
  <anchor x="310" y="-113" name="m.uni0316_2"/>
  <anchor x="350" y="0" name="b.uni0327_5"/>
  <anchor x="490" y="740" name="t.uni0302"/>
  <outline>
    <component base="O"/>
    <contour>
      <point x="622" y="589" type="line"/>
      <point x="697" y="582"/>
      <point x="749" y="632"/>
      <point x="749" y="698" type="curve" smooth="yes"/>
      <point x="749" y="738"/>
      <point x="727" y="770"/>
      <point x="694" y="770" type="curve" smooth="yes"/>
      <point x="665" y="770"/>
      <point x="641" y="753"/>
      <point x="641" y="723" type="curve" smooth="yes"/>
      <point x="641" y="705"/>
      <point x="652" y="687"/>
      <point x="681" y="684" type="curve"/>
      <point x="694" y="683"/>
      <point x="707" y="674"/>
      <point x="707" y="662" type="curve" smooth="yes"/>
      <point x="707" y="635"/>
      <point x="669" y="616"/>
      <point x="645" y="616" type="curve" smooth="yes"/>
      <point x="623" y="616"/>
      <point x="601" y="619"/>
      <point x="573" y="631" type="curve"/>
    </contour>
  </outline>
</glyph>
<glyph name="ohorn" format="2">
	<unicode hex="01A1"/>
	<advance width="492"/>
	<outline>
		<component base="o"/>
		<contour>
			<point x="415" y="388" type="line"/>
			<point x="486" y="380"/>
			<point x="542" y="429"/>
			<point x="542" y="500" type="curve" smooth="yes"/>
			<point x="542" y="535"/>
			<point x="525" y="561"/>
			<point x="495" y="561" type="curve" smooth="yes"/>
			<point x="466" y="561"/>
			<point x="439" y="543"/>
			<point x="439" y="512" type="curve" smooth="yes"/>
			<point x="439" y="495"/>
			<point x="449" y="480"/>
			<point x="477" y="477" type="curve"/>
			<point x="489" y="475"/>
			<point x="500" y="469"/>
			<point x="500" y="458" type="curve" smooth="yes"/>
			<point x="500" y="429"/>
			<point x="461" y="417"/>
			<point x="438" y="417" type="curve" smooth="yes"/>
			<point x="414" y="417"/>
			<point x="399" y="420"/>
			<point x="362" y="435" type="curve"/>
		</contour>
	</outline>
	<anchor name="m.uni0316_2" x="186" y="-107"/>
	<anchor name="b.uni0321_4" x="371" y="44"/>
	<anchor name="b.uni0327_5" x="230" y="-3"/>
	<anchor name="t.uni0302" x="333" y="500"/>
</glyph>
<glyph name="uhorn" format="2">
  <advance width="549"/>
  <unicode hex="01B0"/>
  <anchor x="386" y="500" name="t.uni0302"/>
  <outline>
    <component base="u"/>
    <contour>
      <point x="511" y="521" type="curve" smooth="yes"/>
      <point x="511" y="475"/>
      <point x="572" y="498"/>
      <point x="572" y="471" type="curve" smooth="yes"/>
      <point x="572" y="448"/>
      <point x="539" y="436"/>
      <point x="509" y="436" type="curve" smooth="yes"/>
      <point x="501" y="436"/>
      <point x="493" y="437"/>
      <point x="486" y="439" type="curve"/>
      <point x="486" y="418" type="line"/>
      <point x="509" y="418" type="line"/>
      <point x="577" y="418"/>
      <point x="613" y="450"/>
      <point x="613" y="510" type="curve" smooth="yes"/>
      <point x="613" y="545"/>
      <point x="597" y="570"/>
      <point x="567" y="570" type="curve" smooth="yes"/>
      <point x="525" y="570"/>
      <point x="511" y="541"/>
    </contour>
  </outline>
</glyph>
<glyph name="uni01DD" format="2">
  <advance width="396"/>
  <unicode hex="01DD"/>
  <outline>
    <contour>
      <point x="332" y="230" type="curve"/>
      <point x="135.632" y="188.192"/>
      <point x="75" y="141.611"/>
      <point x="75" y="76.9518" type="curve" smooth="yes"/>
      <point x="75" y="24.7"/>
      <point x="118.375" y="-10"/>
      <point x="170" y="-10" type="curve" smooth="yes"/>
      <point x="309.596" y="-10"/>
      <point x="416" y="118.463"/>
      <point x="416" y="287" type="curve" smooth="yes"/>
      <point x="416" y="380.785"/>
      <point x="368.891" y="439"/>
      <point x="293" y="439" type="curve" smooth="yes"/>
      <point x="224.982" y="439"/>
      <point x="164.13" y="402.879"/>
      <point x="106" y="328" type="curve"/>
      <point x="111.275" y="316.396"/>
      <point x="117.594" y="312"/>
      <point x="129" y="312" type="curve"/>
      <point x="182.925" y="366.871"/>
      <point x="213.186" y="379"/>
      <point x="246.028" y="379" type="curve" smooth="yes"/>
      <point x="299.143" y="379"/>
      <point x="333" y="333.45"/>
      <point x="333" y="264" type="curve" smooth="yes"/>
      <point x="333" y="248.5"/>
      <point x="332.596" y="234.769"/>
    </contour>
    <contour>
      <point x="144" y="63.4557" type="curve" smooth="yes"/>
      <point x="144" y="126.923"/>
      <point x="212.401" y="177.184"/>
      <point x="325" y="192" type="curve"/>
      <point x="297.546" y="81.4009"/>
      <point x="247.26" y="21"/>
      <point x="189.339" y="21" type="curve" smooth="yes"/>
      <point x="159.958" y="21"/>
      <point x="144" y="36.2256"/>
    </contour>
  </outline>
</glyph>
<glyph name="Aringacute" format="2">
  <advance width="667"/>
  <unicode hex="01FA"/>
  <outline>
    <contour>
      <point x="557" y="702" type="line"/>
      <point x="775" y="784" type="line"/>
      <point x="710" y="829" type="line"/>
      <point x="554" y="736" type="line"/>
    </contour>
    <contour>
      <point x="9" y="-2" type="curve"/>
      <point x="45" y="-1"/>
      <point x="56" y="0"/>
      <point x="93" y="0" type="curve" smooth="yes"/>
      <point x="132" y="0"/>
      <point x="183" y="-1"/>
      <point x="218" y="-2" type="curve"/>
      <point x="225" y="8"/>
      <point x="226" y="19"/>
      <point x="222" y="29" type="curve"/>
      <point x="190" y="32" type="line" smooth="yes"/>
      <point x="165" y="34"/>
      <point x="154" y="41"/>
      <point x="154" y="56" type="curve" smooth="yes"/>
      <point x="154" y="63"/>
      <point x="156" y="71"/>
      <point x="161" y="79" type="curve"/>
      <point x="245" y="224" type="line"/>
      <point x="252" y="237"/>
      <point x="259" y="241"/>
      <point x="282" y="241" type="curve" smooth="yes"/>
      <point x="482" y="241" type="line"/>
      <point x="503" y="97" type="line" smooth="yes"/>
      <point x="507" y="71"/>
      <point x="508" y="65"/>
      <point x="508" y="60" type="curve" smooth="yes"/>
      <point x="508" y="41"/>
      <point x="492" y="36"/>
      <point x="459" y="32" type="curve" smooth="yes"/>
      <point x="431" y="29" type="line"/>
      <point x="422" y="21"/>
      <point x="424" y="3"/>
      <point x="426" y="-2" type="curve"/>
      <point x="468" y="-1"/>
      <point x="507" y="0"/>
      <point x="548" y="0" type="curve" smooth="yes"/>
      <point x="588" y="0"/>
      <point x="627" y="-1"/>
      <point x="662" y="-2" type="curve"/>
      <point x="669" y="8"/>
      <point x="671" y="19"/>
      <point x="668" y="29" type="curve"/>
      <point x="648" y="32" type="line" smooth="yes"/>
      <point x="610" y="38"/>
      <point x="595" y="47"/>
      <point x="588" y="86" type="curve" smooth="yes"/>
      <point x="491" y="658" type="line"/>
      <point x="487" y="658" type="line"/>
      <point x="481" y="654"/>
      <point x="461" y="645"/>
      <point x="451" y="645" type="curve"/>
      <point x="122" y="102" type="line" smooth="yes"/>
      <point x="85" y="40"/>
      <point x="57" y="31"/>
      <point x="15" y="29" type="curve"/>
      <point x="8" y="19"/>
      <point x="6" y="8"/>
    </contour>
    <contour>
      <point x="307" y="283" type="line" smooth="yes"/>
      <point x="291" y="283"/>
      <point x="284" y="285"/>
      <point x="284" y="290" type="curve" smooth="yes"/>
      <point x="284" y="292"/>
      <point x="285" y="294"/>
      <point x="286" y="296" type="curve"/>
      <point x="431" y="550" type="line"/>
      <point x="433" y="550" type="line"/>
      <point x="474" y="283" type="line"/>
    </contour>
    <contour>
      <point x="386" y="694" type="curve" smooth="yes"/>
      <point x="386" y="655"/>
      <point x="416" y="626"/>
      <point x="457" y="626" type="curve" smooth="yes"/>
      <point x="510" y="626"/>
      <point x="563" y="674"/>
      <point x="563" y="723" type="curve" smooth="yes"/>
      <point x="563" y="762"/>
      <point x="532" y="792"/>
      <point x="490" y="792" type="curve" smooth="yes"/>
      <point x="437" y="792"/>
      <point x="386" y="744"/>
    </contour>
    <contour>
      <point x="485" y="765" type="curve" smooth="yes"/>
      <point x="509" y="765"/>
      <point x="525" y="749"/>
      <point x="525" y="723" type="curve" smooth="yes"/>
      <point x="525" y="686"/>
      <point x="496" y="653"/>
      <point x="463" y="653" type="curve" smooth="yes"/>
      <point x="439" y="653"/>
      <point x="424" y="670"/>
      <point x="424" y="696" type="curve" smooth="yes"/>
      <point x="424" y="733"/>
      <point x="452" y="765"/>
    </contour>
  </outline>
</glyph>
<glyph name="uni0200" format="2">
	<unicode hex="0200"/>
	<advance width="667"/>
	<outline>
		<component base="A"/>
		<contour>
			<point x="308" y="775" type="curve" smooth="yes"/>
			<point x="308" y="770"/>
			<point x="310" y="766"/>
			<point x="313" y="763" type="curve"/>
			<point x="392" y="679" type="line"/>
			<point x="393" y="677"/>
			<point x="396" y="677"/>
			<point x="398" y="677" type="curve" smooth="yes"/>
			<point x="407" y="677"/>
			<point x="416" y="686"/>
			<point x="416" y="693" type="curve" smooth="yes"/>
			<point x="416" y="695" type="line"/>
			<point x="379" y="809" type="line" smooth="yes"/>
			<point x="376" y="818"/>
			<point x="369" y="821"/>
			<point x="356" y="821" type="curve" smooth="yes"/>
			<point x="338" y="821"/>
			<point x="308" y="801"/>
		</contour>
		<contour>
			<point x="526" y="681" type="curve" smooth="yes"/>
			<point x="532" y="681"/>
			<point x="544" y="687"/>
			<point x="544" y="696" type="curve" smooth="yes"/>
			<point x="544" y="699" type="line"/>
			<point x="517" y="793" type="line" smooth="yes"/>
			<point x="510" y="816"/>
			<point x="506" y="826"/>
			<point x="489" y="826" type="curve" smooth="yes"/>
			<point x="462" y="826"/>
			<point x="441" y="799"/>
			<point x="441" y="780" type="curve" smooth="yes"/>
			<point x="441" y="776"/>
			<point x="442" y="772"/>
			<point x="444" y="769" type="curve"/>
			<point x="519" y="683" type="line"/>
			<point x="521" y="682"/>
			<point x="524" y="681"/>
		</contour>
	</outline>
</glyph>
<glyph name="uni0235" format="2">
  <advance width="645"/>
  <unicode hex="0235"/>
  <anchor x="261" y="646" name="m.uni0302"/>
  <anchor x="262" y="-111" name="m.uni0316_2"/>
  <anchor x="128" y="9" name="b.uni0327_5"/>
  <outline>
    <contour>
      <point x="230" y="311" type="line"/>
      <point x="233" y="320" type="line" smooth="yes"/>
      <point x="246" y="357"/>
      <point x="255" y="400"/>
      <point x="255" y="415" type="curve" smooth="yes"/>
      <point x="255" y="429"/>
      <point x="247" y="436" name=".hr01"/>
      <point x="234" y="436" type="curve" smooth="yes"/>
      <point x="202" y="436"/>
      <point x="155" y="430"/>
      <point x="108" y="423" type="curve"/>
      <point x="101" y="415"/>
      <point x="103" y="404"/>
      <point x="109" y="395" type="curve"/>
      <point x="149" y="392" type="line" smooth="yes"/>
      <point x="161" y="391"/>
      <point x="167" y="382"/>
      <point x="167" y="372" type="curve" smooth="yes"/>
      <point x="167" y="364"/>
      <point x="164" y="349"/>
      <point x="158" y="321" type="curve" smooth="yes"/>
      <point x="102" y="72" type="line" smooth="yes"/>
      <point x="97" y="52"/>
      <point x="89" y="27"/>
      <point x="89" y="17" type="curve" smooth="yes"/>
      <point x="89" y="1"/>
      <point x="100" y="-10"/>
      <point x="132" y="-10" type="curve" smooth="yes"/>
      <point x="170" y="-10"/>
      <point x="169" y="34"/>
      <point x="178" y="72" type="curve" smooth="yes"/>
      <point x="216" y="238" type="line"/>
      <point x="279" y="320"/>
      <point x="334" y="379" name=".hr02"/>
      <point x="370" y="379" type="curve" smooth="yes"/>
      <point x="414" y="379"/>
      <point x="405" y="335"/>
      <point x="392" y="278" type="curve" smooth="yes"/>
      <point x="354" y="114" type="line" smooth="yes"/>
      <point x="341" y="58"/>
      <point x="377" y="20"/>
      <point x="403" y="5" type="curve"/>
      <point x="335" y="-81" type="line"/>
      <point x="351" y="-89" type="line" name=".hr03"/>
      <point x="419" y="-1" type="line"/>
      <point x="432" y="-6"/>
      <point x="448" y="-8" name=".hr04"/>
      <point x="468" y="-8" type="curve" smooth="yes"/>
      <point x="531" y="-8"/>
      <point x="640" y="56"/>
      <point x="640" y="134" type="curve" smooth="yes"/>
      <point x="640" y="164"/>
      <point x="625" y="181"/>
      <point x="593" y="181" type="curve" smooth="yes"/>
      <point x="542" y="181"/>
      <point x="511" y="144"/>
      <point x="445" y="59" type="curve"/>
      <point x="438" y="67"/>
      <point x="435" y="80" name=".hr05"/>
      <point x="435" y="98" type="curve" smooth="yes"/>
      <point x="435" y="116"/>
      <point x="438" y="141"/>
      <point x="446" y="175" type="curve" smooth="yes"/>
      <point x="470" y="281" type="line" smooth="yes"/>
      <point x="487" y="355"/>
      <point x="499" y="439" name=".hr06"/>
      <point x="418" y="439" type="curve" smooth="yes"/>
      <point x="366" y="439"/>
      <point x="323" y="418"/>
      <point x="231" y="310" type="curve"/>
    </contour>
    <contour>
      <point x="457" y="47" type="curve"/>
      <point x="523" y="129"/>
      <point x="547" y="154"/>
      <point x="578" y="154" type="curve" smooth="yes"/>
      <point x="598" y="154"/>
      <point x="612" y="144"/>
      <point x="612" y="126" type="curve" smooth="yes"/>
      <point x="612" y="79"/>
      <point x="536" y="36"/>
      <point x="497" y="36" type="curve" smooth="yes"/>
      <point x="478" y="36"/>
      <point x="466" y="40"/>
    </contour>
  </outline>
</glyph>
<glyph name="uni0249" format="2">
  <advance width="285"/>
  <unicode hex="0249"/>
  <outline>
    <contour>
      <point x="206" y="570" type="curve" smooth="yes"/>
      <point x="206" y="544"/>
      <point x="228" y="522"/>
      <point x="254" y="522" type="curve" smooth="yes"/>
      <point x="280" y="522"/>
      <point x="302" y="544"/>
      <point x="302" y="570" type="curve" smooth="yes"/>
      <point x="302" y="596"/>
      <point x="280" y="618"/>
      <point x="254" y="618" type="curve" smooth="yes"/>
      <point x="228" y="618"/>
      <point x="206" y="596"/>
    </contour>
    <contour>
      <point x="61" y="190" type="curve"/>
      <point x="163" y="190" type="line"/>
      <point x="172" y="229" type="line"/>
      <point x="97" y="229" type="line" smooth="yes"/>
      <point x="85" y="229"/>
      <point x="73" y="229"/>
      <point x="61" y="229" type="curve"/>
      <point x="61" y="216"/>
      <point x="61" y="203"/>
    </contour>
    <contour>
      <point x="209" y="190" type="line"/>
      <point x="297" y="190" type="line"/>
      <point x="309" y="190" type="line"/>
      <point x="309" y="199"/>
      <point x="309" y="207"/>
      <point x="309" y="216" type="curve" smooth="yes"/>
      <point x="309" y="220"/>
      <point x="309" y="225"/>
      <point x="309" y="229" type="curve"/>
      <point x="305" y="229"/>
      <point x="300" y="229"/>
      <point x="296" y="229" type="curve" smooth="yes"/>
      <point x="217" y="229" type="line"/>
    </contour>
    <contour>
      <point x="115" y="42" type="line" smooth="yes"/>
      <point x="82" y="-104"/>
      <point x="63" y="-160"/>
      <point x="28" y="-160" type="curve" smooth="yes"/>
      <point x="1" y="-160"/>
      <point x="0" y="-117"/>
      <point x="-49" y="-117" type="curve" smooth="yes"/>
      <point x="-62" y="-117"/>
      <point x="-78" y="-127"/>
      <point x="-78" y="-148" type="curve" smooth="yes"/>
      <point x="-78" y="-180"/>
      <point x="-40" y="-196"/>
      <point x="4" y="-196" type="curve" smooth="yes"/>
      <point x="105" y="-196"/>
      <point x="153" y="-111"/>
      <point x="184" y="24" type="curve" smooth="yes"/>
      <point x="236" y="250" type="line"/>
      <point x="162" y="250" type="line"/>
    </contour>
    <contour>
      <point x="162" y="250" type="line"/>
      <point x="236" y="250" type="line"/>
      <point x="252" y="320" type="line" smooth="yes"/>
      <point x="266" y="383"/>
      <point x="277" y="407"/>
      <point x="277" y="421" type="curve" smooth="yes"/>
      <point x="277" y="431"/>
      <point x="272" y="436"/>
      <point x="265" y="436" type="curve"/>
      <point x="233" y="429"/>
      <point x="175" y="425"/>
      <point x="128" y="423" type="curve"/>
      <point x="121" y="415"/>
      <point x="123" y="404"/>
      <point x="129" y="395" type="curve"/>
      <point x="169" y="392" type="line" smooth="yes"/>
      <point x="181" y="391"/>
      <point x="187" y="382"/>
      <point x="187" y="371" type="curve" smooth="yes"/>
      <point x="187" y="363"/>
      <point x="184" y="349"/>
      <point x="178" y="321" type="curve" smooth="yes"/>
    </contour>
  </outline>
</glyph>
<glyph name="uni0275" format="2">
  <advance width="447"/>
  <unicode hex="0275"/>
  <outline>
    <component base="o"/>
    <contour>
      <point x="128" y="205" type="line"/>
      <point x="410" y="205" type="line"/>
      <point x="415" y="244" type="line"/>
      <point x="135" y="244" type="line"/>
    </contour>
  </outline>
</glyph>
<glyph name="uni02B7" format="2">
  <advance width="445"/>
  <unicode hex="02B7"/>
  <outline>
    <contour>
      <point x="252" y="613" type="curve"/>
      <point x="255" y="630" type="line"/>
      <point x="254" y="631" type="line" name=".hr01"/>
      <point x="254" y="631"/>
      <point x="218" y="630" name=".hr02"/>
      <point x="192" y="630" type="curve" smooth="yes"/>
      <point x="168" y="630"/>
      <point x="141" y="631" name=".hr03"/>
      <point x="141" y="631" type="curve"/>
      <point x="140" y="630" type="line" name=".hr04"/>
      <point x="137" y="613" type="line" name=".hr05"/>
      <point x="136" y="610"/>
      <point x="140" y="608"/>
      <point x="143" y="608" type="curve" smooth="yes"/>
      <point x="159" y="608"/>
      <point x="166" y="605"/>
      <point x="171" y="576" type="curve" smooth="yes"/>
      <point x="206" y="371" type="line"/>
      <point x="207" y="363"/>
      <point x="211" y="358"/>
      <point x="216" y="358" type="curve" smooth="yes"/>
      <point x="224" y="358"/>
      <point x="234" y="361"/>
      <point x="240" y="372" type="curve" smooth="yes"/>
      <point x="325" y="519" type="line"/>
      <point x="351" y="371" type="line"/>
      <point x="352" y="363"/>
      <point x="356" y="358"/>
      <point x="361" y="358" type="curve" smooth="yes"/>
      <point x="368" y="358"/>
      <point x="378" y="361"/>
      <point x="385" y="372" type="curve"/>
      <point x="504" y="572" type="line" smooth="yes"/>
      <point x="521" y="601"/>
      <point x="536" y="608"/>
      <point x="550" y="608" type="curve" smooth="yes"/>
      <point x="553" y="608"/>
      <point x="557" y="609"/>
      <point x="558" y="613" type="curve"/>
      <point x="561" y="630" type="line"/>
      <point x="560" y="631" type="line" name=".hr06"/>
      <point x="560" y="631"/>
      <point x="538" y="630" name=".hr07"/>
      <point x="519" y="630" type="curve" smooth="yes"/>
      <point x="498" y="630"/>
      <point x="458" y="631" name=".hr08"/>
      <point x="458" y="631" type="curve"/>
      <point x="457" y="630" type="line" name=".hr09"/>
      <point x="454" y="613" type="line"/>
      <point x="453" y="611"/>
      <point x="455" y="608"/>
      <point x="457" y="608" type="curve" smooth="yes"/>
      <point x="466" y="608" type="line" smooth="yes"/>
      <point x="484" y="608"/>
      <point x="492" y="604"/>
      <point x="490" y="593" type="curve" smooth="yes"/>
      <point x="489" y="588"/>
      <point x="485" y="582"/>
      <point x="481" y="574" type="curve"/>
      <point x="391" y="424" type="line"/>
      <point x="365" y="577" type="line"/>
      <point x="364" y="586"/>
      <point x="364" y="593"/>
      <point x="365" y="597" type="curve"/>
      <point x="367" y="607"/>
      <point x="375" y="608"/>
      <point x="393" y="608" type="curve" smooth="yes"/>
      <point x="396" y="608"/>
      <point x="398" y="610"/>
      <point x="399" y="613" type="curve"/>
      <point x="402" y="630" type="line"/>
      <point x="400" y="631" type="line" name=".hr10"/>
      <point x="345" y="630" type="line" name=".hr11"/>
      <point x="326" y="630"/>
      <point x="288" y="631" name=".hr12"/>
      <point x="288" y="631" type="curve"/>
      <point x="287" y="630" type="line" name=".hr13"/>
      <point x="284" y="613" type="line"/>
      <point x="283" y="609"/>
      <point x="285" y="608"/>
      <point x="288" y="608" type="curve" smooth="yes"/>
      <point x="306" y="608"/>
      <point x="312" y="603"/>
      <point x="316" y="576" type="curve"/>
      <point x="321" y="553" type="line"/>
      <point x="247" y="424" type="line"/>
      <point x="220" y="577" type="line" smooth="yes"/>
      <point x="218" y="587"/>
      <point x="218" y="594"/>
      <point x="219" y="599" type="curve"/>
      <point x="220" y="606"/>
      <point x="227" y="608"/>
      <point x="238" y="608" type="curve" smooth="yes"/>
      <point x="247" y="608" type="line" smooth="yes"/>
      <point x="249" y="608"/>
      <point x="251" y="610"/>
    </contour>
  </outline>
</glyph>
<glyph name="dotaccent" format="2">
	<unicode hex="02D9"/>
	<advance width="217"/>
	<outline>
		<contour>
			<point x="179" y="577" type="curve" smooth="yes"/>
			<point x="179" y="551"/>
			<point x="200" y="530"/>
			<point x="226" y="530" type="curve" smooth="yes"/>
			<point x="252" y="530"/>
			<point x="273" y="551"/>
			<point x="273" y="577" type="curve" smooth="yes"/>
			<point x="273" y="603"/>
			<point x="252" y="624"/>
			<point x="226" y="624" type="curve" smooth="yes"/>
			<point x="200" y="624"/>
			<point x="179" y="603"/>
		</contour>
	</outline>
</glyph>
<glyph name="ogonek" format="2">
	<unicode hex="02DB"/>
	<advance width="334"/>
	<outline>
		<contour>
			<point x="237" y="-134" type="curve"/>
			<point x="234" y="-126"/>
			<point x="228" y="-123"/>
			<point x="220" y="-123" type="curve"/>
			<point x="189" y="-151"/>
			<point x="170" y="-161"/>
			<point x="145" y="-161" type="curve" smooth="yes"/>
			<point x="118" y="-161"/>
			<point x="103" y="-149"/>
			<point x="103" y="-125" type="curve" smooth="yes"/>
			<point x="103" y="-86"/>
			<point x="144" y="-39"/>
			<point x="227" y="15" type="curve"/>
			<point x="216" y="32" type="line"/>
			<point x="103" y="-26"/>
			<point x="38" y="-91"/>
			<point x="38" y="-146" type="curve" smooth="yes"/>
			<point x="38" y="-181"/>
			<point x="64" y="-200"/>
			<point x="108" y="-200" type="curve" smooth="yes"/>
			<point x="157" y="-200"/>
			<point x="200" y="-176"/>
		</contour>
	</outline>
</glyph>
<glyph name="uni0300" format="2">
  <unicode hex="0300"/>
  <anchor x="-18" y="500" name="_top"/>
  <outline>
    <contour>
      <point x="-93" y="661" type="line"/>
      <point x="-96" y="662"/>
      <point x="-103" y="663"/>
      <point x="-108" y="663" type="curve" smooth="yes"/>
      <point x="-137" y="663"/>
      <point x="-155" y="647"/>
      <point x="-159" y="640" type="curve"/>
      <point x="-159" y="629" type="line"/>
      <point x="-25" y="520" type="line" smooth="yes"/>
      <point x="-7" y="505"/>
      <point x="0" y="500"/>
      <point x="7" y="500" type="curve" smooth="yes"/>
      <point x="14" y="500"/>
      <point x="19" y="505"/>
      <point x="19" y="511" type="curve" smooth="yes"/>
      <point x="19" y="516"/>
      <point x="17" y="525"/>
      <point x="9" y="535" type="curve" smooth="yes"/>
    </contour>
  </outline>
  <guideline angle="78" x="-169" y="11"/>
</glyph>
<glyph name="uni0302" format="2">
  <unicode hex="0302"/>
  <anchor x="-35" y="500" name="_t.uni0302"/>
  <outline>
    <contour>
      <point x="18" y="643" type="curve"/>
      <point x="-32" y="643" type="line"/>
      <point x="-71" y="597"/>
      <point x="-117" y="554"/>
      <point x="-161" y="514" type="curve"/>
      <point x="-144" y="500" type="line"/>
      <point x="-101" y="527"/>
      <point x="-64" y="552"/>
      <point x="-19" y="590" type="curve"/>
      <point x="8" y="554"/>
      <point x="36" y="529"/>
      <point x="69" y="500" type="curve"/>
      <point x="93" y="514" type="line"/>
      <point x="65" y="554"/>
      <point x="37" y="596"/>
    </contour>
  </outline>
</glyph>
<glyph name="uni0305" format="2">
  <unicode hex="0305"/>
  <anchor x="-123" y="500" name="_top"/>
  <outline>
    <contour>
      <point x="37" y="500" type="line" smooth="yes"/>
      <point x="50" y="500"/>
      <point x="64" y="518"/>
      <point x="66" y="530" type="curve"/>
      <point x="68" y="536"/>
      <point x="65" y="544"/>
      <point x="56" y="544" type="curve" smooth="yes"/>
      <point x="-285" y="544" type="line" smooth="yes"/>
      <point x="-296" y="544"/>
      <point x="-310" y="527"/>
      <point x="-313" y="515" type="curve" smooth="yes"/>
      <point x="-314" y="508"/>
      <point x="-312" y="500"/>
      <point x="-303" y="500" type="curve" smooth="yes"/>
    </contour>
  </outline>
</glyph>
<glyph name="uni0307" format="2">
  <unicode hex="0307"/>
  <anchor x="-35" y="500" name="_t.uni0302"/>
  <anchor x="48" y="556" name="_t.acutedot"/>
  <outline>
    <contour>
      <point x="-76" y="539" type="curve" smooth="yes"/>
      <point x="-76" y="517"/>
      <point x="-60" y="500"/>
      <point x="-37" y="500" type="curve" smooth="yes"/>
      <point x="-7" y="500"/>
      <point x="22" y="528"/>
      <point x="22" y="558" type="curve" smooth="yes"/>
      <point x="22" y="579"/>
      <point x="6" y="596"/>
      <point x="-16" y="596" type="curve" smooth="yes"/>
      <point x="-45" y="596"/>
      <point x="-76" y="568"/>
    </contour>
  </outline>
  <guideline angle="90" x="-55" y="0"/>
  <guideline angle="0" x="0" y="604"/>
</glyph>
<glyph name="uni0308" format="2">
  <unicode hex="0308"/>
  <anchor x="-81" y="530" name="_t.uni0302"/>
  <anchor x="-81" y="639" name="top"/>
  <outline>
    <contour>
      <point x="-208" y="577" type="curve" smooth="yes"/>
      <point x="-208" y="551"/>
      <point x="-187" y="530"/>
      <point x="-161" y="530" type="curve" smooth="yes"/>
      <point x="-135" y="530"/>
      <point x="-114" y="551"/>
      <point x="-114" y="577" type="curve" smooth="yes"/>
      <point x="-114" y="603"/>
      <point x="-135" y="624"/>
      <point x="-161" y="624" type="curve" smooth="yes"/>
      <point x="-187" y="624"/>
      <point x="-208" y="603"/>
    </contour>
    <contour>
      <point x="-47" y="577" type="curve" smooth="yes"/>
      <point x="-47" y="551"/>
      <point x="-26" y="530"/>
      <point x="0" y="530" type="curve" smooth="yes"/>
      <point x="26" y="530"/>
      <point x="47" y="551"/>
      <point x="47" y="577" type="curve" smooth="yes"/>
      <point x="47" y="603"/>
      <point x="26" y="624"/>
      <point x="0" y="624" type="curve" smooth="yes"/>
      <point x="-26" y="624"/>
      <point x="-47" y="603"/>
    </contour>
  </outline>
  <guideline angle="90" x="-81" y="0"/>
</glyph>
<glyph name="uni030B" format="2">
  <unicode hex="030B"/>
  <anchor x="-41" y="500" name="_top"/>
  <outline>
    <contour>
      <point x="-29" y="640" type="curve" smooth="yes"/>
      <point x="-25" y="661"/>
      <point x="-39" y="676"/>
      <point x="-60" y="676" type="curve" smooth="yes"/>
      <point x="-64" y="676"/>
      <point x="-80" y="675"/>
      <point x="-89" y="662" type="curve"/>
      <point x="-182" y="516" type="line"/>
      <point x="-184" y="515"/>
      <point x="-184" y="514"/>
      <point x="-184" y="513" type="curve"/>
      <point x="-186" y="505"/>
      <point x="-179" y="500"/>
      <point x="-173" y="500" type="curve" smooth="yes"/>
      <point x="-170" y="500"/>
      <point x="-166" y="501"/>
      <point x="-164" y="503" type="curve" smooth="yes"/>
      <point x="-37" y="624" type="line" smooth="yes"/>
      <point x="-32" y="629"/>
      <point x="-30" y="635"/>
    </contour>
    <contour>
      <point x="102" y="634" type="curve"/>
      <point x="105" y="653"/>
      <point x="92" y="671"/>
      <point x="71" y="671" type="curve" smooth="yes"/>
      <point x="59" y="671"/>
      <point x="52" y="668"/>
      <point x="45" y="659" type="curve" smooth="yes"/>
      <point x="-62" y="520" type="line"/>
      <point x="-63" y="519"/>
      <point x="-63" y="517"/>
      <point x="-63" y="516" type="curve"/>
      <point x="-65" y="508"/>
      <point x="-57" y="503"/>
      <point x="-52" y="503" type="curve" smooth="yes"/>
      <point x="-50" y="503"/>
      <point x="-48" y="503"/>
      <point x="-46" y="505" type="curve" smooth="yes"/>
      <point x="91" y="615" type="line" smooth="yes"/>
      <point x="98" y="621"/>
      <point x="100" y="628"/>
    </contour>
  </outline>
  <guideline angle="0" x="0" y="500"/>
</glyph>
<glyph name="uni030C" format="2">
  <unicode hex="030C"/>
  <anchor x="-98" y="500" name="_t.uni0302"/>
  <anchor x="-97" y="500" name="_top"/>
  <outline>
    <contour>
      <point x="-77" y="500" type="line"/>
      <point x="-38" y="546"/>
      <point x="9" y="591"/>
      <point x="52" y="630" type="curve"/>
      <point x="36" y="643" type="line"/>
      <point x="-7" y="616"/>
      <point x="-46" y="591"/>
      <point x="-91" y="553" type="curve"/>
      <point x="-117" y="589"/>
      <point x="-145" y="614"/>
      <point x="-178" y="643" type="curve"/>
      <point x="-201" y="630" type="line"/>
      <point x="-174" y="592"/>
      <point x="-146" y="547"/>
      <point x="-127" y="500" type="curve"/>
    </contour>
  </outline>
</glyph>
<glyph name="uni030F" format="2">
  <unicode hex="030F"/>
  <anchor x="-17" y="500" name="_top"/>
  <outline>
    <contour>
      <point x="-19" y="640" type="curve" smooth="yes"/>
      <point x="-20" y="635"/>
      <point x="-21" y="629"/>
      <point x="-17" y="624" type="curve"/>
      <point x="61" y="503" type="line" smooth="yes"/>
      <point x="62" y="501"/>
      <point x="64" y="500"/>
      <point x="67" y="500" type="curve" smooth="yes"/>
      <point x="78" y="500"/>
      <point x="83" y="510"/>
      <point x="84" y="513" type="curve"/>
      <point x="84" y="514"/>
      <point x="84" y="516"/>
      <point x="84" y="519" type="curve"/>
      <point x="50" y="662" type="line" smooth="yes"/>
      <point x="48" y="671"/>
      <point x="41" y="676"/>
      <point x="30" y="676" type="curve" smooth="yes"/>
      <point x="-1" y="676"/>
      <point x="-16" y="654"/>
    </contour>
    <contour>
      <point x="-152" y="634" type="curve"/>
      <point x="-154" y="628"/>
      <point x="-153" y="621"/>
      <point x="-149" y="615" type="curve"/>
      <point x="-58" y="505" type="line" smooth="yes"/>
      <point x="-56" y="503"/>
      <point x="-54" y="502"/>
      <point x="-51" y="502" type="curve" smooth="yes"/>
      <point x="-49" y="502"/>
      <point x="-37" y="506"/>
      <point x="-35" y="516" type="curve"/>
      <point x="-35" y="517"/>
      <point x="-35" y="519"/>
      <point x="-36" y="520" type="curve"/>
      <point x="-85" y="659" type="line"/>
      <point x="-89" y="668"/>
      <point x="-95" y="670"/>
      <point x="-107" y="670" type="curve" smooth="yes"/>
      <point x="-131" y="670"/>
      <point x="-149" y="652"/>
    </contour>
  </outline>
</glyph>
<glyph name="uni0312" format="2">
  <unicode hex="0312"/>
  <anchor x="8.03857" y="510" name="_t.uni0302"/>
  <outline>
    <contour>
      <point x="8.03857" y="510" type="curve" smooth="yes"/>
      <point x="32.2225" y="510"/>
      <point x="65.7088" y="528.391"/>
      <point x="66.9516" y="554.922" type="curve" smooth="yes"/>
      <point x="67.1426" y="559" type="line" smooth="yes"/>
      <point x="67.8748" y="574.63"/>
      <point x="58.4362" y="592"/>
      <point x="24.4238" y="592" type="curve" smooth="yes"/>
      <point x="18.4238" y="592"/>
      <point x="13.467" y="591.571"/>
      <point x="4.40762" y="590.873" type="curve" smooth="yes"/>
      <point x="0.492604" y="590.571" type="line" smooth="yes"/>
      <point x="-1.96486" y="590.382"/>
      <point x="-3.36903" y="591.615"/>
      <point x="-3.36831" y="595.044" type="curve" smooth="yes"/>
      <point x="-3.35902" y="639.071"/>
      <point x="53.0576" y="664.807"/>
      <point x="88.4238" y="672" type="curve"/>
      <point x="89.4238" y="675.5"/>
      <point x="90.1738" y="679.5"/>
      <point x="90.1738" y="683.125" type="curve" smooth="yes"/>
      <point x="90.1738" y="686.75"/>
      <point x="89.4238" y="690"/>
      <point x="87.4238" y="692" type="curve"/>
      <point x="24.6737" y="684.294"/>
      <point x="-42.0329" y="634.135"/>
      <point x="-41.7818" y="567.787" type="curve" smooth="yes"/>
      <point x="-41.6591" y="535.368"/>
      <point x="-25.5911" y="510"/>
    </contour>
  </outline>
</glyph>
<glyph name="uni0313" format="2">
  <unicode hex="0313"/>
  <anchor x="107" y="696" name="_top"/>
  <outline>
    <contour>
      <point x="59" y="696" type="curve" smooth="yes"/>
      <point x="22" y="696"/>
      <point x="-2" y="674"/>
      <point x="-2" y="642" type="curve" smooth="yes"/>
      <point x="-2" y="625"/>
      <point x="10" y="610"/>
      <point x="41" y="610" type="curve" smooth="yes"/>
      <point x="47" y="610"/>
      <point x="52" y="610"/>
      <point x="55" y="611" type="curve"/>
      <point x="68" y="612"/>
      <point x="69" y="612"/>
      <point x="67" y="597" type="curve"/>
      <point x="62" y="574"/>
      <point x="36" y="542"/>
      <point x="-23" y="530" type="curve"/>
      <point x="-25" y="523"/>
      <point x="-26" y="514"/>
      <point x="-22" y="510" type="curve"/>
      <point x="40" y="518"/>
      <point x="107" y="568"/>
      <point x="107" y="636" type="curve" smooth="yes"/>
      <point x="107" y="666"/>
      <point x="92" y="696"/>
    </contour>
  </outline>
  <guideline angle="0" x="0" y="696"/>
</glyph>
<glyph name="uni031A" format="2">
  <unicode hex="031A"/>
  <anchor x="136" y="580" name="_top"/>
  <outline>
    <contour>
      <point x="259" y="437" type="curve"/>
      <point x="289" y="584" type="line"/>
      <point x="280" y="596" type="line"/>
      <point x="134" y="596" type="line"/>
      <point x="124" y="591"/>
      <point x="111" y="584"/>
      <point x="111" y="571" type="curve" smooth="yes"/>
      <point x="111" y="566"/>
      <point x="112" y="559"/>
      <point x="119" y="555" type="curve"/>
      <point x="239" y="555" type="line"/>
      <point x="214" y="433" type="line"/>
      <point x="222" y="425"/>
      <point x="231" y="424"/>
      <point x="237" y="424" type="curve" smooth="yes"/>
      <point x="242" y="424"/>
      <point x="252" y="428"/>
    </contour>
  </outline>
</glyph>
<glyph name="uni031B" format="2">
  <unicode hex="031B"/>
  <anchor x="-46" y="332" name="_t.horn"/>
  <outline>
    <contour>
      <point x="-3" y="440" type="curve" smooth="yes"/>
      <point x="-3" y="476"/>
      <point x="-21" y="503"/>
      <point x="-52" y="503" type="curve" smooth="yes"/>
      <point x="-80" y="503"/>
      <point x="-107" y="485"/>
      <point x="-107" y="455" type="curve" smooth="yes"/>
      <point x="-107" y="438"/>
      <point x="-96" y="421"/>
      <point x="-67" y="418" type="curve" smooth="yes"/>
      <point x="-54" y="417"/>
      <point x="-44" y="410"/>
      <point x="-44" y="399" type="curve" smooth="yes"/>
      <point x="-44" y="371"/>
      <point x="-81" y="361"/>
      <point x="-103" y="361" type="curve" smooth="yes"/>
      <point x="-127" y="361" type="line"/>
      <point x="-133" y="332" type="line"/>
      <point x="-109" y="332" type="line" smooth="yes"/>
      <point x="-44" y="332"/>
      <point x="-3" y="378"/>
    </contour>
  </outline>
</glyph>
<glyph name="uni0325" format="2">
	<unicode hex="0325"/>
	<outline>
		<contour>
			<point x="-342" y="-159" type="curve" smooth="yes"/>
			<point x="-342" y="-198"/>
			<point x="-312" y="-227"/>
			<point x="-271" y="-227" type="curve" smooth="yes"/>
			<point x="-221" y="-227"/>
			<point x="-165" y="-180"/>
			<point x="-165" y="-128" type="curve" smooth="yes"/>
			<point x="-165" y="-89"/>
			<point x="-196" y="-61"/>
			<point x="-237" y="-61" type="curve" smooth="yes"/>
			<point x="-287" y="-61"/>
			<point x="-342" y="-107"/>
		</contour>
		<contour>
			<point x="-305" y="-156" type="curve" smooth="yes"/>
			<point x="-305" y="-122"/>
			<point x="-277" y="-88"/>
			<point x="-242" y="-88" type="curve" smooth="yes"/>
			<point x="-217" y="-88"/>
			<point x="-202" y="-105"/>
			<point x="-202" y="-129" type="curve" smooth="yes"/>
			<point x="-202" y="-163"/>
			<point x="-229" y="-200"/>
			<point x="-265" y="-200" type="curve" smooth="yes"/>
			<point x="-292" y="-200"/>
			<point x="-305" y="-180"/>
		</contour>
	</outline>
	<anchor name="_b.minus-60" x="-237" y="-61"/>
</glyph>
<glyph name="uni0326" format="2">
	<unicode hex="0326"/>
	<outline>
		<contour>
			<point x="-258" y="-60" type="curve"/>
			<point x="-295" y="-60"/>
			<point x="-316" y="-78"/>
			<point x="-316" y="-108" type="curve" smooth="yes"/>
			<point x="-316" y="-160"/>
			<point x="-256" y="-132"/>
			<point x="-256" y="-159" type="curve" smooth="yes"/>
			<point x="-256" y="-195"/>
			<point x="-316" y="-215"/>
			<point x="-343" y="-221" type="curve"/>
			<point x="-345" y="-230"/>
			<point x="-345" y="-239"/>
			<point x="-340" y="-245" type="curve"/>
			<point x="-271" y="-234"/>
			<point x="-211" y="-194"/>
			<point x="-211" y="-117" type="curve" smooth="yes"/>
			<point x="-211" y="-82"/>
			<point x="-229" y="-60"/>
		</contour>
	</outline>
	<anchor name="_b.minus-60" x="-258" y="-60"/>
</glyph>
<glyph name="uni032E" format="2">
	<unicode hex="032E"/>
	<outline>
		<contour>
			<point x="-367" y="-60" type="curve"/>
			<point x="-396" y="-72" type="line"/>
			<point x="-396" y="-158"/>
			<point x="-359" y="-207"/>
			<point x="-289" y="-207" type="curve" smooth="yes"/>
			<point x="-230" y="-207"/>
			<point x="-156" y="-158"/>
			<point x="-126" y="-72" type="curve"/>
			<point x="-151" y="-60" type="line"/>
			<point x="-173" y="-118"/>
			<point x="-225" y="-150"/>
			<point x="-277" y="-150" type="curve" smooth="yes"/>
			<point x="-331" y="-150"/>
			<point x="-367" y="-113"/>
		</contour>
	</outline>
	<anchor name="_b.minus-60" x="-275" y="-60"/>
</glyph>
<glyph name="uni032F" format="2">
	<unicode hex="032F"/>
	<outline>
		<contour>
			<point x="-191" y="-207" type="curve"/>
			<point x="-162" y="-195" type="line"/>
			<point x="-162" y="-110"/>
			<point x="-199" y="-60"/>
			<point x="-269" y="-60" type="curve" smooth="yes"/>
			<point x="-328" y="-60"/>
			<point x="-402" y="-109"/>
			<point x="-431" y="-195" type="curve"/>
			<point x="-407" y="-207" type="line"/>
			<point x="-385" y="-149"/>
			<point x="-333" y="-117"/>
			<point x="-281" y="-117" type="curve" smooth="yes"/>
			<point x="-227" y="-117"/>
			<point x="-191" y="-154"/>
		</contour>
	</outline>
	<anchor name="_b.minus-60" x="-269" y="-60"/>
</glyph>
<glyph name="uni0330" format="2">
	<unicode hex="0330"/>
	<outline>
		<contour>
			<point x="-156" y="-110" type="curve" smooth="yes"/>
			<point x="-175" y="-110"/>
			<point x="-190" y="-100"/>
			<point x="-203" y="-88" type="curve"/>
			<point x="-221" y="-74"/>
			<point x="-240" y="-60"/>
			<point x="-270" y="-60" type="curve" smooth="yes"/>
			<point x="-313" y="-60"/>
			<point x="-342" y="-90"/>
			<point x="-368" y="-149" type="curve"/>
			<point x="-363" y="-150"/>
			<point x="-349" y="-153"/>
			<point x="-345" y="-154" type="curve"/>
			<point x="-328" y="-121"/>
			<point x="-312" y="-106"/>
			<point x="-286" y="-106" type="curve" smooth="yes"/>
			<point x="-269" y="-106"/>
			<point x="-252" y="-117"/>
			<point x="-236" y="-128" type="curve"/>
			<point x="-218" y="-142"/>
			<point x="-200" y="-154"/>
			<point x="-178" y="-154" type="curve" smooth="yes"/>
			<point x="-132" y="-154"/>
			<point x="-97" y="-124"/>
			<point x="-72" y="-64" type="curve"/>
			<point x="-76" y="-63"/>
			<point x="-91" y="-59"/>
			<point x="-95" y="-58" type="curve"/>
			<point x="-118" y="-100"/>
			<point x="-134" y="-110"/>
		</contour>
	</outline>
	<anchor name="_b.minus-60" x="-227" y="-60"/>
</glyph>
<glyph name="uni0342" format="2">
  <unicode hex="0342"/>
  <anchor x="-144.725" y="510" name="_top"/>
  <outline>
    <contour>
      <point x="-68.7247" y="554" type="curve" smooth="yes"/>
      <point x="-87.7247" y="554"/>
      <point x="-102.597" y="564.151"/>
      <point x="-116.725" y="576" type="curve" smooth="yes"/>
      <point x="-133.598" y="590.152"/>
      <point x="-152.725" y="604"/>
      <point x="-182.725" y="604" type="curve" smooth="yes"/>
      <point x="-225.725" y="604"/>
      <point x="-254.725" y="574"/>
      <point x="-280.725" y="515" type="curve"/>
      <point x="-275.725" y="514"/>
      <point x="-261.725" y="511"/>
      <point x="-257.725" y="510" type="curve"/>
      <point x="-241.725" y="543"/>
      <point x="-225.725" y="558"/>
      <point x="-199.725" y="558" type="curve" smooth="yes"/>
      <point x="-182.725" y="558"/>
      <point x="-165.368" y="547.502"/>
      <point x="-149.725" y="536" type="curve" smooth="yes"/>
      <point x="-131.353" y="522.491"/>
      <point x="-112.725" y="510"/>
      <point x="-90.7247" y="510" type="curve" smooth="yes"/>
      <point x="-44.7247" y="510"/>
      <point x="-9.72466" y="540"/>
      <point x="14.2753" y="600" type="curve"/>
      <point x="10.2753" y="601"/>
      <point x="-4.72466" y="605"/>
      <point x="-8.72466" y="606" type="curve"/>
      <point x="-30.7247" y="564"/>
      <point x="-46.7247" y="554"/>
    </contour>
  </outline>
</glyph>
<glyph name="uni0343" format="2">
  <unicode hex="0343"/>
  <anchor x="27" y="605" name="_top"/>
  <outline>
    <contour>
      <point x="44" y="652" type="curve" smooth="yes"/>
      <point x="14" y="652"/>
      <point x="-10" y="636"/>
      <point x="-10" y="607" type="curve" smooth="yes"/>
      <point x="-10" y="585"/>
      <point x="5" y="570"/>
      <point x="32" y="570" type="curve" smooth="yes"/>
      <point x="39" y="570"/>
      <point x="44" y="571"/>
      <point x="49" y="571" type="curve" smooth="yes"/>
      <point x="55" y="571"/>
      <point x="59" y="570"/>
      <point x="59" y="562" type="curve" smooth="yes"/>
      <point x="59" y="520"/>
      <point x="6" y="498"/>
      <point x="-32" y="490" type="curve"/>
      <point x="-34" y="483"/>
      <point x="-35" y="474"/>
      <point x="-31" y="470" type="curve"/>
      <point x="31" y="478"/>
      <point x="99" y="528"/>
      <point x="99" y="596" type="curve" smooth="yes"/>
      <point x="99" y="626"/>
      <point x="83" y="652"/>
    </contour>
  </outline>
</glyph>
<glyph name="uni0344" format="2">
  <unicode hex="0344"/>
  <anchor x="-81" y="500" name="_top"/>
  <outline>
    <contour>
      <point x="27" y="752" type="curve" smooth="yes"/>
      <point x="14" y="752"/>
      <point x="2" y="746"/>
      <point x="-4" y="735" type="curve" smooth="yes"/>
      <point x="-86" y="592" type="line" smooth="yes"/>
      <point x="-88" y="589"/>
      <point x="-90" y="583"/>
      <point x="-90" y="580" type="curve" smooth="yes"/>
      <point x="-90" y="574"/>
      <point x="-87" y="569"/>
      <point x="-78" y="569" type="curve" smooth="yes"/>
      <point x="-74" y="569"/>
      <point x="-69" y="573"/>
      <point x="-65" y="577" type="curve" smooth="yes"/>
      <point x="52" y="699" type="line" smooth="yes"/>
      <point x="58" y="705"/>
      <point x="62" y="714"/>
      <point x="62" y="722" type="curve" smooth="yes"/>
      <point x="62" y="740"/>
      <point x="45" y="752"/>
    </contour>
    <contour>
      <point x="-47" y="532" type="curve" smooth="yes"/>
      <point x="-47" y="511"/>
      <point x="-31" y="495"/>
      <point x="-9" y="495" type="curve" smooth="yes"/>
      <point x="19" y="495"/>
      <point x="47" y="521"/>
      <point x="47" y="550" type="curve" smooth="yes"/>
      <point x="47" y="571"/>
      <point x="31" y="587"/>
      <point x="9" y="587" type="curve" smooth="yes"/>
      <point x="-19" y="587"/>
      <point x="-47" y="561"/>
    </contour>
    <contour>
      <point x="-207" y="532" type="curve" smooth="yes"/>
      <point x="-207" y="511"/>
      <point x="-191" y="495"/>
      <point x="-169" y="495" type="curve" smooth="yes"/>
      <point x="-141" y="495"/>
      <point x="-113" y="521"/>
      <point x="-113" y="550" type="curve" smooth="yes"/>
      <point x="-113" y="571"/>
      <point x="-129" y="587"/>
      <point x="-151" y="587" type="curve" smooth="yes"/>
      <point x="-179" y="587"/>
      <point x="-207" y="561"/>
    </contour>
  </outline>
  <guideline angle="0" x="0" y="500"/>
</glyph>
<glyph name="uni0345" format="2">
  <unicode hex="0345"/>
  <anchor x="-167" y="-60" name="_ypogegrammeni"/>
  <outline>
    <contour>
      <point x="-232" y="-73" type="line"/>
      <point x="-252" y="-155" type="line" smooth="yes"/>
      <point x="-254" y="-163"/>
      <point x="-254" y="-170"/>
      <point x="-254" y="-177" type="curve" smooth="yes"/>
      <point x="-254" y="-219"/>
      <point x="-225" y="-237"/>
      <point x="-183" y="-237" type="curve" smooth="yes"/>
      <point x="-158" y="-237"/>
      <point x="-109" y="-223"/>
      <point x="-80" y="-154" type="curve"/>
      <point x="-104" y="-146" type="line"/>
      <point x="-116" y="-173"/>
      <point x="-137" y="-197"/>
      <point x="-155" y="-197" type="curve" smooth="yes"/>
      <point x="-172" y="-197"/>
      <point x="-176" y="-179"/>
      <point x="-176" y="-160" type="curve" smooth="yes"/>
      <point x="-176" y="-144"/>
      <point x="-173" y="-127"/>
      <point x="-171" y="-119" type="curve" smooth="yes"/>
      <point x="-158" y="-67" type="line"/>
      <point x="-178" y="-60" type="line"/>
    </contour>
  </outline>
</glyph>
<glyph name="uni0347" format="2">
	<unicode hex="0347"/>
	<outline>
		<contour>
			<point x="-116" y="-194" type="line" smooth="yes"/>
			<point x="-103" y="-194"/>
			<point x="-89" y="-176"/>
			<point x="-87" y="-164" type="curve"/>
			<point x="-85" y="-157"/>
			<point x="-88" y="-150"/>
			<point x="-97" y="-150" type="curve" smooth="yes"/>
			<point x="-442" y="-150" type="line" smooth="yes"/>
			<point x="-454" y="-150"/>
			<point x="-467" y="-167"/>
			<point x="-470" y="-179" type="curve"/>
			<point x="-471" y="-186"/>
			<point x="-469" y="-194"/>
			<point x="-461" y="-194" type="curve" smooth="yes"/>
		</contour>
		<contour>
			<point x="-98" y="-104" type="line" smooth="yes"/>
			<point x="-85" y="-104"/>
			<point x="-71" y="-86"/>
			<point x="-68" y="-74" type="curve"/>
			<point x="-67" y="-67"/>
			<point x="-70" y="-60"/>
			<point x="-79" y="-60" type="curve" smooth="yes"/>
			<point x="-424" y="-60" type="line" smooth="yes"/>
			<point x="-436" y="-60"/>
			<point x="-449" y="-77"/>
			<point x="-452" y="-89" type="curve"/>
			<point x="-453" y="-96"/>
			<point x="-451" y="-104"/>
			<point x="-443" y="-104" type="curve" smooth="yes"/>
		</contour>
	</outline>
	<anchor name="_b.minus-60" x="-266" y="-60"/>
</glyph>
<glyph name="uni034D" format="2">
	<unicode hex="034D"/>
	<outline>
		<contour>
			<point x="-440" y="-141" type="curve"/>
			<point x="-442" y="-152" type="line"/>
			<point x="-389" y="-184"/>
			<point x="-366" y="-200"/>
			<point x="-354" y="-235" type="curve"/>
			<point x="-320" y="-235" type="line"/>
			<point x="-328" y="-203"/>
			<point x="-345" y="-182"/>
			<point x="-359" y="-163" type="curve"/>
			<point x="-158" y="-163" type="line"/>
			<point x="-180" y="-183"/>
			<point x="-206" y="-203"/>
			<point x="-227" y="-235" type="curve"/>
			<point x="-192" y="-235" type="line"/>
			<point x="-158" y="-204"/>
			<point x="-113" y="-172"/>
			<point x="-71" y="-152" type="curve"/>
			<point x="-69" y="-141" type="line"/>
			<point x="-115" y="-123"/>
			<point x="-147" y="-76"/>
			<point x="-156" y="-60" type="curve"/>
			<point x="-190" y="-60" type="line"/>
			<point x="-183" y="-95"/>
			<point x="-159" y="-121"/>
			<point x="-152" y="-133" type="curve"/>
			<point x="-353" y="-133" type="line"/>
			<point x="-343" y="-123"/>
			<point x="-309" y="-97"/>
			<point x="-285" y="-60" type="curve"/>
			<point x="-318" y="-60" type="line"/>
			<point x="-336" y="-76"/>
			<point x="-386" y="-123"/>
		</contour>
	</outline>
	<anchor name="_b.minus-60" x="-244" y="-60"/>
</glyph>
<glyph name="uni0355" format="2">
	<unicode hex="0355"/>
	<outline>
		<contour>
			<point x="-163" y="-158" type="line"/>
			<point x="-338" y="-218" type="line"/>
			<point x="-346" y="-256" type="line"/>
			<point x="-97" y="-172" type="line"/>
			<point x="-91" y="-145" type="line"/>
			<point x="-306" y="-60" type="line"/>
			<point x="-314" y="-98" type="line"/>
		</contour>
	</outline>
	<anchor name="_b.minus-60" x="-218" y="-60"/>
</glyph>
<glyph name="uni0359" format="2">
	<unicode hex="0359"/>
	<outline>
		<contour>
			<point x="-161" y="-144" type="curve"/>
			<point x="-183" y="-165"/>
			<point x="-210" y="-161"/>
			<point x="-216" y="-191" type="curve" smooth="yes"/>
			<point x="-218" y="-200"/>
			<point x="-212" y="-207"/>
			<point x="-203" y="-207" type="curve" smooth="yes"/>
			<point x="-170" y="-207"/>
			<point x="-171" y="-176"/>
			<point x="-153" y="-152" type="curve"/>
			<point x="-145" y="-174"/>
			<point x="-152" y="-207"/>
			<point x="-126" y="-207" type="curve" smooth="yes"/>
			<point x="-118" y="-207"/>
			<point x="-107" y="-201"/>
			<point x="-105" y="-191" type="curve" smooth="yes"/>
			<point x="-101" y="-173"/>
			<point x="-111" y="-167"/>
			<point x="-122" y="-160" type="curve"/>
			<point x="-129" y="-156"/>
			<point x="-136" y="-151"/>
			<point x="-142" y="-144" type="curve"/>
			<point x="-134" y="-143"/>
			<point x="-127" y="-143"/>
			<point x="-120" y="-143" type="curve" smooth="yes"/>
			<point x="-117" y="-143"/>
			<point x="-114" y="-143"/>
			<point x="-111" y="-143" type="curve" smooth="yes"/>
			<point x="-91" y="-143"/>
			<point x="-73" y="-137"/>
			<point x="-70" y="-121" type="curve" smooth="yes"/>
			<point x="-69" y="-115"/>
			<point x="-69" y="-102"/>
			<point x="-87" y="-102" type="curve" smooth="yes"/>
			<point x="-105" y="-102"/>
			<point x="-116" y="-121"/>
			<point x="-142" y="-132" type="curve"/>
			<point x="-138" y="-116"/>
			<point x="-120" y="-94"/>
			<point x="-117" y="-79" type="curve"/>
			<point x="-115" y="-66"/>
			<point x="-125" y="-60"/>
			<point x="-135" y="-60" type="curve" smooth="yes"/>
			<point x="-145" y="-60"/>
			<point x="-159" y="-70"/>
			<point x="-161" y="-81" type="curve"/>
			<point x="-162" y="-88"/>
			<point x="-160" y="-94"/>
			<point x="-158" y="-102" type="curve"/>
			<point x="-156" y="-111"/>
			<point x="-154" y="-120"/>
			<point x="-155" y="-132" type="curve"/>
			<point x="-177" y="-121"/>
			<point x="-182" y="-103"/>
			<point x="-201" y="-103" type="curve" smooth="yes"/>
			<point x="-214" y="-103"/>
			<point x="-221" y="-113"/>
			<point x="-223" y="-121" type="curve"/>
			<point x="-226" y="-138"/>
			<point x="-217" y="-143"/>
			<point x="-204" y="-143" type="curve" smooth="yes"/>
			<point x="-192" y="-143"/>
			<point x="-186" y="-140"/>
			<point x="-180" y="-140" type="curve" smooth="yes"/>
			<point x="-173" y="-140"/>
			<point x="-166" y="-143"/>
		</contour>
	</outline>
	<anchor name="_b.minus-60" x="-147" y="-60"/>
</glyph>
<glyph name="uni0366" format="2">
  <unicode hex="0366"/>
  <anchor x="-56" y="509" name="_top"/>
  <outline>
    <contour>
      <point x="-123" y="564" type="curve" smooth="yes"/>
      <point x="-123" y="535"/>
      <point x="-105" y="509"/>
      <point x="-62" y="509" type="curve" smooth="yes"/>
      <point x="-11" y="509"/>
      <point x="28" y="551"/>
      <point x="28" y="601" type="curve" smooth="yes"/>
      <point x="28" y="628"/>
      <point x="15" y="659"/>
      <point x="-32" y="659" type="curve" smooth="yes"/>
      <point x="-82" y="659"/>
      <point x="-123" y="613"/>
    </contour>
    <contour>
      <point x="-82" y="562" type="curve"/>
      <point x="-82" y="589"/>
      <point x="-70" y="643"/>
      <point x="-38" y="643" type="curve" smooth="yes"/>
      <point x="-22" y="643"/>
      <point x="-14" y="629"/>
      <point x="-14" y="605" type="curve" smooth="yes"/>
      <point x="-14" y="580"/>
      <point x="-22" y="525"/>
      <point x="-54" y="525" type="curve" smooth="yes"/>
      <point x="-71" y="525"/>
      <point x="-81" y="537"/>
    </contour>
  </outline>
</glyph>
<glyph name="uni0368" format="2">
  <unicode hex="0368"/>
  <anchor x="-59" y="509" name="_top"/>
  <outline>
    <contour>
      <point x="-121" y="565" type="curve" smooth="yes"/>
      <point x="-121" y="534"/>
      <point x="-103" y="509"/>
      <point x="-64" y="509" type="curve" smooth="yes"/>
      <point x="-40" y="509"/>
      <point x="-18" y="522"/>
      <point x="0" y="541" type="curve"/>
      <point x="-1" y="547"/>
      <point x="-3" y="551"/>
      <point x="-10" y="553" type="curve"/>
      <point x="-23" y="541"/>
      <point x="-31" y="531"/>
      <point x="-52" y="531" type="curve" smooth="yes"/>
      <point x="-61" y="531"/>
      <point x="-82" y="535"/>
      <point x="-82" y="565" type="curve" smooth="yes"/>
      <point x="-82" y="592"/>
      <point x="-63" y="645"/>
      <point x="-32" y="645" type="curve" smooth="yes"/>
      <point x="-19" y="645"/>
      <point x="-15" y="637"/>
      <point x="-15" y="627" type="curve" smooth="yes"/>
      <point x="-15" y="616"/>
      <point x="-13" y="607"/>
      <point x="1" y="607" type="curve" smooth="yes"/>
      <point x="14" y="607"/>
      <point x="20" y="620"/>
      <point x="20" y="631" type="curve" smooth="yes"/>
      <point x="20" y="659"/>
      <point x="-10" y="662"/>
      <point x="-31" y="662" type="curve" smooth="yes"/>
      <point x="-79" y="662"/>
      <point x="-121" y="612"/>
    </contour>
  </outline>
</glyph>
<glyph name="uni037A" format="2">
  <advance width="243"/>
  <unicode hex="037A"/>
  <anchor x="85" y="-60" name="_ypogegrammeni"/>
  <outline>
    <contour>
      <point x="23.0386" y="-73" type="line"/>
      <point x="5.03857" y="-155" type="line" smooth="yes"/>
      <point x="3.06187" y="-164.005"/>
      <point x="2.03857" y="-172"/>
      <point x="2.03857" y="-180" type="curve" smooth="yes"/>
      <point x="2.03857" y="-220"/>
      <point x="31.0386" y="-237"/>
      <point x="72.0386" y="-237" type="curve" smooth="yes"/>
      <point x="97.0386" y="-237"/>
      <point x="145.039" y="-223"/>
      <point x="177.039" y="-154" type="curve"/>
      <point x="154.039" y="-146" type="line"/>
      <point x="141.039" y="-173"/>
      <point x="120.039" y="-197"/>
      <point x="102.039" y="-197" type="curve" smooth="yes"/>
      <point x="88.0386" y="-197"/>
      <point x="80.0386" y="-187"/>
      <point x="80.0386" y="-164" type="curve" smooth="yes"/>
      <point x="80.0386" y="-152"/>
      <point x="81.8924" y="-136.967"/>
      <point x="86.0386" y="-119" type="curve" smooth="yes"/>
      <point x="98.0386" y="-67" type="line"/>
      <point x="79.0386" y="-60" type="line"/>
    </contour>
  </outline>
</glyph>
<glyph name="tonos" format="2">
  <advance width="219"/>
  <unicode hex="0384"/>
  <outline>
    <contour>
      <point x="159.625" y="512.641" type="curve" smooth="yes"/>
      <point x="159.893" y="503.588"/>
      <point x="166.943" y="500"/>
      <point x="174.353" y="500" type="curve" smooth="yes"/>
      <point x="179" y="500"/>
      <point x="185" y="504"/>
      <point x="188" y="509" type="curve"/>
      <point x="292" y="648" type="line" smooth="yes"/>
      <point x="295.931" y="653.504"/>
      <point x="298.626" y="660.245"/>
      <point x="298.626" y="667.25" type="curve" smooth="yes"/>
      <point x="298.626" y="688.286"/>
      <point x="279.115" y="708"/>
      <point x="258" y="708" type="curve" smooth="yes"/>
      <point x="246" y="708"/>
      <point x="232" y="701"/>
      <point x="227" y="689" type="curve" smooth="yes"/>
      <point x="163" y="526" type="line" smooth="yes"/>
      <point x="160.75" y="520"/>
      <point x="159.518" y="516.248"/>
    </contour>
  </outline>
</glyph>
<glyph name="dieresistonos" format="2">
  <advance width="368"/>
  <unicode hex="0385"/>
  <anchor x="306" y="500" name="_t.uni0302"/>
  <outline>
    <contour>
      <point x="375" y="757" type="curve" smooth="yes"/>
      <point x="362" y="757"/>
      <point x="351" y="751"/>
      <point x="347" y="740" type="curve" smooth="yes"/>
      <point x="295" y="597" type="line"/>
      <point x="294" y="594"/>
      <point x="293" y="590"/>
      <point x="293" y="587" type="curve" smooth="yes"/>
      <point x="293" y="580"/>
      <point x="299" y="574"/>
      <point x="307" y="574" type="curve" smooth="yes"/>
      <point x="311" y="574"/>
      <point x="316" y="578"/>
      <point x="319" y="582" type="curve" smooth="yes"/>
      <point x="411" y="704" type="line"/>
      <point x="415" y="709"/>
      <point x="417" y="717"/>
      <point x="417" y="722" type="curve" smooth="yes"/>
      <point x="417" y="742"/>
      <point x="395" y="757"/>
    </contour>
    <contour>
      <point x="185" y="546" type="curve" smooth="yes"/>
      <point x="185" y="521"/>
      <point x="206" y="500"/>
      <point x="231" y="500" type="curve" smooth="yes"/>
      <point x="256" y="500"/>
      <point x="277" y="521"/>
      <point x="277" y="546" type="curve" smooth="yes"/>
      <point x="277" y="571"/>
      <point x="256" y="592"/>
      <point x="231" y="592" type="curve" smooth="yes"/>
      <point x="206" y="592"/>
      <point x="185" y="571"/>
    </contour>
    <contour>
      <point x="345" y="546" type="curve" smooth="yes"/>
      <point x="345" y="521"/>
      <point x="366" y="500"/>
      <point x="391" y="500" type="curve" smooth="yes"/>
      <point x="416" y="500"/>
      <point x="437" y="521"/>
      <point x="437" y="546" type="curve" smooth="yes"/>
      <point x="437" y="571"/>
      <point x="416" y="592"/>
      <point x="391" y="592" type="curve" smooth="yes"/>
      <point x="366" y="592"/>
      <point x="345" y="571"/>
    </contour>
  </outline>
</glyph>
<glyph name="Alphatonos" format="2">
  <advance width="667"/>
  <unicode hex="0386"/>
  <outline>
    <component base="A"/>
    <contour>
      <point x="291" y="707" type="curve" smooth="yes"/>
      <point x="287" y="700"/>
      <point x="283" y="693"/>
      <point x="279" y="687" type="curve"/>
      <point x="206" y="564" type="line"/>
      <point x="205" y="563"/>
      <point x="204" y="561"/>
      <point x="203" y="559" type="curve"/>
      <point x="203" y="557"/>
      <point x="202" y="556"/>
      <point x="202" y="555" type="curve"/>
      <point x="202" y="555"/>
      <point x="201" y="554"/>
      <point x="201" y="554" type="curve"/>
      <point x="201" y="552" type="line" smooth="yes"/>
      <point x="201" y="546"/>
      <point x="206" y="541"/>
      <point x="213" y="541" type="curve" smooth="yes"/>
      <point x="218" y="541"/>
      <point x="223" y="545"/>
      <point x="226" y="549" type="curve"/>
      <point x="346" y="671" type="line" smooth="yes"/>
      <point x="351" y="676"/>
      <point x="354" y="681"/>
      <point x="355" y="686" type="curve"/>
      <point x="355" y="688"/>
      <point x="355" y="691"/>
      <point x="355" y="693" type="curve" smooth="yes"/>
      <point x="355" y="710"/>
      <point x="341" y="724"/>
      <point x="323" y="724" type="curve" smooth="yes"/>
      <point x="312" y="724"/>
      <point x="297" y="717"/>
    </contour>
  </outline>
</glyph>
<glyph name="uni03A9" format="2">
  <advance width="693"/>
  <unicode hex="03A9"/>
  <anchor x="168" y="724" name="t.gr"/>
  <anchor x="382" y="-60" name="ypogegrammeni"/>
  <outline>
    <contour>
      <point x="154" y="59" type="line" smooth="yes"/>
      <point x="100" y="59"/>
      <point x="89" y="73"/>
      <point x="89" y="125" type="curve"/>
      <point x="81" y="125"/>
      <point x="70" y="123"/>
      <point x="62" y="119" type="curve"/>
      <point x="59" y="79"/>
      <point x="56" y="40"/>
      <point x="49" y="0" type="curve"/>
      <point x="261" y="0" type="line" smooth="yes"/>
      <point x="271" y="0"/>
      <point x="280" y="6"/>
      <point x="281" y="16" type="curve" smooth="yes"/>
      <point x="295" y="143" type="line"/>
      <point x="234" y="189"/>
      <point x="200" y="238"/>
      <point x="200" y="317" type="curve" smooth="yes"/>
      <point x="200" y="465"/>
      <point x="298" y="626"/>
      <point x="459" y="626" type="curve" smooth="yes"/>
      <point x="573" y="626"/>
      <point x="633" y="545"/>
      <point x="633" y="437" type="curve" smooth="yes"/>
      <point x="633" y="307"/>
      <point x="570" y="203"/>
      <point x="455" y="143" type="curve"/>
      <point x="424" y="10" type="line"/>
      <point x="424" y="2"/>
      <point x="431" y="0"/>
      <point x="437" y="0" type="curve" smooth="yes"/>
      <point x="645" y="0" type="line"/>
      <point x="652" y="40"/>
      <point x="662" y="79"/>
      <point x="673" y="119" type="curve"/>
      <point x="665" y="123"/>
      <point x="657" y="125"/>
      <point x="648" y="125" type="curve"/>
      <point x="633" y="71"/>
      <point x="612" y="59"/>
      <point x="560" y="59" type="curve" smooth="yes"/>
      <point x="462" y="59" type="line"/>
      <point x="478" y="117" type="line"/>
      <point x="613" y="160"/>
      <point x="721" y="290"/>
      <point x="721" y="434" type="curve" smooth="yes"/>
      <point x="721" y="586"/>
      <point x="609" y="661"/>
      <point x="466" y="661" type="curve" smooth="yes"/>
      <point x="287" y="661"/>
      <point x="112" y="516"/>
      <point x="112" y="329" type="curve" smooth="yes"/>
      <point x="112" y="231"/>
      <point x="170" y="151"/>
      <point x="262" y="117" type="curve"/>
      <point x="256" y="59" type="line"/>
    </contour>
  </outline>
</glyph>
<glyph name="alpha" format="2">
  <advance width="522"/>
  <unicode hex="03B1"/>
  <anchor x="325" y="510" name="t.gr_LC"/>
  <anchor x="242" y="-60" name="ypogegrammeni"/>
  <outline>
    <contour>
      <point x="331" y="442" type="curve" smooth="yes"/>
      <point x="169" y="442"/>
      <point x="67" y="261"/>
      <point x="67" y="115" type="curve" smooth="yes"/>
      <point x="67" y="32"/>
      <point x="110" y="-12"/>
      <point x="194" y="-12" type="curve" smooth="yes"/>
      <point x="199" y="-12"/>
      <point x="204" y="-12"/>
      <point x="209" y="-11" type="curve" smooth="yes"/>
      <point x="266" y="-5"/>
      <point x="315" y="37"/>
      <point x="379" y="128" type="curve"/>
      <point x="378" y="27"/>
      <point x="386" y="-12"/>
      <point x="429" y="-12" type="curve" smooth="yes"/>
      <point x="469" y="-12"/>
      <point x="498" y="14"/>
      <point x="534" y="77" type="curve"/>
      <point x="529" y="83"/>
      <point x="520" y="86"/>
      <point x="511" y="86" type="curve"/>
      <point x="488" y="56"/>
      <point x="476" y="49"/>
      <point x="452" y="49" type="curve" smooth="yes"/>
      <point x="432" y="49"/>
      <point x="420" y="80"/>
      <point x="420" y="189" type="curve"/>
      <point x="588" y="434" type="line"/>
      <point x="576" y="434"/>
      <point x="560" y="428"/>
      <point x="546" y="429" type="curve" smooth="yes"/>
      <point x="531" y="430" type="line" smooth="yes"/>
      <point x="522" y="431"/>
      <point x="511" y="434"/>
      <point x="502" y="434" type="curve"/>
      <point x="421" y="292" type="line"/>
      <point x="421" y="302" type="line" smooth="yes"/>
      <point x="421" y="390"/>
      <point x="399" y="442"/>
    </contour>
    <contour>
      <point x="380" y="220" type="line"/>
      <point x="356" y="179" type="line" smooth="yes"/>
      <point x="330" y="134"/>
      <point x="262" y="22"/>
      <point x="207" y="22" type="curve" smooth="yes"/>
      <point x="161" y="22"/>
      <point x="143" y="60"/>
      <point x="143" y="118" type="curve" smooth="yes"/>
      <point x="143" y="216"/>
      <point x="200" y="408"/>
      <point x="317" y="408" type="curve" smooth="yes"/>
      <point x="370" y="408"/>
      <point x="380" y="346"/>
      <point x="380" y="260" type="curve" smooth="yes"/>
    </contour>
  </outline>
</glyph>
<glyph name="epsilon" format="2">
  <advance width="369"/>
  <unicode hex="03B5"/>
  <anchor x="306" y="510" name="t.gr_LC"/>
  <outline>
    <contour>
      <point x="138" y="93" type="curve" smooth="yes"/>
      <point x="138" y="153"/>
      <point x="182" y="210"/>
      <point x="245" y="210" type="curve" smooth="yes"/>
      <point x="260" y="210"/>
      <point x="276" y="204"/>
      <point x="292" y="204" type="curve" smooth="yes"/>
      <point x="309" y="204"/>
      <point x="324" y="212"/>
      <point x="324" y="230" type="curve" smooth="yes"/>
      <point x="324" y="242"/>
      <point x="311" y="244"/>
      <point x="302" y="244" type="curve" smooth="yes"/>
      <point x="286" y="244"/>
      <point x="269" y="239"/>
      <point x="253" y="239" type="curve" smooth="yes"/>
      <point x="218" y="239"/>
      <point x="195" y="253"/>
      <point x="195" y="291" type="curve" smooth="yes"/>
      <point x="195" y="344"/>
      <point x="231" y="413"/>
      <point x="291" y="413" type="curve" smooth="yes"/>
      <point x="355" y="413"/>
      <point x="323" y="333"/>
      <point x="370" y="333" type="curve" smooth="yes"/>
      <point x="394" y="333"/>
      <point x="413" y="356"/>
      <point x="413" y="379" type="curve" smooth="yes"/>
      <point x="413" y="427"/>
      <point x="339" y="442"/>
      <point x="303" y="442" type="curve" smooth="yes"/>
      <point x="222" y="442"/>
      <point x="130" y="383"/>
      <point x="130" y="294" type="curve" smooth="yes"/>
      <point x="130" y="260"/>
      <point x="151" y="241"/>
      <point x="180" y="227" type="curve"/>
      <point x="113" y="204"/>
      <point x="64" y="157"/>
      <point x="64" y="83" type="curve" smooth="yes"/>
      <point x="64" y="1"/>
      <point x="137" y="-12"/>
      <point x="203" y="-12" type="curve" smooth="yes"/>
      <point x="249" y="-12"/>
      <point x="310" y="20"/>
      <point x="345" y="48" type="curve"/>
      <point x="345" y="55"/>
      <point x="341" y="63"/>
      <point x="335" y="67" type="curve"/>
      <point x="297" y="43"/>
      <point x="255" y="22"/>
      <point x="209" y="22" type="curve" smooth="yes"/>
      <point x="166" y="22"/>
      <point x="138" y="50"/>
    </contour>
  </outline>
</glyph>
<glyph name="eta" format="2">
  <advance width="490"/>
  <unicode hex="03B7"/>
  <anchor x="359" y="520" name="t.uni0302"/>
  <anchor x="111" y="-60" name="b.minus-60"/>
  <outline>
    <contour>
      <point x="155" y="310" type="line"/>
      <point x="102" y="72" type="line" smooth="yes"/>
      <point x="98" y="53"/>
      <point x="90" y="33"/>
      <point x="90" y="18" type="curve" smooth="yes"/>
      <point x="90" y="1"/>
      <point x="99" y="-10"/>
      <point x="132" y="-10" type="curve" smooth="yes"/>
      <point x="172" y="-10"/>
      <point x="172" y="44"/>
      <point x="178" y="72" type="curve" smooth="yes"/>
      <point x="216" y="238" type="line"/>
      <point x="241" y="279"/>
      <point x="323" y="380" name=".hr01"/>
      <point x="370" y="380" type="curve" smooth="yes"/>
      <point x="391" y="380"/>
      <point x="405" y="374"/>
      <point x="405" y="343" type="curve" smooth="yes"/>
      <point x="405" y="329"/>
      <point x="402" y="309"/>
      <point x="394" y="275" type="curve" smooth="yes"/>
      <point x="331" y="-3" type="line" smooth="yes"/>
      <point x="295" y="-161"/>
      <point x="288" y="-186"/>
      <point x="272" y="-215" type="curve"/>
      <point x="275" y="-233" type="line"/>
      <point x="350" y="-216" type="line"/>
      <point x="371" y="-144"/>
      <point x="387" y="-73"/>
      <point x="404" y="-3" type="curve" smooth="yes"/>
      <point x="472" y="283" type="line" smooth="yes"/>
      <point x="480" y="318"/>
      <point x="484" y="341"/>
      <point x="484" y="359" type="curve" smooth="yes"/>
      <point x="484" y="419"/>
      <point x="457" y="439"/>
      <point x="418" y="439" type="curve" smooth="yes"/>
      <point x="357" y="439"/>
      <point x="301" y="400"/>
      <point x="231" y="310" type="curve"/>
    </contour>
    <contour>
      <point x="155" y="310" type="line"/>
      <point x="228" y="310" type="line"/>
      <point x="230" y="320" type="line" smooth="yes"/>
      <point x="243" y="383"/>
      <point x="257" y="407"/>
      <point x="257" y="421" type="curve" smooth="yes"/>
      <point x="257" y="431"/>
      <point x="252" y="436" name=".hr02"/>
      <point x="245" y="436" type="curve"/>
      <point x="213" y="429"/>
      <point x="155" y="425"/>
      <point x="108" y="423" type="curve"/>
      <point x="101" y="415"/>
      <point x="103" y="404"/>
      <point x="109" y="395" type="curve"/>
      <point x="149" y="392" type="line" smooth="yes"/>
      <point x="161" y="391"/>
      <point x="167" y="382"/>
      <point x="167" y="371" type="curve" smooth="yes"/>
      <point x="167" y="363"/>
      <point x="163" y="342"/>
      <point x="156" y="314" type="curve" smooth="yes"/>
    </contour>
  </outline>
  <guideline angle="257.314" x="154" y="303"/>
  <guideline angle="77.1063" x="178" y="72"/>
</glyph>
<glyph name="phi" format="2">
  <advance width="546"/>
  <unicode hex="03C6"/>
  <outline>
    <contour>
      <point x="239.732" y="-10" type="line" smooth="yes"/>
      <point x="218.794" y="-102.513"/>
      <point x="192.452" y="-182"/>
      <point x="177.64" y="-215" type="curve"/>
      <point x="185.524" y="-233" type="line"/>
      <point x="245.646" y="-217" type="line"/>
      <point x="250.573" y="-203"/>
      <point x="255.941" y="-186.719"/>
      <point x="260.429" y="-166" type="curve" smooth="yes"/>
      <point x="362.673" y="305.951" type="line" smooth="yes"/>
      <point x="375.6" y="365.622"/>
      <point x="407.206" y="403"/>
      <point x="444.735" y="403" type="curve" smooth="yes"/>
      <point x="480.216" y="403"/>
      <point x="495" y="370"/>
      <point x="495" y="319" type="curve" smooth="yes"/>
      <point x="495" y="219.319"/>
      <point x="447.182" y="26.9148"/>
      <point x="280.928" y="18.3083" type="curve"/>
      <point x="278.388" y="-11.0515" type="line"/>
      <point x="443.995" y="-4.37275"/>
      <point x="569" y="143.883"/>
      <point x="569" y="306" type="curve" smooth="yes"/>
      <point x="569" y="381"/>
      <point x="535.548" y="442"/>
      <point x="454.591" y="442" type="curve" smooth="yes"/>
      <point x="352.089" y="442"/>
      <point x="319.565" y="342"/>
      <point x="300.839" y="260" type="curve" smooth="yes"/>
    </contour>
    <contour>
      <point x="259.595" y="-10.7047" type="curve"/>
      <point x="267.355" y="17.9972" type="line"/>
      <point x="180.009" y="18.2691"/>
      <point x="153" y="63.507"/>
      <point x="153" y="129" type="curve" smooth="yes"/>
      <point x="153" y="233"/>
      <point x="199.323" y="353"/>
      <point x="283.098" y="414" type="curve"/>
      <point x="271.271" y="435" type="line"/>
      <point x="162.856" y="385"/>
      <point x="79" y="268"/>
      <point x="79" y="147" type="curve" smooth="yes"/>
      <point x="79" y="49.5109"/>
      <point x="137.166" y="-10.7047"/>
    </contour>
  </outline>
</glyph>
<glyph name="omega" format="2">
  <advance width="630"/>
  <unicode hex="03C9"/>
  <anchor x="436" y="500" name="t.gr_LC"/>
  <anchor x="352" y="-60" name="ypogegrammeni"/>
  <outline>
    <contour>
      <point x="652" y="256" type="curve" smooth="yes"/>
      <point x="652" y="339"/>
      <point x="599" y="404"/>
      <point x="528" y="442" type="curve"/>
      <point x="520" y="439"/>
      <point x="513" y="432"/>
      <point x="510" y="423" type="curve"/>
      <point x="551" y="378"/>
      <point x="580" y="323"/>
      <point x="580" y="262" type="curve" smooth="yes"/>
      <point x="580" y="180"/>
      <point x="534" y="22"/>
      <point x="433" y="22" type="curve" smooth="yes"/>
      <point x="370" y="22"/>
      <point x="361" y="81"/>
      <point x="356" y="131" type="curve"/>
      <point x="372" y="159"/>
      <point x="408" y="235"/>
      <point x="408" y="266" type="curve" smooth="yes"/>
      <point x="408" y="281"/>
      <point x="398" y="284"/>
      <point x="385" y="284" type="curve" smooth="yes"/>
      <point x="336" y="284"/>
      <point x="325" y="163"/>
      <point x="329" y="128" type="curve"/>
      <point x="305" y="88"/>
      <point x="262" y="22"/>
      <point x="210" y="22" type="curve" smooth="yes"/>
      <point x="155" y="22"/>
      <point x="136" y="54"/>
      <point x="136" y="105" type="curve" smooth="yes"/>
      <point x="136" y="217"/>
      <point x="213" y="369"/>
      <point x="315" y="422" type="curve"/>
      <point x="315" y="429"/>
      <point x="312" y="438"/>
      <point x="308" y="442" type="curve"/>
      <point x="185" y="376"/>
      <point x="64" y="257"/>
      <point x="64" y="107" type="curve" smooth="yes"/>
      <point x="64" y="27"/>
      <point x="110" y="-12"/>
      <point x="188" y="-12" type="curve" smooth="yes"/>
      <point x="256" y="-12"/>
      <point x="299" y="40"/>
      <point x="333" y="93" type="curve"/>
      <point x="340" y="32"/>
      <point x="372" y="-12"/>
      <point x="437" y="-12" type="curve" smooth="yes"/>
      <point x="566" y="-12"/>
      <point x="652" y="140"/>
    </contour>
  </outline>
  <guideline angle="256.449" x="389" y="308"/>
</glyph>
<glyph name="uni03D0" format="2">
  <advance width="472"/>
  <unicode hex="03D0"/>
  <outline>
    <contour>
      <point x="88" y="187" type="curve" smooth="yes"/>
      <point x="88" y="88"/>
      <point x="111" y="-12"/>
      <point x="233" y="-12" type="curve" smooth="yes"/>
      <point x="380" y="-12"/>
      <point x="489" y="122"/>
      <point x="489" y="259" type="curve" smooth="yes"/>
      <point x="489" y="359"/>
      <point x="452" y="413"/>
      <point x="383" y="413" type="curve" smooth="yes"/>
      <point x="307" y="413"/>
      <point x="243" y="386"/>
      <point x="185" y="330" type="curve"/>
      <point x="190" y="349"/>
      <point x="212" y="398"/>
      <point x="216" y="408" type="curve"/>
      <point x="330" y="429"/>
      <point x="554" y="489" name=".hr01"/>
      <point x="554" y="627" type="curve" smooth="yes"/>
      <point x="554" y="677"/>
      <point x="513" y="698"/>
      <point x="469" y="698" type="curve" smooth="yes"/>
      <point x="268" y="698"/>
      <point x="88" y="371"/>
    </contour>
    <contour>
      <point x="159" y="169" type="curve" smooth="yes"/>
      <point x="159" y="283"/>
      <point x="247" y="368"/>
      <point x="365" y="368" type="curve" smooth="yes"/>
      <point x="400" y="368"/>
      <point x="419" y="332"/>
      <point x="419" y="266" type="curve" smooth="yes" name=".hr02"/>
      <point x="419" y="181"/>
      <point x="353" y="22"/>
      <point x="248" y="22" type="curve" smooth="yes"/>
      <point x="178" y="22"/>
      <point x="159" y="114"/>
    </contour>
    <contour>
      <point x="229" y="442" type="curve"/>
      <point x="277" y="562"/>
      <point x="351" y="664"/>
      <point x="447" y="664" type="curve" smooth="yes"/>
      <point x="473" y="664"/>
      <point x="489" y="645"/>
      <point x="489" y="614" type="curve" smooth="yes"/>
      <point x="489" y="506"/>
      <point x="313" y="453"/>
    </contour>
  </outline>
</glyph>
<glyph name="uni0413" format="2">
  <advance width="481"/>
  <unicode hex="0413"/>
  <anchor x="373" y="740" name="t.uni0302"/>
  <outline>
    <contour>
      <point x="121" y="120" type="line"/>
      <point x="198" y="120" type="line"/>
      <point x="285" y="571" type="line" smooth="yes"/>
      <point x="290" y="595"/>
      <point x="304" y="605"/>
      <point x="327" y="605" type="curve" smooth="yes"/>
      <point x="427" y="605" type="line" smooth="yes"/>
      <point x="499" y="605"/>
      <point x="509" y="565"/>
      <point x="517" y="496" type="curve"/>
      <point x="526" y="496"/>
      <point x="539" y="498"/>
      <point x="545" y="501" type="curve"/>
      <point x="545" y="545"/>
      <point x="552" y="637"/>
      <point x="553" y="645" type="curve"/>
      <point x="553" y="647"/>
      <point x="552" y="649"/>
      <point x="549" y="649" type="curve"/>
      <point x="532" y="646"/>
      <point x="517" y="645"/>
      <point x="503" y="645" type="curve" smooth="yes"/>
      <point x="260" y="645" type="line" smooth="yes"/>
      <point x="223" y="645"/>
      <point x="182" y="646"/>
      <point x="137" y="647" type="curve"/>
      <point x="135" y="645"/>
      <point x="129" y="628"/>
      <point x="134" y="618" type="curve"/>
      <point x="185" y="616"/>
      <point x="205" y="606"/>
      <point x="205" y="585" type="curve" smooth="yes"/>
      <point x="205" y="567"/>
      <point x="204" y="551"/>
      <point x="198" y="521" type="curve" smooth="yes"/>
    </contour>
    <contour>
      <point x="15" y="-2" type="curve"/>
      <point x="60" y="-1"/>
      <point x="99" y="0"/>
      <point x="136" y="0" type="curve" smooth="yes"/>
      <point x="149" y="0" type="line" smooth="yes"/>
      <point x="184" y="0"/>
      <point x="219" y="-1"/>
      <point x="259" y="-2" type="curve"/>
      <point x="262" y="1"/>
      <point x="268" y="25"/>
      <point x="264" y="25" type="curve"/>
      <point x="207" y="30"/>
      <point x="191" y="40"/>
      <point x="191" y="70" type="curve" smooth="yes"/>
      <point x="191" y="82"/>
      <point x="194" y="100"/>
      <point x="198" y="120" type="curve"/>
      <point x="121" y="120" type="line"/>
      <point x="109" y="59"/>
      <point x="72" y="29"/>
      <point x="20" y="25" type="curve"/>
      <point x="16" y="21"/>
      <point x="12" y="1"/>
    </contour>
  </outline>
  <guideline angle="259.077" x="198" y="521"/>
  <guideline angle="78.9991" x="174" y="0"/>
  <guideline angle="0" x="0" y="120"/>
</glyph>
<glyph name="uni0417" format="2">
	<unicode hex="0417"/>
	<advance width="520"/>
	<outline>
		<contour>
			<point x="242" y="25" type="curve" smooth="yes"/>
			<point x="169" y="25"/>
			<point x="146" y="59"/>
			<point x="139" y="120" type="curve" smooth="yes"/>
			<point x="136" y="152"/>
			<point x="128" y="165"/>
			<point x="101" y="165" type="curve" smooth="yes"/>
			<point x="72" y="165"/>
			<point x="57" y="138"/>
			<point x="57" y="113" type="curve" smooth="yes"/>
			<point x="57" y="40"/>
			<point x="175" y="-12"/>
			<point x="232" y="-12" type="curve" smooth="yes"/>
			<point x="373" y="-12"/>
			<point x="521" y="75"/>
			<point x="521" y="230" type="curve" smooth="yes"/>
			<point x="521" y="309"/>
			<point x="458" y="343"/>
			<point x="403" y="360" type="curve"/>
			<point x="478" y="387"/>
			<point x="549" y="455"/>
			<point x="549" y="540" type="curve" smooth="yes"/>
			<point x="549" y="611"/>
			<point x="481" y="658"/>
			<point x="380" y="658" type="curve" smooth="yes"/>
			<point x="322" y="658"/>
			<point x="287" y="646"/>
			<point x="203" y="646" type="curve"/>
			<point x="147" y="471" type="line"/>
			<point x="175" y="469" type="line"/>
			<point x="214" y="550"/>
			<point x="253" y="624"/>
			<point x="371" y="624" type="curve" smooth="yes"/>
			<point x="423" y="624"/>
			<point x="469" y="584"/>
			<point x="469" y="528" type="curve" smooth="yes"/>
			<point x="469" y="434"/>
			<point x="380" y="373"/>
			<point x="292" y="373" type="curve" smooth="yes"/>
			<point x="248" y="373" type="line" smooth="yes"/>
			<point x="235" y="373"/>
			<point x="226" y="361"/>
			<point x="226" y="349" type="curve" smooth="yes"/>
			<point x="226" y="341"/>
			<point x="231" y="336"/>
			<point x="240" y="336" type="curve" smooth="yes"/>
			<point x="310" y="336" type="line" smooth="yes"/>
			<point x="403" y="336"/>
			<point x="429" y="261"/>
			<point x="429" y="206" type="curve" smooth="yes"/>
			<point x="429" y="106"/>
			<point x="340" y="25"/>
		</contour>
	</outline>
	<anchor name="t.uni0302" x="419" y="740"/>
</glyph>
<glyph name="uni0423" format="2">
	<unicode hex="0423"/>
	<advance width="580"/>
	<outline>
		<contour>
			<point x="203" y="40" type="curve" smooth="yes"/>
			<point x="169" y="40"/>
			<point x="175" y="79"/>
			<point x="128" y="79" type="curve" smooth="yes"/>
			<point x="98" y="79"/>
			<point x="72" y="58"/>
			<point x="72" y="27" type="curve" smooth="yes"/>
			<point x="72" y="-2"/>
			<point x="110" y="-22"/>
			<point x="150" y="-22" type="curve" smooth="yes"/>
			<point x="231" y="-22"/>
			<point x="298" y="32"/>
			<point x="373" y="161" type="curve" smooth="yes"/>
			<point x="608" y="566" type="line" smooth="yes"/>
			<point x="631" y="606"/>
			<point x="655" y="618"/>
			<point x="701" y="618" type="curve"/>
			<point x="705" y="627"/>
			<point x="706" y="636"/>
			<point x="705" y="646" type="curve"/>
			<point x="700" y="646"/>
			<point x="656" y="645"/>
			<point x="625" y="645" type="curve" smooth="yes"/>
			<point x="582" y="645"/>
			<point x="524" y="646"/>
			<point x="517" y="646" type="curve"/>
			<point x="513" y="636"/>
			<point x="513" y="625"/>
			<point x="516" y="618" type="curve"/>
			<point x="562" y="618"/>
			<point x="582" y="614"/>
			<point x="582" y="601" type="curve" smooth="yes"/>
			<point x="582" y="597"/>
			<point x="575" y="584"/>
			<point x="570" y="575" type="curve" smooth="yes"/>
			<point x="372" y="229" type="line"/>
			<point x="282" y="575" type="line"/>
			<point x="280" y="581"/>
			<point x="278" y="588"/>
			<point x="278" y="595" type="curve" smooth="yes"/>
			<point x="278" y="609"/>
			<point x="291" y="618"/>
			<point x="356" y="618" type="curve"/>
			<point x="361" y="626"/>
			<point x="362" y="638"/>
			<point x="361" y="646" type="curve"/>
			<point x="353" y="646"/>
			<point x="280" y="645"/>
			<point x="230" y="645" type="curve" smooth="yes"/>
			<point x="189" y="645"/>
			<point x="137" y="646"/>
			<point x="131" y="646" type="curve"/>
			<point x="128" y="638"/>
			<point x="127" y="627"/>
			<point x="127" y="618" type="curve"/>
			<point x="176" y="618"/>
			<point x="192" y="579"/>
			<point x="197" y="559" type="curve" smooth="yes"/>
			<point x="310" y="136" type="line"/>
			<point x="264" y="61"/>
			<point x="235" y="40"/>
		</contour>
	</outline>
</glyph>
<glyph name="uni0432" format="2">
  <advance width="434"/>
  <unicode hex="0432"/>
  <outline>
    <contour>
      <point x="355" y="442" type="curve" smooth="yes"/>
      <point x="199" y="442"/>
      <point x="75" y="298"/>
      <point x="75" y="146" type="curve" smooth="yes"/>
      <point x="75" y="41"/>
      <point x="126" y="-12"/>
      <point x="230" y="-12" type="curve" smooth="yes"/>
      <point x="337" y="-12"/>
      <point x="417" y="52"/>
      <point x="417" y="127" type="curve" smooth="yes"/>
      <point x="417" y="169"/>
      <point x="393" y="244"/>
      <point x="292" y="249" type="curve"/>
      <point x="408" y="289"/>
      <point x="464" y="319" name=".hr01"/>
      <point x="464" y="370" type="curve" smooth="yes"/>
      <point x="464" y="399"/>
      <point x="446" y="442"/>
    </contour>
    <contour>
      <point x="333" y="134" type="curve" smooth="yes"/>
      <point x="333" y="68" name=".hr02"/>
      <point x="292" y="8"/>
      <point x="229" y="8" type="curve" smooth="yes"/>
      <point x="199" y="8"/>
      <point x="152" y="21"/>
      <point x="152" y="97" type="curve" smooth="yes"/>
      <point x="152" y="130"/>
      <point x="152" y="173"/>
      <point x="167" y="207" type="curve"/>
      <point x="202" y="221"/>
      <point x="231" y="229"/>
      <point x="258" y="229" type="curve" smooth="yes"/>
      <point x="304" y="229"/>
      <point x="333" y="177"/>
    </contour>
    <contour>
      <point x="394" y="374" type="curve" smooth="yes"/>
      <point x="394" y="312"/>
      <point x="334" y="279" name=".hr03"/>
      <point x="177" y="241" type="curve"/>
      <point x="224" y="374"/>
      <point x="278" y="420"/>
      <point x="347" y="420" type="curve" smooth="yes"/>
      <point x="387" y="420"/>
      <point x="394" y="388"/>
    </contour>
  </outline>
</glyph>
<glyph name="uni0447" format="2">
	<unicode hex="0447"/>
	<advance width="523"/>
	<outline>
		<contour>
			<point x="380" y="115" type="line" smooth="yes"/>
			<point x="374" y="88"/>
			<point x="363" y="34"/>
			<point x="363" y="17" type="curve" smooth="yes"/>
			<point x="363" y="4"/>
			<point x="370" y="-10"/>
			<point x="400" y="-10" type="curve" smooth="yes"/>
			<point x="458" y="-10"/>
			<point x="506" y="40"/>
			<point x="539" y="83" type="curve"/>
			<point x="536" y="92"/>
			<point x="530" y="100"/>
			<point x="516" y="100" type="curve"/>
			<point x="490" y="70"/>
			<point x="461" y="55"/>
			<point x="451" y="55" type="curve" smooth="yes"/>
			<point x="444" y="55"/>
			<point x="441" y="60"/>
			<point x="441" y="68" type="curve" smooth="yes"/>
			<point x="441" y="74"/>
			<point x="443" y="86"/>
			<point x="452" y="124" type="curve" smooth="yes"/>
			<point x="508" y="352" type="line" smooth="yes"/>
			<point x="520" y="399"/>
			<point x="521" y="408"/>
			<point x="521" y="414" type="curve" smooth="yes"/>
			<point x="521" y="429"/>
			<point x="514" y="439"/>
			<point x="491" y="439" type="curve" smooth="yes"/>
			<point x="459" y="439"/>
			<point x="447" y="421"/>
			<point x="433" y="357" type="curve" smooth="yes"/>
			<point x="410" y="251" type="line"/>
			<point x="381" y="229"/>
			<point x="310" y="181"/>
			<point x="266" y="181" type="curve" smooth="yes"/>
			<point x="239" y="181"/>
			<point x="234" y="200"/>
			<point x="234" y="225" type="curve" smooth="yes"/>
			<point x="234" y="249"/>
			<point x="239" y="271"/>
			<point x="244" y="293" type="curve"/>
			<point x="249" y="311" type="line" smooth="yes"/>
			<point x="265" y="368"/>
			<point x="269" y="385"/>
			<point x="269" y="398" type="curve" smooth="yes"/>
			<point x="269" y="421"/>
			<point x="256" y="436"/>
			<point x="234" y="436" type="curve" smooth="yes"/>
			<point x="176" y="436"/>
			<point x="129" y="415"/>
			<point x="92" y="380" type="curve"/>
			<point x="92" y="371"/>
			<point x="96" y="359"/>
			<point x="104" y="354" type="curve"/>
			<point x="117" y="369"/>
			<point x="155" y="392"/>
			<point x="169" y="392" type="curve" smooth="yes"/>
			<point x="179" y="392"/>
			<point x="186" y="382"/>
			<point x="186" y="371" type="curve" smooth="yes"/>
			<point x="186" y="363"/>
			<point x="183" y="349"/>
			<point x="177" y="321" type="curve" smooth="yes"/>
			<point x="164" y="264" type="line" smooth="yes"/>
			<point x="159" y="242"/>
			<point x="155" y="218"/>
			<point x="155" y="197" type="curve" smooth="yes"/>
			<point x="155" y="151"/>
			<point x="173" y="131"/>
			<point x="216" y="131" type="curve" smooth="yes"/>
			<point x="281" y="131"/>
			<point x="354" y="176"/>
			<point x="400" y="211" type="curve"/>
			<point x="401" y="211" type="line"/>
		</contour>
	</outline>
	<anchor name="t.uni0302" x="345" y="500"/>
</glyph>
<glyph name="uni0473" format="2">
  <advance width="447"/>
  <unicode hex="0473"/>
  <anchor x="358" y="500" name="top"/>
  <outline>
    <component base="o"/>
    <contour>
      <point x="142" y="203" type="line"/>
      <point x="151" y="206"/>
      <point x="178" y="207"/>
      <point x="189" y="207" type="curve" smooth="yes"/>
      <point x="222" y="207"/>
      <point x="243" y="180"/>
      <point x="283" y="180" type="curve" smooth="yes"/>
      <point x="320" y="180"/>
      <point x="373" y="197"/>
      <point x="398" y="214" type="curve"/>
      <point x="398" y="243" type="line"/>
      <point x="384" y="234"/>
      <point x="356" y="229"/>
      <point x="335" y="229" type="curve" smooth="yes"/>
      <point x="299" y="229"/>
      <point x="288" y="248"/>
      <point x="247" y="248" type="curve" smooth="yes"/>
      <point x="214" y="248"/>
      <point x="178" y="238"/>
      <point x="142" y="224" type="curve"/>
    </contour>
  </outline>
</glyph>
<glyph name="uni0476" format="2">
  <advance width="691"/>
  <unicode hex="0476"/>
  <outline>
    <contour>
      <point x="559" y="511" type="curve" smooth="yes"/>
      <point x="394" y="213" type="line"/>
      <point x="347" y="129" type="line"/>
      <point x="333" y="216" type="line"/>
      <point x="277" y="572" type="line"/>
      <point x="276" y="580"/>
      <point x="276" y="586"/>
      <point x="277" y="592" type="curve" smooth="yes"/>
      <point x="280" y="608"/>
      <point x="294" y="616" name=".hr01"/>
      <point x="330" y="616" type="curve" smooth="yes"/>
      <point x="357" y="616" type="line" smooth="yes"/>
      <point x="362" y="616"/>
      <point x="365" y="619"/>
      <point x="367" y="625" type="curve"/>
      <point x="370" y="643" type="line"/>
      <point x="369" y="645" type="line"/>
      <point x="369" y="645"/>
      <point x="279" y="642"/>
      <point x="244" y="642" type="curve" smooth="yes"/>
      <point x="205" y="642"/>
      <point x="127" y="645"/>
      <point x="127" y="645" type="curve"/>
      <point x="125" y="643" type="line"/>
      <point x="122" y="625" type="line"/>
      <point x="122" y="624"/>
      <point x="121" y="623"/>
      <point x="121" y="622" type="curve" smooth="yes"/>
      <point x="121" y="618"/>
      <point x="124" y="616"/>
      <point x="128" y="616" type="curve" smooth="yes"/>
      <point x="140" y="616" type="line" smooth="yes"/>
      <point x="180" y="616"/>
      <point x="188" y="601"/>
      <point x="192" y="572" type="curve" smooth="yes" name=".hr02"/>
      <point x="280" y="11" type="line"/>
      <point x="283" y="-4"/>
      <point x="288" y="-12"/>
      <point x="299" y="-12" type="curve" smooth="yes"/>
      <point x="309" y="-12"/>
      <point x="319" y="-4"/>
      <point x="328" y="11" type="curve"/>
      <point x="607" y="511" type="line" smooth="yes"/>
      <point x="639" y="568"/>
      <point x="663" y="590" name=".hr03"/>
      <point x="688" y="590" type="curve" smooth="yes"/>
      <point x="698" y="590"/>
      <point x="709" y="587"/>
      <point x="715" y="580" type="curve"/>
      <point x="721" y="574"/>
      <point x="732" y="572" name=".hr04"/>
      <point x="742" y="572" type="curve" smooth="yes"/>
      <point x="757" y="572"/>
      <point x="781" y="588"/>
      <point x="786" y="613" type="curve"/>
      <point x="787" y="616" name=".hr05"/>
      <point x="787" y="619"/>
      <point x="787" y="622" type="curve" smooth="yes"/>
      <point x="787" y="646"/>
      <point x="765" y="661" name=".hr06"/>
      <point x="737" y="661" type="curve" smooth="yes"/>
      <point x="662" y="661"/>
      <point x="600" y="583"/>
    </contour>
    <contour>
      <point x="518" y="823" type="curve" smooth="yes"/>
      <point x="507" y="816"/>
      <point x="500" y="805"/>
      <point x="498" y="794" type="curve"/>
      <point x="495" y="783"/>
      <point x="498" y="778"/>
      <point x="500" y="776" type="curve"/>
      <point x="500" y="775"/>
      <point x="500" y="775"/>
      <point x="500" y="775" type="curve"/>
      <point x="579" y="689" type="line"/>
      <point x="580" y="688"/>
      <point x="583" y="687"/>
      <point x="586" y="687" type="curve" smooth="yes"/>
      <point x="588" y="687"/>
      <point x="592" y="688"/>
      <point x="594" y="690" type="curve"/>
      <point x="598" y="693"/>
      <point x="601" y="697"/>
      <point x="602" y="701" type="curve"/>
      <point x="602" y="704" type="line"/>
      <point x="602" y="704"/>
      <point x="578" y="832"/>
      <point x="543" y="832" type="curve" smooth="yes"/>
      <point x="533" y="832"/>
      <point x="524" y="827"/>
    </contour>
    <contour>
      <point x="384" y="817" type="curve" smooth="yes"/>
      <point x="374" y="810"/>
      <point x="367" y="799"/>
      <point x="365" y="789" type="curve"/>
      <point x="364" y="786"/>
      <point x="364" y="784"/>
      <point x="364" y="782" type="curve" smooth="yes"/>
      <point x="364" y="776"/>
      <point x="366" y="772"/>
      <point x="369" y="769" type="curve" smooth="yes"/>
      <point x="451" y="685" type="line"/>
      <point x="452" y="683"/>
      <point x="455" y="683"/>
      <point x="457" y="683" type="curve" smooth="yes"/>
      <point x="461" y="683"/>
      <point x="465" y="685"/>
      <point x="467" y="686" type="curve"/>
      <point x="471" y="689"/>
      <point x="474" y="692"/>
      <point x="475" y="696" type="curve"/>
      <point x="475" y="698"/>
      <point x="475" y="700"/>
      <point x="474" y="701" type="curve"/>
      <point x="434" y="815" type="line"/>
      <point x="430" y="824"/>
      <point x="423" y="827"/>
      <point x="410" y="827" type="curve" smooth="yes"/>
      <point x="400" y="827"/>
      <point x="390" y="821"/>
    </contour>
  </outline>
</glyph>
